<svg xmlns="http://www.w3.org/2000/svg" width="242" height="218.513" viewBox="0 0 242 218.513"><defs><style>.a{fill:#f1f1f1;}.b{fill:#f7f7f8;}.c{fill:#97ffb6;}.d{fill:#c4cfe0;}.e{fill:#2b7ef9;}.f{fill:#01569b;}.aa,.ab,.ac,.g,.q,.r,.s,.x,.y,.z{isolation:isolate;}.h{fill:#fff;}.i,.r{fill:#414551;}.j{fill:#2d608a;}.k{fill:#ff9569;}.l{fill:#e5f1ff;}.m{fill:#23557d;}.n{fill:#c9e2ff;}.o{fill:#41424c;}.p,.q{fill:#007b87;}.q,.x{opacity:0.33;}.aa,.ab,.ac,.q,.r,.s,.x,.y,.z{mix-blend-mode:multiply;}.ac,.s,.v{fill:#0c1d25;}.ab,.t,.y,.z{fill:#ffc937;}.aa,.u{fill:#f8985f;}.w,.x{fill:#ff877d;}.y{opacity:0.38;}.z{opacity:0.8;}.aa{opacity:0.3;}.ab{opacity:0.5;}.ac{opacity:0.44;}</style></defs><g transform="translate(-62 -404.117)"><ellipse class="a" cx="121" cy="4" rx="121" ry="4" transform="translate(62 610)"/><path class="b" d="M165.7,40.267A76.349,76.349,0,0,0,62.322,9.088C25.169,29.021-14.608,89.154,5.328,126.31s79.22,7.924,121.383,8.418C185.516,135.418,185.63,77.423,165.7,40.267Z" transform="matrix(0.839, 0.545, -0.545, 0.839, 145.512, 404.117)"/><path class="c" d="M324.785,703.811H211l18.215-6.624s-12.419-28.978,2.9-28.564a12.5,12.5,0,0,1,7.865,2.484s.621-24.424,13.247-24.631,20.136,22.148,20.136,22.148,9.725-10.244,21.218-8.6c8.209,1.095,10.939,11.917,14.209,15.724.11.127,13.261-5.964,17.26,1.052s-1.263,27.013-1.263,27.013" transform="translate(-122.89 -90.709)"/><rect class="d" width="111.341" height="69.195" rx="5" transform="translate(125 455.91)"/><g transform="translate(132.229 446.769)"><rect class="e" width="69.231" height="111.4" rx="5.003" transform="translate(0 68.185) rotate(-80.024)"/><rect class="f" width="64.813" height="106.606" rx="3" transform="translate(2.908 66.542) rotate(-80.024)"/></g><g class="g" transform="translate(154.674 461.352)"><path class="h" d="M11.271-10.438a5.231,5.231,0,0,0-4.216-1.9A6.054,6.054,0,0,0,.7-5.967,6.028,6.028,0,0,0,7.055.306a5.325,5.325,0,0,0,4.488-2.142L9.775-3.094a3.383,3.383,0,0,1-2.7,1.462c-2.482,0-4.131-1.9-4.131-4.471a4.083,4.083,0,0,1,4.131-4.3A3.28,3.28,0,0,1,9.6-9.214Zm1.343,4.471A6.028,6.028,0,0,0,18.972.306a6.133,6.133,0,0,0,6.409-6.341,5.978,5.978,0,0,0-6.409-6.307A6.054,6.054,0,0,0,12.614-5.967ZM14.858-6.1a4.083,4.083,0,0,1,4.131-4.3,4.086,4.086,0,0,1,4.148,4.3c0,2.567-1.649,4.471-4.148,4.471C16.507-1.632,14.858-3.536,14.858-6.1ZM27.744,0h2.04V-10h.034L33.473,0h1.5l3.655-10h.034V0H40.7V-12.036h-3.23L34.221-3.6l-3.213-8.432H27.744ZM43.656,0H45.8V-12.036H43.656Zm5.049,0h2.142V-9.231h.034L56.831,0h2.72V-12.036H57.409v8.942h-.034l-5.831-8.942H48.705ZM73.2-7.038H68.6V-5.1H71.06v2.839a5.771,5.771,0,0,1-2.822.629c-2.482,0-4.131-1.9-4.131-4.471a4.083,4.083,0,0,1,4.131-4.3,4.547,4.547,0,0,1,3.145,1.173l1.581-1.6a6.865,6.865,0,0,0-4.743-1.513,6.054,6.054,0,0,0-6.358,6.375A6.028,6.028,0,0,0,68.221.306,10.419,10.419,0,0,0,73.2-.884Z" transform="translate(1.804 18.757) rotate(10)"/><path class="h" d="M8.806-11.1a4.94,4.94,0,0,0-3.451-1.241C3.128-12.342.918-11.186.918-8.7c0,4.3,5.712,2.788,5.712,5.423,0,1.105-1.122,1.649-2.108,1.649A2.839,2.839,0,0,1,2.142-2.89L.527-1.326A4.988,4.988,0,0,0,4.471.306c2.363,0,4.4-1.258,4.4-3.842,0-4.284-5.712-2.907-5.712-5.321,0-1.105.986-1.547,1.972-1.547a2.539,2.539,0,0,1,2.108.952Zm1.921,5.134A6.028,6.028,0,0,0,17.085.306a6.133,6.133,0,0,0,6.409-6.341,5.978,5.978,0,0,0-6.409-6.307A6.054,6.054,0,0,0,10.727-5.967ZM12.971-6.1A4.083,4.083,0,0,1,17.1-10.4,4.086,4.086,0,0,1,21.25-6.1c0,2.567-1.649,4.471-4.148,4.471C14.62-1.632,12.971-3.536,12.971-6.1Zm12.189.136A6.028,6.028,0,0,0,31.518.306a6.133,6.133,0,0,0,6.409-6.341,5.978,5.978,0,0,0-6.409-6.307A6.054,6.054,0,0,0,25.16-5.967ZM27.4-6.1a4.083,4.083,0,0,1,4.131-4.3,4.086,4.086,0,0,1,4.148,4.3c0,2.567-1.649,4.471-4.148,4.471C29.053-1.632,27.4-3.536,27.4-6.1ZM40.239,0h2.142V-9.231h.034L48.365,0h2.72V-12.036H48.943v8.942h-.034l-5.831-8.942H40.239Z" transform="translate(9.472 41.74) rotate(10)"/></g><path class="i" d="M427.619,416.177s5.571,3.534.164,5.172-4.41,2.5-4.41,2.5a23.475,23.475,0,0,0,10.514-.23c4.26.5-1.58-8.142-1.58-8.142Z" transform="translate(-178.651 188.611)"/><path class="i" d="M405.524,417.719s5.073,4.218-.5,5.15-4.694,1.913-4.694,1.913a23.48,23.48,0,0,0,10.459,1.12c4.161,1.042-.524-8.278-.524-8.278Z" transform="translate(-171.449 187.939)"/><path class="j" d="M424.043,353.514c.017-.091.029-.137.029-.137.18.006.366.006.557-.005a20.75,20.75,0,0,0,5.193-1.132c3.462-1.15,4.17,2.375,4.17,2.375s-3.927,20.462.058,42.1l.337,1.574c-3.926,2.69-6.349.511-6.349.511-.226-.651-.438-1.3-.645-1.934q-.6-1.873-1.1-3.711a96.69,96.69,0,0,1-3.436-24.563A75.571,75.571,0,0,1,424.043,353.514Z" transform="translate(-178.507 208.466)"/><path class="k" d="M423.5,290.828c.248-1.89.159-1.669-.254-2.059a5.614,5.614,0,0,1-.8-1.8c-.078-.4.126-.646.379-.449.129.1.435.52.454.338a11.152,11.152,0,0,1,.8-3.431c.335-.6.706,1.326.912,2.635a6.637,6.637,0,0,1,0,2.1l-.372,2.272Z" transform="translate(-178.377 229.957)"/><g transform="translate(215.551 529.199)"><path class="k" d="M387.631,308.125A6.219,6.219,0,0,1,386,306.99a1.67,1.67,0,0,0-1.394-.479,5.568,5.568,0,0,0-1.051.265c-.381.159-.469.462-.166.564.153.052.672.076.531.191-.937.719-2.264-1.337-2.929-.36-.469.9,4.221,1.741,4.221,1.741l1.475,1Z" transform="translate(-380.954 -306.495)"/><path class="l" d="M409.893,318.226l-.962,5.965c-1.422-.495-2.824-1.051-4.2-1.684a46.054,46.054,0,0,1-5.236-2.79c-.557-.371-1.113-.77-1.649-1.2a33,33,0,0,1-3.326-3.25c-.22-.22-.426-.433-.625-.639-1.773-1.883-2.618-3.14-5.422-4.178,0,0,.027-.082.076-.206a2.925,2.925,0,0,1,1.271-1.539c.069-.027.137-.048.206-.069l6.535,3.367a8.737,8.737,0,0,1,1.642,1.065,15.854,15.854,0,0,0,2.275,1.409C402.547,315.58,406.759,317.669,409.893,318.226Z" transform="translate(-383.307 -307.166)"/></g><path class="m" d="M423.949,380.811a14.132,14.132,0,0,0,2.9,7.661c1.383,1.811,1.383,5.809,0,10.676a10.411,10.411,0,0,1-.55,1.563,96.689,96.689,0,0,1-3.436-24.563C423.9,376.162,423.947,378.567,423.949,380.811Z" transform="translate(-178.515 200.914)"/><path class="l" d="M425.319,291.077c.212,3.313,1.367,4.384,2.883,7.17a33.392,33.392,0,0,1,2.162,4.12c.249.636.473,1.279.669,1.919,1.377,4.449,1.292,10.927,1.292,10.927l-5.7-1.39c.37-3.164-.427-7.8-.89-10.093a15.3,15.3,0,0,0-.7-2.58,8.855,8.855,0,0,1-.548-1.879l-1.354-7.232C423.69,291.116,425.319,291.077,425.319,291.077Z" transform="translate(-178.6 227.528)"/><path class="k" d="M421.4,308.659l.02-.024c10.2-2.514,5.166,7.146,5.166,7.146l-.17.258c-.083.119-.194.294-.358.544-.528.8,1.773,4.292,1.773,4.292l-7.336-1.374.926-2.917C416.7,314.037,421.066,309.03,421.4,308.659Z" transform="translate(-177.381 222.166)"/><path class="m" d="M434.005,354.616l-1.265-2.608h-9.849v17.666l10.434-10.533Z" transform="translate(-178.523 208.466)"/><path class="j" d="M406.5,394.177c-2.83-23.757,4.208-41.524,4.9-43.2.032-.087.052-.131.052-.131.178.039.358.074.55.1a20.611,20.611,0,0,0,5.312-.137,58.035,58.035,0,0,0,7.073-1.437c-.125.268-.245.539-.365.81-.95,2.15-1.824,4.329-2.654,6.528q-2.142,5.649-3.827,11.445a123.349,123.349,0,0,0-3.32,14.4c-.419,2.549-.743,5.117-.944,7.7-.1,1.288-.157,2.577-.2,3.868a9.442,9.442,0,0,0,.216,2.419,6.957,6.957,0,0,1,.315,1.424c-4.362,1.9-6.171.847-6.171.847C407.34,398.131,406.577,394.842,406.5,394.177Z" transform="translate(-173.185 209.291)"/><path class="m" d="M411.4,351.573l.6-.028,5.354-.254s-.014.038-.043.117c-.389,1.093-3.82,2.114-5.107,19.568-1.33,18.041-5,24.074-5.71,23.8C403.667,371.021,410.705,353.251,411.4,351.573Z" transform="translate(-173.185 208.691)"/><path class="l" d="M415.733,322.068c11.524-.132,12.981,1.855,12.981,1.855l1.857,21.324s-4.414,3.221-18.467-.388c0,0-1.138,2.64,2.174-16.3Z" transform="translate(-175.089 217.835)"/><path class="n" d="M415.7,332.415a10.842,10.842,0,0,1-1.833,6.138s-.355,3.777-1.15,4.042l2-12.29.383.535C415.513,331.262,415.577,331.518,415.7,332.415Z" transform="translate(-175.34 215.256)"/><path class="o" d="M428.646,312.14c.191,1.525.317,2.542.462,4.937s2.033,3.775,3.7,5.227,1.452,6.679,0,4.574-2.178,4.066-5.954,2.105-2.031.363-5.2-1.888-.661-1.9.271-6.278c.2-.941-1.322-3.241-1.649-3.742-.868-1.331,2.771-2.617,1.38-4.066-2.437-2.541.026-4.423.026-4.423C428.791,306.632,428.455,310.615,428.646,312.14Z" transform="translate(-177.653 222.215)"/><path class="n" d="M407.2,325.233a46.056,46.056,0,0,1-5.236-2.79c-.557-.371-1.113-.77-1.649-1.2a33,33,0,0,1-3.326-3.25c-.22-.22-.426-.433-.625-.639a8.691,8.691,0,0,1,4.171.783c1.945,1.086,2.694,4.412,4.24,4.81A5.084,5.084,0,0,1,407.2,325.233Z" transform="translate(-170.224 219.308)"/><g transform="translate(111 515.266)"><path class="p" d="M267.487,357.994s5.276,16.392,4.424,20.051S258.678,400.7,258.678,400.7l-2.381-1.723s5.439-19.72,6.549-20.78a1.942,1.942,0,0,0,.293-2.454h0l-3.759-6.516-2.857-6.868-.551-3.81,10.664-1.253Z" transform="translate(-235.304 -308.453)"/><path class="q" d="M271.911,378.045c-.851,3.655-13.233,22.653-13.233,22.653l-2.382-1.724s5.443-19.72,6.552-20.786a1.962,1.962,0,0,0,.6-1.33,1.936,1.936,0,0,0-.307-1.123l-3.763-6.516-2.067-4.964-.787-1.9-.551-3.806,10.665-1.259.851.708S272.762,374.382,271.911,378.045Z" transform="translate(-235.305 -308.451)"/><path class="q" d="M264.595,358.994l-.5,18.4h-.036a1.936,1.936,0,0,0-.307-1.123l-3.763-6.516-2.067-4.964Z" transform="translate(-235.914 -308.985)"/><g transform="translate(20.046 90.733)"><path class="i" d="M256.307,418.259l2.068,1.059,3.609,3.716a16.137,16.137,0,0,1,3.459.752c.526.376.208,1.329-2.039,1.247s-6.533-.279-6.533-.279l-1.8-3.751Z" transform="translate(-255.067 -418.259)"/><path class="r" d="M256.27,418.423l2.105.946,3.609,3.716a16.137,16.137,0,0,1,3.459.752c.526.376.208,1.329-2.039,1.247s-6.533-.579-6.533-.579l-1.8-3.45Z" transform="translate(-255.067 -418.31)"/></g><g transform="translate(19.227 92.243)"><path class="i" d="M254.465,420.456s-1.074,3.766-.322,4.518,10.176,1.253,10.527.652.1-1.3-2.556-2.356a12.478,12.478,0,0,1-4.26-2.814Z" transform="translate(-253.875 -420.456)"/></g><path class="p" d="M262.066,358l-5.479,42.238s-4.234.486-4.249-.357c-.007-.287-.014-.566-.021-.845-.636-26.923-3.634-38.1-2-41.744a1.9,1.9,0,0,1,.4-.587C253.182,354.15,262.066,358,262.066,358Z" transform="translate(-233.385 -307.996)"/><path class="q" d="M255.27,374.141c-1.552,5.765.407,20.4-1.266,23.275a8.239,8.239,0,0,1-1.688,2.024c-.636-26.923-3.634-38.1-2-41.744a1.9,1.9,0,0,1,.4-.587l3.9.88S256.816,368.376,255.27,374.141Z" transform="translate(-233.385 -308.396)"/><path class="s" d="M261.323,313.015s-6.867,4.505-7.817,4.241a5.071,5.071,0,0,1,.328-1.619C254.066,315.388,261.323,313.015,261.323,313.015Z" transform="translate(-234.532 -294.601)"/><path class="t" d="M287.752,314.448l4.684,7.122a1.042,1.042,0,0,1-.4,1.5l-.2.1a1.042,1.042,0,0,1-1.367-.39l-4.1-6.815Z" transform="translate(-244.814 -295.049)"/><path class="u" d="M289.182,322.861s-.169-.522-.3-1.118c-.157-.724-.257-1.558.073-1.7.6-.263.715.79.752,1.165s1.249.8,1.384,1.466a1.505,1.505,0,0,1-.218,1.282Z" transform="translate(-245.554 -296.786)"/><path class="u" d="M292.955,319.865c-.376-1.352-2.1-2.856-2.872-1.954s.73,2.1.993,2.271.9,1.789,1.466,1.414A1.684,1.684,0,0,0,292.955,319.865Z" transform="translate(-245.907 -296.047)"/><path class="u" d="M288.563,326.055l.266-3.518,1.991,2.211s-.761,0-1.363,1.57C289.336,326.633,288.563,326.055,288.563,326.055Z" transform="translate(-245.5 -297.58)"/><path class="v" d="M252.6,315.95a2.334,2.334,0,0,0-1.071,1.462,2.727,2.727,0,0,0,.48,2.368,1.31,1.31,0,0,1,.3,1.208c-.315.87-2.736.158-3.8,2.115-.832,1.526.5,3.483.534,4.589s-1.886,1.462-2.135,3.917,1.427,5.339,4.77,4.911,5.265-5.223,5.265-5.223l.948-10.332-1.428-2.809Z" transform="translate(-232.459 -295.519)"/><path class="u" d="M261.9,320.171c-3.58-.932-3.69-5.567-3.69-5.567l-2.108,1.072-.194,1.368a4.486,4.486,0,0,0,1.4,2.219,7.822,7.822,0,0,1,.324,3.192s1.952.185,3.079.353l.6-.735a6.144,6.144,0,0,1-.6-1.529A3.26,3.26,0,0,0,261.9,320.171Z" transform="translate(-235.283 -295.098)"/><path class="w" d="M267.277,327.152l1.224-1.378,7.889,8.52s4.526-6.92,5.482-9.317l1.579.732s-.6,13.22-6.149,14.436a12.509,12.509,0,0,1-8.434-3.2C264.69,333.381,267.277,327.152,267.277,327.152Z" transform="translate(-238.593 -298.343)"/><path class="x" d="M266.9,336.131l.5-1.431L269.1,333s1.8,6.767,7.068,8.672c1.442.522,2.436.515,3.234-.087a4.225,4.225,0,0,1-1.965,1.069,12.509,12.509,0,0,1-8.434-3.2A6.529,6.529,0,0,1,266.9,336.131Z" transform="translate(-238.724 -300.853)"/><path class="w" d="M251.127,344.891" transform="translate(-233.788 -304.573)"/><line class="w" x2="1.096" y2="2.21" transform="translate(18.95 32.742)"/><path class="s" d="M249.732,329.717s-5.215,1.478-3.977,3.874c1.2,2.333.078,1.518-1.843,3.877-1.3,1.591-.525,7.056,3.79,6.828S249.732,329.717,249.732,329.717Z" transform="translate(-231.353 -299.826)"/><path class="w" d="M259.3,324.5s-1.5,2.56-4.6-.2a13.594,13.594,0,0,0-3.011,1.15,1.51,1.51,0,0,0-.838,1.119c-.385,2.373-.979,10.048-1.042,14.5-.076,5.319.087,7.675.087,7.675s13.14.722,15.647-1.311l-1.7-18.761.136-1.589a1.753,1.753,0,0,0-1.187-1.77A13.8,13.8,0,0,0,259.3,324.5Z" transform="translate(-233.371 -298.131)"/><g transform="translate(36.979 0)"><path class="t" d="M280.288,304.048c2.6-2.6,11.326-11.447,12.7-14.445l9.29,13.5s-13.044,3.052-18.042,6.137a1.971,1.971,0,0,1-2.121-.026,5.607,5.607,0,0,1-2.332-3.274A1.948,1.948,0,0,1,280.288,304.048Z" transform="translate(-279.709 -287.277)"/><path class="y" d="M280.288,309.946l.109-.109c.8,2.3,3.6,3.38,5.973,2.732,4.922-1.343,11.99-3.255,15.363-4.114l.541.546s-13.044,3.052-18.042,6.137a1.971,1.971,0,0,1-2.121-.026,5.607,5.607,0,0,1-2.332-3.274A1.948,1.948,0,0,1,280.288,309.946Z" transform="translate(-279.709 -293.175)"/><ellipse class="t" cx="2.999" cy="8.454" rx="2.999" ry="8.454" transform="translate(11.297 3.418) rotate(-34.742)"/><ellipse class="z" cx="2.999" cy="8.454" rx="2.999" ry="8.454" transform="translate(11.297 3.418) rotate(-34.742)"/><path class="z" d="M302.153,298.619c1.9,2.742,4.232,4.418,5.205,3.744s.22-3.445-1.682-6.187-4.233-4.419-5.205-3.744S300.25,295.876,302.153,298.619Z" transform="translate(-286.071 -288.115)"/><path class="t" d="M299.123,298.782l3.968-2.023a1.168,1.168,0,0,1,1.541.455l.423.729a1.168,1.168,0,0,1-.249,1.472l-3.579,3.079Z" transform="translate(-285.782 -289.476)"/><path class="z" d="M302.153,298.619c1.9,2.742,4.232,4.418,5.205,3.744s.22-3.445-1.682-6.187-4.233-4.419-5.205-3.744S300.25,295.876,302.153,298.619Z" transform="translate(-286.071 -288.115)"/><path class="z" d="M299.2,289.089c-.216,1.75.941,4.877,3.1,7.982,2.258,3.256,4.922,5.5,6.635,5.744-1.448.658-4.555-1.648-7.111-5.333C299.359,293.934,298.274,290.355,299.2,289.089Z" transform="translate(-285.704 -287.116)"/></g><path class="u" d="M230.838,308.4a9.157,9.157,0,0,1-2.073-3.055c-.36-1.359-1.656-5.88-2.347-5.815s-.563,2.026-.376,3.4-.39,3,.324,3.625a21.446,21.446,0,0,1,2.236,3.852Z" transform="translate(-225.895 -290.383)"/><path class="w" d="M244.889,323.086s3.2-3.439,2.611-3.309a13.775,13.775,0,0,1-10.756-2.424c-2.422-1.854-6.337-7.507-6.337-7.507l-3.111,1.9s2.541,6.329,4.386,8.714c3.34,4.318,11.44,8.465,11.44,8.465Z" transform="translate(-226.333 -293.61)"/><path class="x" d="M242.956,329.71l.577-3.256s-5.974-1.857-9.691-4.784c-2.661-2.094-6.546-9.064-6.546-9.064s2.541,6.329,4.386,8.714C234.56,325.042,241.335,328.849,242.956,329.71Z" transform="translate(-226.333 -294.474)"/><path class="u" d="M262.905,316.275s.339,1.761-.707,2.536a3.626,3.626,0,0,1-4.256-.1,4.862,4.862,0,0,1-2.256-3.265c-.367-1.543,1.082-5.082,4.023-4.282a3.427,3.427,0,0,1,1.915,1.381" transform="translate(-235.197 -293.986)"/><path class="aa" d="M261.9,320.171c-3.58-.932-3.69-5.567-3.69-5.567l-2.108,1.072-.194,1.368a4.486,4.486,0,0,0,1.4,2.219c.537,1.378-1.065,2.261-1.065,2.261a39.246,39.246,0,0,0,4.469,1.419l.6-.869a6.144,6.144,0,0,1-.6-1.529A3.26,3.26,0,0,0,261.9,320.171Z" transform="translate(-235.283 -295.098)"/><path class="v" d="M257.605,311.887s6.973-.928,5.991,1.654c-.823,2.162-3.458.364-6.048,1.921C254.35,317.387,257.605,311.887,257.605,311.887Z" transform="translate(-235.357 -294.198)"/><path class="v" d="M256.852,312.375s2.791.626.169,3.291c-.957.973,1.442,2.843.4,4.743-.391.715-2.16.715-2.16.715a1.534,1.534,0,0,0,.429-2.115,4.864,4.864,0,0,1-1.044-4.393A3.623,3.623,0,0,1,256.852,312.375Z" transform="translate(-234.829 -294.401)"/><g transform="translate(18.637 15.43)"><path class="t" d="M263.129,310.682a77.829,77.829,0,0,1-9.956,4.325.124.124,0,0,1-.117-.21l.269-.251a.558.558,0,0,0,.167-.52,4.179,4.179,0,0,1,2.852-5.133,3.688,3.688,0,0,1,4.267,1.3,1.045,1.045,0,0,0,1.177.309c.74-.276,1.781-.623,1.919-.46C263.922,310.3,263.129,310.682,263.129,310.682Z" transform="translate(-253.016 -308.673)"/><path class="ab" d="M257.624,313.324a2.979,2.979,0,0,1-3.3-2.488,4.6,4.6,0,0,0-.83,3.867.558.558,0,0,1-.167.519l-.269.251a.124.124,0,0,0,.117.21,52.3,52.3,0,0,0,6.5-2.636C259.18,313.14,258.518,313.236,257.624,313.324Z" transform="translate(-253.016 -309.35)"/></g><path class="ac" d="M258.141,317.457s-1.139-.455-1.294.28.59,1.663,1.23,1.269" transform="translate(-235.571 -295.947)"/><path class="u" d="M258.336,317.139a.636.636,0,0,0-1.13.117c-.306.686.187,1.829,1.067,1.584" transform="translate(-235.662 -295.799)"/><path class="aa" d="M258.336,317.139a.636.636,0,0,0-1.13.117c-.306.686.187,1.829,1.067,1.584" transform="translate(-235.662 -295.799)"/></g></g></svg>