<svg xmlns="http://www.w3.org/2000/svg" width="263" height="131" viewBox="0 0 263 131"><defs><style>.a{fill:#f1f1f1;}.b{fill:#2b7ef9;}.c{fill:#8ebcff;opacity:0.6;}.d{fill:#bed8fe;}.e{fill:#fff;}.f{fill:#1767d1;}.g{fill:#01569b;}.h{fill:#cee9ff;}.i{fill:#373449;}.j{fill:#2680eb;}.k{fill:none;stroke:#373449;stroke-linecap:round;stroke-miterlimit:10;stroke-width:2px;}</style></defs><g transform="translate(-451.38 -504.164)"><ellipse class="a" cx="131.5" cy="5" rx="131.5" ry="5" transform="translate(451.38 625.164)"/><g transform="translate(473.072 504)"><rect class="b" width="198" height="126" rx="5" transform="translate(0.308 0.164)"/><rect class="c" width="56" height="109" rx="3" transform="translate(9.308 8.164)"/><rect class="c" width="57" height="70" rx="3" transform="translate(70.308 8.164)"/><rect class="c" width="57" height="88" rx="3" transform="translate(133.308 8.164)"/><g transform="translate(12.044 13.393)"><rect class="d" width="50.055" height="17.311" rx="2"/><ellipse class="e" cx="2.994" cy="2.996" rx="2.994" ry="2.996" transform="translate(3.474 5.368)"/><g transform="translate(12.123 5.368)"><rect class="e" width="31.778" height="1.757" rx="0.879"/><rect class="e" width="23.142" height="1.757" rx="0.879" transform="translate(0 4.57)"/></g></g><g transform="translate(73.845 13.393)"><rect class="d" width="50.055" height="17.311" rx="2"/><ellipse class="e" cx="2.994" cy="2.996" rx="2.994" ry="2.996" transform="translate(3.474 5.368)"/><g transform="translate(12.123 5.368)"><rect class="e" width="31.778" height="1.757" rx="0.879"/><rect class="e" width="23.142" height="1.757" rx="0.879" transform="translate(0 4.57)"/></g></g><g transform="translate(136.75 13.393)"><rect class="d" width="50.055" height="17.311" rx="2" transform="translate(0)"/><ellipse class="e" cx="2.994" cy="2.996" rx="2.994" ry="2.996" transform="translate(3.474 5.368)"/><g transform="translate(12.123 5.368)"><rect class="e" width="31.778" height="1.757" rx="0.879"/><rect class="e" width="23.142" height="1.757" rx="0.879" transform="translate(0 4.57)"/></g></g><g transform="translate(12.044 34.362)"><rect class="d" width="50.055" height="17.311" rx="2"/><ellipse class="e" cx="2.994" cy="2.996" rx="2.994" ry="2.996" transform="translate(3.474 5.368)"/><g transform="translate(12.123 5.368)"><rect class="e" width="31.778" height="1.757" rx="0.879"/><rect class="e" width="23.142" height="1.757" rx="0.879" transform="translate(0 4.57)"/></g></g><g transform="translate(73.845 34.362)"><rect class="d" width="50.055" height="17.311" rx="2"/><ellipse class="e" cx="2.994" cy="2.996" rx="2.994" ry="2.996" transform="translate(3.474 5.368)"/><g transform="translate(12.123 5.368)"><rect class="e" width="31.778" height="1.757" rx="0.879"/><rect class="e" width="23.142" height="1.757" rx="0.879" transform="translate(0 4.57)"/></g></g><g transform="translate(136.75 34.362)"><rect class="d" width="50.055" height="17.311" rx="2" transform="translate(0)"/><ellipse class="e" cx="2.994" cy="2.996" rx="2.994" ry="2.996" transform="translate(3.474 5.368)"/><g transform="translate(12.123 5.368)"><rect class="e" width="31.778" height="1.757" rx="0.879"/><rect class="e" width="23.142" height="1.757" rx="0.879" transform="translate(0 4.57)"/></g></g><g transform="translate(12.044 55.33)"><rect class="d" width="50.055" height="17.311" rx="2"/><ellipse class="e" cx="2.994" cy="2.996" rx="2.994" ry="2.996" transform="translate(3.474 5.368)"/><g transform="translate(12.123 5.368)"><rect class="e" width="31.778" height="1.757" rx="0.879"/><rect class="e" width="23.142" height="1.757" rx="0.879" transform="translate(0 4.57)"/></g></g><g transform="translate(136.75 55.33)"><rect class="d" width="50.055" height="17.311" rx="2" transform="translate(0)"/><ellipse class="e" cx="2.994" cy="2.996" rx="2.994" ry="2.996" transform="translate(3.474 5.368)"/><g transform="translate(12.123 5.368)"><rect class="e" width="31.778" height="1.757" rx="0.879"/><rect class="e" width="23.142" height="1.757" rx="0.879" transform="translate(0 4.57)"/></g></g><g transform="translate(5.095 76.102)"><rect class="e" width="63.953" height="22.118" rx="2"/><ellipse class="b" cx="3.825" cy="3.828" rx="3.825" ry="3.828" transform="translate(4.439 6.858)"/><g transform="translate(15.489 6.858)"><rect class="b" width="40.602" height="2.245" rx="1.123"/><rect class="b" width="29.567" height="2.245" rx="1.123" transform="translate(0 5.838)"/></g></g><g transform="translate(168.85 66.112)"><rect class="f" width="5" height="7" transform="translate(24.458 1.052)"/><rect class="f" width="5.997" height="3.998" rx="1.999" transform="translate(4.524 13.949) rotate(-43)"/><rect class="g" width="15" height="5" rx="2" transform="translate(19.458 0.052)"/><g transform="translate(0 6.622)"><circle class="g" cx="26.5" cy="26.5" r="26.5" transform="translate(0.458 0.43)"/><ellipse class="h" cx="24.28" cy="24.28" rx="24.28" ry="24.28" transform="translate(2.705 2.822)"/><ellipse class="e" cx="24.534" cy="24.534" rx="24.534" ry="24.534" transform="translate(2.452 2.568)"/><g transform="translate(6.136 6.252)"><g transform="translate(20.224 0)"><rect class="i" width="1.177" height="3.971" rx="0.588"/><rect class="i" width="1.177" height="3.971" rx="0.588" transform="translate(0.074 37.728)"/></g><g transform="translate(0 20.224)"><rect class="i" width="1.177" height="3.971" rx="0.588" transform="translate(41.699 0) rotate(90)"/><rect class="i" width="1.177" height="3.971" rx="0.588" transform="translate(3.971 0.074) rotate(90)"/></g><g transform="translate(6.138 6.103)"><path class="i" d="M.588,0h0a.589.589,0,0,1,.589.589V2.012A.588.588,0,0,1,.589,2.6h0A.589.589,0,0,1,0,2.012V.588A.588.588,0,0,1,.588,0Z" transform="matrix(0.707, 0.707, -0.707, 0.707, 28.574, 0)"/><path class="i" d="M.588,0h0a.589.589,0,0,1,.589.589v1.76a.588.588,0,0,1-.588.588h0A.588.588,0,0,1,0,2.348V.588A.588.588,0,0,1,.588,0Z" transform="matrix(0.707, 0.707, -0.707, 0.707, 2.077, 26.601)"/></g><g transform="translate(6.086 6.155)"><path class="i" d="M.588,0h0a.588.588,0,0,1,.588.588V2.012A.588.588,0,0,1,.588,2.6h0A.588.588,0,0,1,0,2.012V.588A.588.588,0,0,1,.588,0Z" transform="matrix(-0.707, 0.707, -0.707, -0.707, 29.509, 28.574)"/><path class="i" d="M.588,0h0a.589.589,0,0,1,.589.589v1.76a.588.588,0,0,1-.588.588h0A.588.588,0,0,1,0,2.348V.588A.588.588,0,0,1,.588,0Z" transform="matrix(-0.707, 0.707, -0.707, -0.707, 2.908, 2.077)"/></g></g><g transform="translate(26.327 12.497)"><rect class="j" width="1.299" height="14.942" rx="0.65" transform="translate(0 0)"/><rect class="j" width="1.299" height="10.719" rx="0.65" transform="translate(10.719 14.779) rotate(90)"/></g><line class="k" x1="9.745" y2="8.77" transform="translate(27.059 18.263)"/><ellipse class="f" cx="2.355" cy="2.355" rx="2.355" ry="2.355" transform="translate(24.63 24.747)"/></g></g></g></g></svg>