<svg xmlns="http://www.w3.org/2000/svg" width="293" height="150.885" viewBox="0 0 293 150.885"><defs><style>.a{fill:#f1f1f1;}.b{fill:#b7d4ff;opacity:0.7;}.c{fill:#4ab4fb;}.d{fill:#01569b;}.e{fill:#c4cfe0;}.f{fill:#2b7ef9;}.g{fill:#fff;}.h{fill:#414551;}.i{fill:#456ce2;}.j{fill:#7f8af6;}.k{fill:#4b57bd;}.l{fill:#ff9569;}.m{fill:#41424c;}.n{fill:#2cc4bf;}.o{fill:#2fada9;}.p{fill:#3dd0c0;}</style></defs><g transform="translate(-633.387 -483.41)"><g transform="translate(633.012 483.41)"><ellipse class="a" cx="146.5" cy="4.5" rx="146.5" ry="4.5" transform="translate(0.375 141.885)"/><g transform="translate(49.909 0)"><g transform="translate(0 0)"><rect class="b" width="64.66" height="18.826" rx="1.5" transform="translate(67.575 55.396)"/><g transform="translate(85.26 93.701)"><path class="c" d="M77.965,55.036l2.991-4.98-7.244-7.241L68.73,45.805l-2.815-1.161L64.5,39H61.692v9.415A16.145,16.145,0,1,1,43.231,64.384a15.812,15.812,0,0,1,.2-2.308H34V69.5l5.658,1.412L40.8,73.728l-2.991,4.985,7.244,7.241,4.982-2.991,2.815,1.161,1.41,5.645H64.5l1.41-5.645,2.815-1.161,4.982,2.991,7.244-7.241-2.991-4.985,1.073-2.635,1.232-.466,4.5-1.122V59.263L79.11,57.851Z" transform="translate(-34 -39)"/><path class="c" d="M51.538,63.329a6.931,6.931,0,0,1-6.923-6.923A6.845,6.845,0,0,1,45.04,54.1H40.265A11.362,11.362,0,0,0,40,56.406,11.538,11.538,0,1,0,53.846,45.1v4.807a6.906,6.906,0,0,1-2.308,13.421Z" transform="translate(-26.154 -31.022)"/><ellipse class="c" cx="2.6" cy="2.604" rx="2.6" ry="2.604" transform="translate(22.874 23.296)"/></g><g transform="translate(0 47.316)"><path class="d" d="M28,51h4.615v4.615H28Z" transform="translate(27.582 17.89)"/><path class="d" d="M24,51h4.615v4.615H24Z" transform="translate(22.352 17.89)"/><path class="d" d="M10.019,82.971V42.4a6.852,6.852,0,0,1,6.923-6.761L40.217,35.3V45.705L66.146,33.044,40.217,20.382V30.79l-23.275.344A11.419,11.419,0,0,0,5.4,42.4V82.971A11.419,11.419,0,0,0,16.942,94.24l30.2-.344V89.388l-30.2.344A6.852,6.852,0,0,1,10.019,82.971Z" transform="translate(-5.403 -20.382)"/></g><g transform="translate(96.767 13.4)"><path class="d" d="M41,7h4.615v4.615H41Z" transform="translate(-41 -7)"/><path class="d" d="M68.077,13.923v6.923H58.846L70.384,36.231,81.922,20.846H72.692V13.923A6.931,6.931,0,0,0,65.769,7H45v4.615H65.769A2.31,2.31,0,0,1,68.077,13.923Z" transform="translate(-35.769 -7)"/></g><g transform="translate(43.332 97.617)"><rect class="e" width="64.66" height="14.372" rx="1.5"/><ellipse class="f" cx="3.867" cy="3.867" rx="3.867" ry="3.867" transform="translate(4.488 3.371)"/><g transform="translate(15.66 4.56)"><rect class="g" width="41.051" height="1.459" rx="0.73"/><rect class="g" width="29.894" height="1.459" rx="0.73" transform="translate(0 3.794)"/></g></g><g transform="translate(21.134 16.697)"><rect class="e" width="64.66" height="14.372" rx="1.5" transform="translate(0 0)"/><ellipse class="f" cx="3.867" cy="3.867" rx="3.867" ry="3.867" transform="translate(4.488 3.371)"/><g transform="translate(15.66 4.56)"><rect class="g" width="41.051" height="1.459" rx="0.73"/><rect class="g" width="29.894" height="1.459" rx="0.73" transform="translate(0 3.794)"/></g></g><g transform="translate(43.332 80.921)"><rect class="e" width="64.66" height="14.372" rx="1.5" transform="translate(0 0)"/><ellipse class="f" cx="3.867" cy="3.867" rx="3.867" ry="3.867" transform="translate(4.488 3.371)"/><g transform="translate(15.66 4.56)"><rect class="g" width="41.051" height="1.459" rx="0.73"/><rect class="g" width="29.894" height="1.459" rx="0.73" transform="translate(0 3.794)"/></g></g><g transform="translate(21.134 0)"><rect class="e" width="64.66" height="14.372" rx="1.5"/><ellipse class="f" cx="3.867" cy="3.867" rx="3.867" ry="3.867" transform="translate(4.488 3.371)"/><g transform="translate(15.66 4.56)"><rect class="g" width="41.051" height="1.459" rx="0.73"/><rect class="g" width="29.894" height="1.459" rx="0.73" transform="translate(0 3.794)"/></g></g><g transform="translate(73.684 50.816)"><rect class="f" width="64.66" height="18.826" rx="1.5" transform="translate(0 0)"/><ellipse class="g" cx="3.867" cy="3.867" rx="3.867" ry="3.867" transform="translate(4.488 5.62)"/><g transform="translate(15.66 6.317)"><rect class="g" width="41.051" height="1.459" rx="0.73" transform="translate(0 0)"/><rect class="g" width="29.894" height="1.459" rx="0.73" transform="translate(0 4.969)"/></g></g></g><g transform="translate(139.455 48.864)"><path class="h" d="M465.7,724.5c.372.149-.421,3.8-.51,4.137-.268,1-.648,2.191-1.7,2.6-1.5.586-3.174.177-4.73.174s-3.094,0-4.64.028c0,0-4.239,0,4.122-2.908a3.066,3.066,0,0,0,2-2.323l.688-3.619Z" transform="translate(-453.041 -634.986)"/><path class="h" d="M6.678,0s8.177,6.95,3.816,7.632A24.151,24.151,0,0,1,.136,10.766s-1.226-.577,3.68-3.7S2.284,1.879,2.284,1.879Z" transform="translate(41.647 85.475) rotate(-8)"/><path class="i" d="M388.89,649.214l.691,7.22.654,6.832.282,2.935.826,8.619c.666,4.518,5.4,9.685,9.587,13.455a77.261,77.261,0,0,0,6.632,5.352l5.315-3.953L403.2,679.166a10.468,10.468,0,0,1-2.392-4.273c-1.872-6.669-1.517-14.694-.9-20.181.413-3.741.949-6.3.981-6.46-1.2,1.374-7.825,1.19-10.683,1.042C389.4,649.25,388.89,649.214,388.89,649.214Z" transform="translate(-361.787 -605.07)"/><path class="j" d="M404.8,678.289l.826,8.619c.666,4.517,5.4,9.685,9.587,13.455.47.233.961.466,1.468.687,0,0,4.137-1.872-4.653-9.093A8.232,8.232,0,0,1,409.3,687.7C408.485,684.606,406.9,679.68,404.8,678.289Z" transform="translate(-376.068 -617.158)"/><path class="k" d="M408.965,656.434l.416,4.345,10.225-8.626c.413-3.741.627-3.745.659-3.9-1.2,1.374-7.825,1.19-10.683,1.042Z" transform="translate(-381.172 -605.07)"/><path class="i" d="M418.167,693.212s1.5,3,6.271,1.905l.27-1.636c4.362-22.213,20.172-44.273,20.172-44.273a59.746,59.746,0,0,1-7.424.11,21.158,21.158,0,0,1-5.4-.871c-.188-.065-.364-.135-.535-.208,0,0-.029.041-.078.122-1.022,1.566-11.513,18.2-13.161,42.753C418.24,691.806,418.2,692.5,418.167,693.212Z" transform="translate(-411.286 -605.065)"/><path class="j" d="M430.483,691.2c.662.413,5.522-4.991,10.292-22.98,4.615-17.406,8.278-17.787,8.879-18.817.045-.073.065-.11.065-.11l-5.462-.761-.613-.086C442.621,650.01,432.13,666.642,430.483,691.2Z" transform="translate(-423.483 -605.147)"/><path class="l" d="M419.868,601.232l-.952,3,7.547,1.415s-2.367-3.59-1.823-4.416c.167-.258.286-.437.367-.56l.176-.266s5.18-9.939-5.315-7.351a.241.241,0,0,0-.02.024C419.5,593.46,415.015,598.611,419.868,601.232Z" transform="translate(-392.545 -582.683)"/><path class="m" d="M417.727,596.383h1.84c2.453,1.071-.253,2.834-.253,2.834l.376.924c2.314-.556,2.723.687,2.723.687l.376-.155.176-.266s5.18-9.939-5.315-7.351a.244.244,0,0,0-.02.024l.1.082C419.211,593.419,417.727,596.383,417.727,596.383Z" transform="translate(-390.326 -582.683)"/><path class="l" d="M379.966,635.183c.044-.235-3.94.182-4.324.28a6.357,6.357,0,0,0-3.7,1.929c-.462.573-1.336,2.985.446,2.527.455-.118.8-.871,1.169-1.165.223-.178.788-.386.935-.611,0,0-1.022,1.571.446.857a16.974,16.974,0,0,1,2.927-1.079Z" transform="translate(-359.606 -597.896)"/><g transform="translate(17.337 21.694)"><path class="n" d="M399.169,615.811l-.5,9.424s.956,2.183-4.089,4.5a24.868,24.868,0,0,1-8.508,1.762,40.831,40.831,0,0,1-4.575.013c-2.588-1.635,0-3.546,0-3.546l10.9-3c3.135-8.86,6.95-12.674,6.95-12.674Z" transform="translate(-380.349 -612.291)"/><path class="o" d="M402.527,627.606s.956,2.183-4.089,4.5a24.873,24.873,0,0,1-8.508,1.762v0c1.337-2.923,3.107-.3,7.76-2.755s3.067-4.334,3.61-7.912,1.725-5.013,1.725-5.013Z" transform="translate(-384.205 -614.662)"/></g><path class="p" d="M411.39,615.772c-3.407,19.488-2.236,16.772-2.236,16.772,14.457,3.714,19,.4,19,.4s.508-18.9-1.908-21.941-1.5-2.044-13.356-1.908Z" transform="translate(-389.057 -589.362)"/><path class="o" d="M433.951,620.613,431.934,632c1.635-.273,2.6-4.1,2.6-4.1,4.5-3.543,1.635-7.5,1.635-7.5Z" transform="translate(-411.696 -593.866)"/><path class="l" d="M467.518,582.4a3.529,3.529,0,0,1-.22-2.281c.106-.288.421-.652.418-.966s.072-.4-.44-.286a2.324,2.324,0,0,0-.957.85c-.5-.625-.877-1.077-1.34-1.733-.329-.465-.716-.9-1.107-1.414-.192-.25-.988-1.04-.988-.224a4.237,4.237,0,0,0,1.236,2.244c-.33-.147-1.12-.2-1.15.161a1.705,1.705,0,0,0,.6,1.139c-.144-.151-.448-.043-.605.027a.47.47,0,0,0-.33.6,4.374,4.374,0,0,0,.958,1.6c.208.249.428.488.652.724a5.742,5.742,0,0,0,.619.65Z" transform="translate(-460.681 -575.986)"/><path class="p" d="M430.627,586.552a15.786,15.786,0,0,0,.258,1.8.144.144,0,0,1,0,.02,58.1,58.1,0,0,0,3.48,10.266,9.145,9.145,0,0,0,4.457,4.681c.768.364,1.549.7,2.33.994a48.782,48.782,0,0,0,10.732,2.686l1.5-7.363c-3.965.192-9.665-1.19-12.478-1.959a3.684,3.684,0,0,1-2.391-2.065l-4.346-9.874A5.522,5.522,0,0,0,430.627,586.552Z" transform="translate(-427.238 -579.904)"/><path class="o" d="M451.041,587.132c.012.1.106.765.253,1.783a.138.138,0,0,1,0,.02,58.093,58.093,0,0,0,3.479,10.266,9.146,9.146,0,0,0,4.456,4.681c.769.364,1.549.7,2.33.994a3.524,3.524,0,0,0-1.771-3.479C457.084,599.488,451.25,587.558,451.041,587.132Z" transform="translate(-447.647 -580.472)"/></g></g></g></g></svg>