<svg xmlns="http://www.w3.org/2000/svg" width="246.38" height="186.445" viewBox="0 0 246.38 186.445"><defs><style>.a{fill:#f7f7f8;opacity:0.76;}.b{fill:#f1f1f1;}.c{fill:#01569b;}.d{fill:#fff;}.e{fill:#414551;}.f{fill:#005ca6;}.g{fill:#146cb2;}.h{fill:#ff9569;}.i{fill:#08508a;}.j{fill:#ff7070;}.k{fill:#fe5454;}.l{fill:#41424c;}.m{fill:#bbe4ff;}.m,.n{opacity:0.45;isolation:isolate;}.n{fill:#a2d7fb;}.o{fill:#2b7ef9;}.p{fill:#c2dbff;}</style></defs><g transform="translate(-469 -35.555)"><path class="a" d="M6440.06,18874.605c-37.032-13.547-55.547-27.09-42.629-46.322s23.659-17.439,44.65-37,15.348-43.148,44.414-44.463,55.615,12.414,74.13,37.324-21.962,31.467-5.168,65.553S6477.089,18888.156,6440.06,18874.605Z" transform="matrix(0.951, 0.309, -0.309, 0.951, 252.773, -19769.299)"/><ellipse class="b" cx="121" cy="4" rx="121" ry="4" transform="translate(469 214)"/><g transform="translate(174 -375)"><g transform="translate(471.017 449.401)"><path class="c" d="M199.44,506.383l3.608-7.522a34.9,34.9,0,1,1,4.512,7.522Z" transform="translate(-199.44 -450.029)"/><path class="d" d="M9.656,20.623l-.469-1.962c-1.22-5.1,5.413-7.325,4.386-11.626-.459-1.917-2.358-3.242-5.07-2.594C5.185,5.235,4.169,7.6,3.424,8.621A.783.783,0,0,1,2.3,8.889L.4,7.762A.9.9,0,0,1,.112,6.547,11.588,11.588,0,0,1,8.009.308c4.862-1.162,9.34,1.029,10.4,5.47,1.409,5.89-5.58,8.7-4.787,12.019l.414,1.73a.92.92,0,0,1-.757,1.169l-2.526.6A.912.912,0,0,1,9.656,20.623Zm3.916,7.072a3.341,3.341,0,1,1-2.445,4.044A3.344,3.344,0,0,1,13.572,27.695Z" transform="matrix(0.978, 0.208, -0.208, 0.978, 27.174, 15.921)"/></g><g transform="translate(443.375 507.157)"><path class="e" d="M265.663,584.143s6,8.879,1.624,8.365a24.11,24.11,0,0,1-10.8.236s-1.025-.884,4.53-2.567-.168-5.314-.168-5.314Z" transform="translate(-240.16 -508.315)"/><path class="e" d="M285.8,585.939s4.813,9.574.538,8.5a24.112,24.112,0,0,1-10.744-1.151s-.9-1.008,4.822-1.965.515-5.291.515-5.291Z" transform="translate(-275.537 -508.593)"/><path class="f" d="M257.538,548.153a99.341,99.341,0,0,0,3.53,25.233q.511,1.888,1.13,3.812c.212.656.43,1.318.662,1.987,0,0,2.488,2.237,6.521-.526l-.346-1.617c-4.094-22.232-.06-43.252-.06-43.252s-.728-3.623-4.284-2.441a21.292,21.292,0,0,1-5.334,1.163c-.2.012-.388.012-.573.006,0,0-.012.048-.03.141A77.669,77.669,0,0,0,257.538,548.153Z" transform="translate(-241.592 -500.087)"/><path class="g" d="M265.43,551.283a99.337,99.337,0,0,0,3.53,25.232,10.638,10.638,0,0,0,.564-1.605c1.421-5,1.421-9.106,0-10.967a14.516,14.516,0,0,1-2.983-7.87C266.54,553.768,266.492,551.3,265.43,551.283Z" transform="translate(-249.484 -503.217)"/><path class="h" d="M266.36,503.119l-.95,3,7.536,1.412s-2.364-3.585-1.822-4.409c.168-.257.283-.437.368-.558l.175-.265s5.172-9.925-5.307-7.342l-.02.025C266,495.358,261.515,500.5,266.36,503.119Z" transform="translate(-250.736 -494.411)"/><path class="i" d="M268.722,538.439,258,549.26V531.112h10.118l1.3,2.679Z" transform="translate(-242.041 -500.087)"/><path class="f" d="M264.859,579.7s1.859,1.081,6.341-.869a7.17,7.17,0,0,0-.324-1.463,9.669,9.669,0,0,1-.221-2.485c.045-1.326.1-2.649.206-3.973.206-2.649.54-5.287.971-7.906a126.737,126.737,0,0,1,3.41-14.8q1.731-5.954,3.931-11.758c.853-2.259,1.751-4.5,2.726-6.706.123-.278.247-.556.375-.831a59.594,59.594,0,0,1-7.266,1.476,21.116,21.116,0,0,1-5.457.141c-.2-.03-.382-.066-.565-.106,0,0-.021.045-.053.134-.716,1.725-7.946,19.978-5.039,44.383C263.977,575.622,264.761,579,264.859,579.7Z" transform="translate(-259.29 -499.745)"/><path class="g" d="M272.441,575.185c.727.282,4.5-5.916,5.867-24.449,1.322-17.93,4.847-18.98,5.247-20.1l.044-.12-5.5.261-.618.029C276.764,532.527,269.534,550.782,272.441,575.185Z" transform="translate(-267.837 -499.994)"/><path class="j" d="M260.431,512.763c-3.4,19.46-2.234,16.748-2.234,16.748,14.438,3.708,18.971.4,18.971.4L275.26,508s-1.5-2.041-13.335-1.906Z" transform="translate(-249.788 -496.205)"/><path class="k" d="M276.152,514.3l-1.815,11.505c1.633-.271,2.363-4.152,2.363-4.152,4.491-3.538,1.4-6.043,1.4-6.043Z" transform="translate(-265.556 -497.48)"/><path class="j" d="M249.411,508.029s2.965.369,9.378,10.315a.918.918,0,0,1-.009.987c-1.343,2.106-6.609,10.343-7.142,10.875l-.183-2.687,2.322-7.7-3.727-5.009Z" transform="translate(-224.29 -496.506)"/><path class="l" d="M258.6,494.933s-2.53,1.934-.027,4.544c1.428,1.489-2.31,2.809-1.419,4.177.336.515,1.9,2.877,1.694,3.843-.957,4.5-3.529,4.137-.278,6.45s1.459-.075,5.338,1.939,4.625-4.326,6.116-2.163,1.716-3.207,0-4.7-3.655-2.91-3.8-5.37-.279-3.506-.475-5.072S265.891,492.925,258.6,494.933Z" transform="translate(-242.973 -494.39)"/><path class="h" d="M268.643,496.809a16.532,16.532,0,0,1,3.412-.358c.926.133-2.515,1.412-1.941,1.588s.471.294.03.427a4.309,4.309,0,0,1-1.707-.427Z" transform="translate(-253.649 -494.706)"/><path class="j" d="M283.693,504.645l-5.486-2.7,8.757-3.56v-1.646s-11.907,1.167-14.628,3.8S283.152,512.4,283.152,512.4Z" transform="translate(-271.387 -494.755)"/></g><path class="c" d="M408.2,268.823l-3.368,50.394c-.539,3.859-4.178,6.753-8.49,6.753H361.667L377.95,265l25.68-.852A4.332,4.332,0,0,1,408.2,268.823Z" transform="translate(23.928 266.544)"/><rect class="m" width="95.11" height="72.533" rx="7.022" transform="translate(311.142 519.387) rotate(-10)"/><rect class="n" width="98.11" height="72.533" rx="7.022" transform="matrix(0.998, -0.07, 0.07, 0.998, 320.989, 501.892)"/><path class="o" d="M251,227.917A6.917,6.917,0,0,1,257.917,221h27.844a6.917,6.917,0,0,1,5.724,3.033l5.618,8.28a6.917,6.917,0,0,0,5.724,3.033h39.116a6.917,6.917,0,0,1,6.917,6.917V297.6a6.917,6.917,0,0,1-6.917,6.917H257.917A6.917,6.917,0,0,1,251,297.6Z" transform="translate(78 288)"/><path class="p" d="M705.672,597.475l-14.6,6.567,4.579,3.3L687,619.357l-15.144-12.865a2.361,2.361,0,0,0-3.415.382l-17.529,23.334a2.361,2.361,0,0,0,3.775,2.836l16.023-21.33,15.183,12.9a2.363,2.363,0,0,0,3.444-.418L699.484,610.1l4.579,3.3Z" transform="matrix(1, 0.017, -0.017, 1, -289.27, -71.137)"/></g></g></svg>