<svg xmlns="http://www.w3.org/2000/svg" width="180" height="160" viewBox="0 0 198 160"><defs><style>.a{fill:#7a869a;font-size:20px;font-family:AvenirLTStd-Medium, Avenir LT Std;font-weight:500;}.b{fill:#0b1b31;opacity:0.03;}.c{fill:#01569b;}.d{fill:#fefefe;opacity:0.94;}.e,.f{fill:#2b7ef9;}.e{stroke:rgba(0,0,0,0);}</style></defs><g transform="translate(-367 -332.703)"><g transform="translate(-195.999 -61.296)"><path class="b" d="M6444.816,18885.279c-40.8-14.709-61.2-29.412-46.969-50.289s28.584-20.99,51.713-42.227,8.777-41.27,40.8-42.691,66.9,9.953,87.3,37-24.2,34.164-5.692,71.172S6485.617,18899.99,6444.816,18885.279Z" transform="translate(-5826.328 -18355.953)"/><g transform="translate(617.111 403.85)"><path class="c" d="M334.4,246.41s-13.3-33.771-16.885-54.238c0,0-4.605-10.745,8.443-16.118s19.188,0,19.188,0,3.811,7.574,5.357,6.019,56.3-7.043,56.3-7.043l5.628,30.445-17.141,29.933L351.8,245.131,339.114,248a4.744,4.744,0,0,1-4.442-1.314Z" transform="translate(-316.729 -116.173)"/><rect class="d" width="75.643" height="88.008" rx="8.199" transform="translate(0.017 19.384) rotate(-14.848)"/><path class="e" d="M357.768,177.376c13.276-3.63,26.7-6.818,40.631-7.832,8.59-.626,24.922-3.806,27.678,7.832,2.3,9.722,10.233,33.259,0,49.889,0,0-6.14,7.163-13.815,9.21s-73.17,13.048-73.17,13.048-3.838-.256-5.117-3.07c0,0,1.535,2.558,5.373-2.814S346,192.983,346,192.983,345.975,180.6,357.768,177.376Z" transform="translate(-316.327 -116.29)"/><path class="f" d="M363.444,154.682l-.468-1.96c-1.218-5.091,5.407-7.317,4.381-11.613-.458-1.915-2.355-3.238-5.064-2.591-3.314.793-4.329,3.158-5.073,4.175a.782.782,0,0,1-1.12.268l-1.9-1.126a.9.9,0,0,1-.291-1.214,11.575,11.575,0,0,1,7.889-6.232c4.857-1.161,9.33,1.028,10.392,5.464,1.407,5.884-5.574,8.689-4.781,12l.413,1.728a.919.919,0,0,1-.757,1.168l-2.523.6A.911.911,0,0,1,363.444,154.682Zm3.911,7.063a3.337,3.337,0,1,1-2.442,4.04A3.34,3.34,0,0,1,367.355,161.745Z" transform="translate(-319.798 -110.936)"/></g></g></g></svg>
