<svg xmlns="http://www.w3.org/2000/svg" width="143.317" height="116.972" viewBox="0 0 143.317 116.972"><defs><style>.a{fill:#0b1b31;opacity:0.03;}.b{fill:#d5e6ff;}.c{fill:#d5e7ff;}.d{fill:#2b7ef9;}.e{fill:#343839;}.f{fill:#66a3fc;}.g{fill:#bed8fe;}</style></defs><g transform="translate(-961.001 -486.703)"><path class="a" d="M6432.207,18852.139c-30.81-11.107-46.214-22.209-35.466-37.971s21.584-15.85,39.048-31.887,6.628-31.164,30.809-32.236,50.512,7.516,65.918,27.938-18.272,25.8-4.3,53.742S6463.016,18863.248,6432.207,18852.139Z" transform="translate(-5432.328 -18263.252)"/><g transform="translate(985.164 491.458)"><g transform="translate(0 6.74)"><g transform="translate(0 0.056)"><path class="b" d="M686,75.926H591.177V181.348l41.055-2.382a114.506,114.506,0,0,0,24.565-5.345c11.9-4.223,22.948-11.514,23.237-11.961C687.07,150.768,686,75.926,686,75.926Z" transform="translate(-591.177 -75.926)"/><path class="c" d="M692.843,189.158s-14.237,5.24-24.242-.953c0,0,1.06,15.083-24.255,18.258,0,0,22.306-1.812,32.441-5.874C689.065,195.667,692.843,189.158,692.843,189.158Z" transform="translate(-603.972 -103.423)"/></g><rect class="d" width="94.744" height="16.978" transform="translate(0.133 0)"/></g><path class="d" d="M9.426,20.132l-.458-1.916c-1.191-4.975,5.285-7.151,4.281-11.349C12.8,5,10.948,3.7,8.3,4.335,5.061,5.11,4.07,7.422,3.343,8.415a.764.764,0,0,1-1.095.262L.393,7.577A.876.876,0,0,1,.109,6.391,11.312,11.312,0,0,1,7.819.3c4.747-1.134,9.118,1,10.156,5.34,1.375,5.75-5.447,8.492-4.673,11.732l.4,1.689a.9.9,0,0,1-.739,1.141l-2.466.59A.89.89,0,0,1,9.426,20.132Zm3.822,6.9a3.261,3.261,0,1,1-2.386,3.948A3.265,3.265,0,0,1,13.249,27.035Z" transform="matrix(0.966, 0.259, -0.259, 0.966, 41.472, 41.017)"/><g transform="translate(42.645 0)"><path class="e" d="M496.478,74.942s.056,3.269,1.181,4.617c0,0,.825.2.3-2.807S496.169,74.291,496.478,74.942Z" transform="translate(-491.641 -62.654)"/><path class="f" d="M498.163,61.656c0-1.559-1.807-2.822-4.038-2.822s-4.037,1.263-4.037,2.822,1.807,2.821,4.037,2.821S498.163,63.214,498.163,61.656Z" transform="translate(-490.088 -58.834)"/><path class="f" d="M498.7,68.215c-.431-.486-1.349-.64-1.615-1.838a2.838,2.838,0,0,1,.433-2.178l-.018,0a2.964,2.964,0,0,0,.649-2.122c-.176-1.4-8.058.18-8.058.18a4.317,4.317,0,0,0,1.682,3.2l-.021.005a1.518,1.518,0,0,1,.347,2.187c-.12.142-.248.293-.377.458l-.042.051a2.3,2.3,0,0,0-.194.285,3.313,3.313,0,0,0-.384.827c-.008.02-.011.032-.011.032h0c-.011.031-.017.061-.026.092a2.167,2.167,0,0,0-.094.627c0,1.658,1.923,3,4.3,3s4.3-1.343,4.3-3A2.469,2.469,0,0,0,498.7,68.215Z" transform="translate(-490.088 -59.487)"/><path class="g" d="M497.933,61.259c0-1.244-1.669-2.252-3.727-2.252s-3.727,1.007-3.727,2.252,1.67,2.252,3.727,2.252S497.933,62.5,497.933,61.259Z" transform="translate(-490.184 -58.876)"/><path class="f" d="M500.163,71.833c0-1.863-2.16-3.372-4.826-3.372s-4.826,1.509-4.826,3.372,2.16,3.372,4.826,3.372S500.163,73.7,500.163,71.833Z" transform="translate(-490.191 -61.192)"/><path class="g" d="M491.859,70.168a2.257,2.257,0,0,0-.289,2c.458.891,2.528,1.709,4.333,1.589S500.309,72.407,500,70.6a2.756,2.756,0,0,0-2.19-2.431c-.794-.265-.915-2.142-.506-2.985a2.772,2.772,0,0,0,.385-1.131s-1.83,1.685-5.392.6a1.463,1.463,0,0,0,.023,1.036c.241.409,2.914.505,4.309-.024,0,0-.433,2.07.771,2.647a1.47,1.47,0,0,1-.024,2.648C495.242,72,492.461,71.468,491.859,70.168Z" transform="translate(-490.414 -60.112)"/></g></g></g></svg>