<svg xmlns="http://www.w3.org/2000/svg" width="224.485" height="47.844" viewBox="0 0 224.485 47.844">
  <g id="Group_5619" data-name="Group 5619" transform="translate(-166.797 -1326.016)">
    <g id="Group_2636" data-name="Group 2636" transform="translate(216.172 1338.145)">
      <path id="Path_10522" data-name="Path 10522" d="M15.29-10.346H6.114L4.363-6.111H-.324L8.485-25.876H13L21.84-6.111h-4.8Zm-1.44-3.473-3.134-7.567L7.582-13.819ZM28.56-5.885a14.756,14.756,0,0,1-3.7-.466,9.664,9.664,0,0,1-2.88-1.172l1.468-3.162a9.241,9.241,0,0,0,2.456,1.059,10.3,10.3,0,0,0,2.823.409q2.8,0,2.8-1.384a.979.979,0,0,0-.762-.932,11.292,11.292,0,0,0-2.343-.48,22.608,22.608,0,0,1-3.078-.649,4.775,4.775,0,0,1-2.1-1.3,3.693,3.693,0,0,1-.889-2.654,4.158,4.158,0,0,1,.833-2.555,5.361,5.361,0,0,1,2.428-1.736,10.371,10.371,0,0,1,3.769-.621,14.794,14.794,0,0,1,3.2.353,8.958,8.958,0,0,1,2.64.974l-1.468,3.134A8.765,8.765,0,0,0,29.379-18.2a4.453,4.453,0,0,0-2.118.4,1.162,1.162,0,0,0-.706,1.016,1.009,1.009,0,0,0,.762.988,13.5,13.5,0,0,0,2.428.536A25.992,25.992,0,0,1,32.8-14.6a4.581,4.581,0,0,1,2.061,1.285,3.645,3.645,0,0,1,.875,2.6A4.011,4.011,0,0,1,34.885-8.2a5.407,5.407,0,0,1-2.471,1.708A11.007,11.007,0,0,1,28.56-5.885Zm14.993,0a14.756,14.756,0,0,1-3.7-.466,9.664,9.664,0,0,1-2.88-1.172l1.468-3.162A9.241,9.241,0,0,0,40.9-9.626a10.3,10.3,0,0,0,2.823.409q2.8,0,2.8-1.384a.979.979,0,0,0-.762-.932,11.292,11.292,0,0,0-2.343-.48,22.608,22.608,0,0,1-3.078-.649,4.775,4.775,0,0,1-2.1-1.3,3.693,3.693,0,0,1-.889-2.654,4.158,4.158,0,0,1,.833-2.555A5.361,5.361,0,0,1,40.6-20.906a10.371,10.371,0,0,1,3.769-.621,14.794,14.794,0,0,1,3.2.353,8.958,8.958,0,0,1,2.64.974l-1.468,3.134A8.765,8.765,0,0,0,44.372-18.2a4.453,4.453,0,0,0-2.118.4,1.162,1.162,0,0,0-.706,1.016,1.009,1.009,0,0,0,.762.988,13.5,13.5,0,0,0,2.428.536,25.992,25.992,0,0,1,3.049.664,4.581,4.581,0,0,1,2.061,1.285,3.645,3.645,0,0,1,.875,2.6A4.011,4.011,0,0,1,49.878-8.2a5.407,5.407,0,0,1-2.471,1.708A11.007,11.007,0,0,1,43.553-5.885ZM53.435-21.3h4.4v15.19h-4.4Zm2.2-2.118a2.794,2.794,0,0,1-1.976-.706,2.289,2.289,0,0,1-.762-1.751,2.289,2.289,0,0,1,.762-1.751,2.794,2.794,0,0,1,1.976-.706,2.864,2.864,0,0,1,1.976.678,2.173,2.173,0,0,1,.762,1.694,2.4,2.4,0,0,1-.762,1.821A2.761,2.761,0,0,1,55.638-23.419ZM77.6-21.3V-8.652q0,4.179-2.174,6.212T69.077-.408A15.889,15.889,0,0,1,64.9-.944,9.136,9.136,0,0,1,61.623-2.5l1.751-3.162A7.2,7.2,0,0,0,65.8-4.4a9.662,9.662,0,0,0,2.936.466,4.762,4.762,0,0,0,3.374-1.031A4.107,4.107,0,0,0,73.2-8.088v-.649a6.163,6.163,0,0,1-4.8,1.892,8.061,8.061,0,0,1-3.826-.918,6.993,6.993,0,0,1-2.753-2.583,7.224,7.224,0,0,1-1.016-3.84,7.224,7.224,0,0,1,1.016-3.84,6.993,6.993,0,0,1,2.753-2.583,8.061,8.061,0,0,1,3.826-.918,6.029,6.029,0,0,1,5.026,2.174V-21.3ZM69.275-10.459a4.056,4.056,0,0,0,2.866-1.031,3.5,3.5,0,0,0,1.115-2.7,3.5,3.5,0,0,0-1.115-2.7,4.056,4.056,0,0,0-2.866-1.031,4.108,4.108,0,0,0-2.88,1.031,3.479,3.479,0,0,0-1.129,2.7,3.479,3.479,0,0,0,1.129,2.7A4.108,4.108,0,0,0,69.275-10.459ZM90.931-21.527a6.251,6.251,0,0,1,4.56,1.694,6.718,6.718,0,0,1,1.736,5.026v8.7h-4.4V-14.13a3.96,3.96,0,0,0-.791-2.7,2.9,2.9,0,0,0-2.287-.889,3.505,3.505,0,0,0-2.654,1.031,4.267,4.267,0,0,0-.988,3.063v7.51H81.7V-21.3h4.207v1.779a5.841,5.841,0,0,1,2.174-1.482A7.575,7.575,0,0,1,90.931-21.527ZM102.875-5.885a2.647,2.647,0,0,1-1.948-.791,2.682,2.682,0,0,1-.791-1.976,2.577,2.577,0,0,1,.791-1.962,2.726,2.726,0,0,1,1.948-.748,2.726,2.726,0,0,1,1.948.748,2.577,2.577,0,0,1,.791,1.962,2.682,2.682,0,0,1-.791,1.976A2.647,2.647,0,0,1,102.875-5.885Z" transform="translate(0.324 28.332)" fill="#fff"/>
      <path id="Path_10523" data-name="Path 10523" d="M28.213-22.65,22.067-4.423H20.036L14.7-19.968,9.334-4.423H7.329L1.184-22.65H3.163L8.423-6.975,13.865-22.65h1.8L21.026-6.9,26.364-22.65ZM35.894-4.293a7.118,7.118,0,0,1-3.567-.9,6.551,6.551,0,0,1-2.5-2.487,7.09,7.09,0,0,1-.911-3.593,7.09,7.09,0,0,1,.911-3.593,6.458,6.458,0,0,1,2.5-2.474,7.2,7.2,0,0,1,3.567-.885,7.2,7.2,0,0,1,3.567.885,6.368,6.368,0,0,1,2.487,2.474,7.17,7.17,0,0,1,.9,3.593,7.17,7.17,0,0,1-.9,3.593,6.459,6.459,0,0,1-2.487,2.487A7.119,7.119,0,0,1,35.894-4.293Zm0-1.64A5.168,5.168,0,0,0,38.511-6.6a4.629,4.629,0,0,0,1.81-1.888,5.841,5.841,0,0,0,.651-2.786,5.841,5.841,0,0,0-.651-2.786,4.629,4.629,0,0,0-1.81-1.888,5.168,5.168,0,0,0-2.617-.664,5.168,5.168,0,0,0-2.617.664,4.716,4.716,0,0,0-1.823,1.888,5.748,5.748,0,0,0-.664,2.786,5.748,5.748,0,0,0,.664,2.786A4.716,4.716,0,0,0,33.277-6.6,5.168,5.168,0,0,0,35.894-5.933Zm12.5-9.5a4.48,4.48,0,0,1,1.94-2.083,6.592,6.592,0,0,1,3.19-.7v1.8l-.443-.026a4.374,4.374,0,0,0-3.385,1.328A5.291,5.291,0,0,0,48.471-11.4v6.978H46.622v-13.7h1.771Zm13.54,4.14L58.7-8.329v3.906H56.856V-23.744H58.7v13.1l8.176-7.473h2.291l-5.859,5.6,6.406,8.1H67.454Z" transform="translate(105.391 26.035)" fill="#fff"/>
    </g>
    <g id="Group_2633" data-name="Group 2633" transform="translate(166.797 1326.016)">
      <path id="Path_10511" data-name="Path 10511" d="M241.8,285.629l-9.111,12.459a.425.425,0,0,1-.317.2h0a.416.416,0,0,1-.316-.2l-5.584-7.152-3.3,4.513,8.2,10.458a1.42,1.42,0,0,0,1.109.573h.023a1.435,1.435,0,0,0,1.124-.623l14.748-20.229Z" transform="translate(-208.252 -258.637)" fill="#fff"/>
      <path id="Path_10512" data-name="Path 10512" d="M153.28,122.843a1.334,1.334,0,0,0-2.227.056L132.9,148.43h6.457l12.659-17.8a.386.386,0,0,1,.276-.19c.1-.012.182.058.266.167l9.582,12.41H159.09l-4.13,5.434h17.018L173,148.43h.035Z" transform="translate(-132.899 -122.271)" fill="#fff"/>
      <path id="Path_10513" data-name="Path 10513" d="M244.813,349.928l-.953-1.255,3.3-4.5Z" transform="translate(-225.525 -307.511)" opacity="0.3"/>
      <path id="Path_10514" data-name="Path 10514" d="M155,285.629l-9.111,12.459a.425.425,0,0,1-.317.2h0a.41.41,0,0,1-.307-.184l-5.535-7.1H132.9l11.662,14.9a1.42,1.42,0,0,0,1.109.573h.023a1.435,1.435,0,0,0,1.124-.623l14.748-20.229Z" transform="translate(-132.899 -258.637)" fill="#51beff" opacity="0.9"/>
    </g>
  </g>
</svg>
