<svg xmlns="http://www.w3.org/2000/svg" width="12" height="12" viewBox="0 0 12 12"><defs><style>.a{fill:#3a78f1;}</style></defs><path class="a" d="M10.909,1.091H9.545a.273.273,0,0,0-.273.273V2.727a.545.545,0,1,1-.727-.511.273.273,0,0,0,.181-.257V.273a.273.273,0,1,0-.545,0v.818H4.091a.273.273,0,0,0-.273.273V2.727a.545.545,0,1,1-.727-.511.273.273,0,0,0,.181-.257V.273a.273.273,0,1,0-.545,0v.818H1.091A1.092,1.092,0,0,0,0,2.182v8.727A1.092,1.092,0,0,0,1.091,12h7.8a.546.546,0,0,0,.386-.16L11.84,9.273A.546.546,0,0,0,12,8.887V2.182A1.092,1.092,0,0,0,10.909,1.091Zm0,7.636H9.818A1.092,1.092,0,0,0,8.727,9.818v1.091H1.091V4.364h9.818Z"/><rect class="a" width="1.8" height="1.8" transform="translate(1.8 5.4)"/><rect class="a" width="1.8" height="1.8" transform="translate(4.5 5.4)"/><rect class="a" width="1.8" height="1.8" transform="translate(1.8 8.1)"/></svg>