<svg xmlns="http://www.w3.org/2000/svg" width="158" height="38" viewBox="0 0 158 38">
  <g id="Group_5398" data-name="Group 5398" transform="translate(-1109 -3356)">
    <rect id="Rectangle_1531" data-name="Rectangle 1531" width="158" height="38" rx="2" transform="translate(1109 3356)" fill="#fff"/>
    <g id="Group_5395" data-name="Group 5395" transform="translate(3.134)">
      <g id="search_1_" data-name="search (1)" transform="translate(1115.866 3367)">
        <path id="Path_13457" data-name="Path 13457" d="M3.605,143.706l-.566,2.114-2.07.044a8.148,8.148,0,0,1-.06-7.6h0l1.843.338.807,1.832a4.854,4.854,0,0,0,.046,3.268Z" transform="translate(0 -133.875)" fill="#fbbb00"/>
        <path id="Path_13458" data-name="Path 13458" d="M269.441,208.176a8.131,8.131,0,0,1-2.9,7.863h0l-2.321-.118-.329-2.05a4.847,4.847,0,0,0,2.086-2.475h-4.349v-3.218h7.813Z" transform="translate(-253.315 -201.562)" fill="#518ef8"/>
        <path id="Path_13459" data-name="Path 13459" d="M42.765,314.055h0a8.136,8.136,0,0,1-12.257-2.488l2.636-2.158a4.838,4.838,0,0,0,6.971,2.477Z" transform="translate(-29.54 -299.578)" fill="#28b446"/>
        <path id="Path_13460" data-name="Path 13460" d="M41.04,1.873,38.405,4.03a4.837,4.837,0,0,0-7.131,2.533l-2.65-2.169h0A8.135,8.135,0,0,1,41.04,1.873Z" transform="translate(-27.715)" fill="#f14336"/>
      </g>
      <path id="Trouble_logging_in_" data-name="Trouble logging in?" d="M.4-.96l.948-.816a2.011,2.011,0,0,0,1.8.912,1.935,1.935,0,0,0,1.164-.384A1.212,1.212,0,0,0,4.836-2.28.984.984,0,0,0,4.4-3.12,3.413,3.413,0,0,0,3.36-3.612q-.612-.18-1.23-.42a2.377,2.377,0,0,1-1.05-.816A2.414,2.414,0,0,1,.648-6.336a2.057,2.057,0,0,1,.168-.8,2.63,2.63,0,0,1,.5-.762,2.406,2.406,0,0,1,.906-.588,3.531,3.531,0,0,1,1.308-.228,2.973,2.973,0,0,1,2.448.972l-.936.852a1.545,1.545,0,0,0-.618-.54,1.947,1.947,0,0,0-.894-.2,1.708,1.708,0,0,0-1.26.4,1.248,1.248,0,0,0-.4.894,1.145,1.145,0,0,0,.312.828,1.746,1.746,0,0,0,.774.462q.462.138,1.008.33t1.008.4a1.809,1.809,0,0,1,.774.7A2.189,2.189,0,0,1,6.06-2.412,2.377,2.377,0,0,1,5.214-.5,3.153,3.153,0,0,1,3.108.216,4.119,4.119,0,0,1,1.536-.078,2.547,2.547,0,0,1,.4-.96ZM7.572,0V-5.688h1.08V0ZM7.554-7.17a.762.762,0,0,1-.234-.558.762.762,0,0,1,.234-.558.762.762,0,0,1,.558-.234.762.762,0,0,1,.558.234.762.762,0,0,1,.234.558.762.762,0,0,1-.234.558.762.762,0,0,1-.558.234A.762.762,0,0,1,7.554-7.17Zm8.514,1.482v5.64a2.784,2.784,0,0,1-.858,2.112,3.13,3.13,0,0,1-2.25.816,3.944,3.944,0,0,1-2.784-1.02l.732-.912a2.692,2.692,0,0,0,2.028.924,1.958,1.958,0,0,0,1.578-.564,2.108,2.108,0,0,0,.474-1.4v-.84h-.036a1.952,1.952,0,0,1-.828.75,2.562,2.562,0,0,1-1.14.258,2.805,2.805,0,0,1-2.076-.834,2.8,2.8,0,0,1-.816-2.082,3,3,0,0,1,.8-2.136,2.736,2.736,0,0,1,2.094-.852,2.586,2.586,0,0,1,1.128.258,2.147,2.147,0,0,1,.852.7h.024v-.816Zm-1.59,1.416a1.765,1.765,0,0,0-1.362-.552,1.765,1.765,0,0,0-1.362.552,2.021,2.021,0,0,0-.51,1.428,1.911,1.911,0,0,0,.5,1.386,1.813,1.813,0,0,0,1.368.522,1.813,1.813,0,0,0,1.368-.522,1.911,1.911,0,0,0,.5-1.386A2.021,2.021,0,0,0,14.478-4.272ZM17.7,0V-5.688h1.08v.876H18.8a1.661,1.661,0,0,1,.72-.738,2.319,2.319,0,0,1,1.152-.282,2.085,2.085,0,0,1,1.476.546A2.113,2.113,0,0,1,22.74-3.66V0H21.66V-3.36a1.484,1.484,0,0,0-.366-1.11,1.283,1.283,0,0,0-.93-.354,1.488,1.488,0,0,0-1.146.474,2.031,2.031,0,0,0-.438,1.422V0ZM27.792,0V-5.688h1.08V0Zm-.018-7.17a.762.762,0,0,1-.234-.558.762.762,0,0,1,.234-.558.762.762,0,0,1,.558-.234.762.762,0,0,1,.558.234.762.762,0,0,1,.234.558.762.762,0,0,1-.234.558.762.762,0,0,1-.558.234A.762.762,0,0,1,27.774-7.17ZM30.588,0V-5.688h1.08v.876h.024a1.661,1.661,0,0,1,.72-.738,2.319,2.319,0,0,1,1.152-.282,2.085,2.085,0,0,1,1.476.546,2.113,2.113,0,0,1,.588,1.626V0h-1.08V-3.36a1.484,1.484,0,0,0-.366-1.11,1.283,1.283,0,0,0-.93-.354,1.488,1.488,0,0,0-1.146.474,2.031,2.031,0,0,0-.438,1.422V0Zm11.2,0L39.912-5.688h1.212L42.408-1.44h.024l1.356-4.248h1.14l1.44,4.248h.024l1.224-4.248h1.14L46.92,0H45.828l-1.5-4.248H44.3L42.948,0Zm8,0V-5.688h1.08V0ZM49.77-7.17a.762.762,0,0,1-.234-.558.762.762,0,0,1,.234-.558.762.762,0,0,1,.558-.234.762.762,0,0,1,.558.234.762.762,0,0,1,.234.558.762.762,0,0,1-.234.558.762.762,0,0,1-.558.234A.762.762,0,0,1,49.77-7.17Zm5.862,1.482v.936H54.084v2.58a4.8,4.8,0,0,0,.018.486,2.393,2.393,0,0,0,.084.39.528.528,0,0,0,.246.33.944.944,0,0,0,.468.1,1.478,1.478,0,0,0,.768-.168v.984A1.99,1.99,0,0,1,54.7.144,2.332,2.332,0,0,1,53.88.018a1.535,1.535,0,0,1-.5-.282,1,1,0,0,1-.258-.456,2.284,2.284,0,0,1-.1-.5Q53-1.428,53-1.788V-4.752H51.756v-.936H53v-1.6h1.08v1.6ZM57.024,0V-9.072H58.1v4.26h.024a1.661,1.661,0,0,1,.72-.738A2.319,2.319,0,0,1,60-5.832a2.085,2.085,0,0,1,1.476.546,2.113,2.113,0,0,1,.588,1.626V0h-1.08V-3.36a1.484,1.484,0,0,0-.366-1.11,1.283,1.283,0,0,0-.93-.354,1.488,1.488,0,0,0-1.146.474A2.031,2.031,0,0,0,58.1-2.928V0ZM71.508-4.752h3.036V-.564a5.222,5.222,0,0,1-1.5.57,7.556,7.556,0,0,1-1.716.21,4.368,4.368,0,0,1-3.318-1.29,4.424,4.424,0,0,1-1.23-3.174,4.379,4.379,0,0,1,1.248-3.186,4.254,4.254,0,0,1,3.18-1.278,4.213,4.213,0,0,1,3.168,1.1l-.816.876a3.258,3.258,0,0,0-2.352-.9,2.982,2.982,0,0,0-2.316.978A3.448,3.448,0,0,0,68-4.248a3.319,3.319,0,0,0,.948,2.412A3.153,3.153,0,0,0,71.3-.864a4.258,4.258,0,0,0,2.088-.444V-3.672H71.508Zm6.246.48a2.021,2.021,0,0,0-.51,1.428,2.021,2.021,0,0,0,.51,1.428,1.765,1.765,0,0,0,1.362.552,1.765,1.765,0,0,0,1.362-.552,2.021,2.021,0,0,0,.51-1.428,2.021,2.021,0,0,0-.51-1.428,1.765,1.765,0,0,0-1.362-.552A1.765,1.765,0,0,0,77.754-4.272ZM76.968-.726a2.873,2.873,0,0,1-.876-2.118,2.873,2.873,0,0,1,.876-2.118,2.931,2.931,0,0,1,2.148-.87,2.931,2.931,0,0,1,2.148.87,2.873,2.873,0,0,1,.876,2.118,2.873,2.873,0,0,1-.876,2.118,2.931,2.931,0,0,1-2.148.87A2.931,2.931,0,0,1,76.968-.726Zm7.914-3.546a2.021,2.021,0,0,0-.51,1.428,2.021,2.021,0,0,0,.51,1.428,1.765,1.765,0,0,0,1.362.552,1.765,1.765,0,0,0,1.362-.552,2.021,2.021,0,0,0,.51-1.428,2.021,2.021,0,0,0-.51-1.428,1.765,1.765,0,0,0-1.362-.552A1.765,1.765,0,0,0,84.882-4.272ZM84.1-.726a2.873,2.873,0,0,1-.876-2.118A2.873,2.873,0,0,1,84.1-4.962a2.931,2.931,0,0,1,2.148-.87,2.931,2.931,0,0,1,2.148.87,2.873,2.873,0,0,1,.876,2.118,2.873,2.873,0,0,1-.876,2.118,2.931,2.931,0,0,1-2.148.87A2.931,2.931,0,0,1,84.1-.726ZM96.324-5.688v5.64a2.784,2.784,0,0,1-.858,2.112,3.13,3.13,0,0,1-2.25.816,3.944,3.944,0,0,1-2.784-1.02l.732-.912a2.692,2.692,0,0,0,2.028.924,1.958,1.958,0,0,0,1.578-.564,2.108,2.108,0,0,0,.474-1.4v-.84h-.036a1.952,1.952,0,0,1-.828.75,2.562,2.562,0,0,1-1.14.258,2.805,2.805,0,0,1-2.076-.834,2.8,2.8,0,0,1-.816-2.082,3,3,0,0,1,.8-2.136,2.736,2.736,0,0,1,2.094-.852,2.586,2.586,0,0,1,1.128.258,2.147,2.147,0,0,1,.852.7h.024v-.816Zm-1.59,1.416a1.765,1.765,0,0,0-1.362-.552,1.765,1.765,0,0,0-1.362.552,2.021,2.021,0,0,0-.51,1.428A1.911,1.911,0,0,0,92-1.458a1.813,1.813,0,0,0,1.368.522,1.813,1.813,0,0,0,1.368-.522,1.911,1.911,0,0,0,.5-1.386A2.021,2.021,0,0,0,94.734-4.272ZM98.04,0V-9.072h1.08V0Zm8.172-2.448h-4.56a1.471,1.471,0,0,0,.57,1.188,2.061,2.061,0,0,0,1.35.468,2,2,0,0,0,1.56-.852l.816.624a3,3,0,0,1-2.52,1.164A2.794,2.794,0,0,1,101.3-.7a2.985,2.985,0,0,1-.8-2.142,2.93,2.93,0,0,1,.834-2.136,2.823,2.823,0,0,1,2.106-.852,2.48,2.48,0,0,1,2.082.882,3.334,3.334,0,0,1,.69,2.118Zm-4.56-.864h3.408a1.808,1.808,0,0,0-.438-1.2,1.546,1.546,0,0,0-1.206-.456,1.679,1.679,0,0,0-1.26.522A1.608,1.608,0,0,0,101.652-3.312Z" transform="translate(1147.078 3379)" fill="#6a635d"/>
    </g>
  </g>
</svg>
