<svg xmlns="http://www.w3.org/2000/svg" width="41.523" height="35.46" viewBox="0 0 41.523 35.46"><defs><style>.a{fill:#333;}.b{fill:#c4cfe0;}</style></defs><path class="a" d="M14.13,3.747A8.826,8.826,0,0,1,20.017,6.1l.107.107a8.085,8.085,0,0,1,2.355,5.78,8.826,8.826,0,0,1-2.355,5.887,7.979,7.979,0,0,1-5.887,2.355,8.348,8.348,0,0,1-2.355-.321,7.376,7.376,0,0,1-.856-.321v3.532a.921.921,0,0,1-.856.856H.856A.921.921,0,0,1,0,23.122V.856A.921.921,0,0,1,.856,0h9.313a.921.921,0,0,1,.856.856V4.389c.214-.107.535-.214.749-.321a8.916,8.916,0,0,1,2.355-.321Zm4.6,3.532a6.662,6.662,0,0,0-4.6-1.927,5,5,0,0,0-1.82.321,11.894,11.894,0,0,0-1.713.749,1.809,1.809,0,0,1-.535.214.921.921,0,0,1-.856-.856V1.713h-7.6v20.66h7.6V18.3c0-.214.107-.321.107-.535a.773.773,0,0,1,1.177-.214A4.918,4.918,0,0,0,12.2,18.3a10.817,10.817,0,0,0,1.82.321,6.285,6.285,0,0,0,4.6-1.927,6.662,6.662,0,0,0,1.927-4.6,6.662,6.662,0,0,0-1.927-4.6l-.107-.107Z"/><path class="b" d="M27.233,34.759l-13.29-7.642a.891.891,0,0,1-.332-1.218h0l2.547-4.43a.891.891,0,0,1,1.218-.332q.332.166.332.332h0a7.862,7.862,0,0,0,1.107,1.55,8.363,8.363,0,0,0,1.55,1.218h.111a6.92,6.92,0,0,0,5.094.664,6.555,6.555,0,0,0,4.1-3.212h0a6.691,6.691,0,0,0,.664-5.205,6.555,6.555,0,0,0-3.212-4.1h0a12.305,12.305,0,0,0-1.772-.775,5.809,5.809,0,0,0-1.993-.221.856.856,0,0,1-.886-.775c0-.221.111-.332.111-.443h0l2.547-4.43a.891.891,0,0,1,1.218-.332h.111l13.29,7.642a.891.891,0,0,1,.332,1.218h0L28.451,34.316a1.051,1.051,0,0,1-1.218.443Z" transform="translate(1.332 0.661)"/></svg>