<svg xmlns="http://www.w3.org/2000/svg" width="32.869" height="40.946" viewBox="0 0 32.869 40.946"><defs><style>.a{fill:none;stroke:#333;stroke-width:2px;}.b{fill:#fff;}</style></defs><g transform="translate(70.028 -320.965)"><g transform="translate(-69 322)"><g transform="translate(0 0)"><path class="a" d="M36.7-529.1a1.645,1.645,0,0,0-.905-1.164c-2.456-1.551-8.921-4.4-17.842,1.939a12.776,12.776,0,0,0-.905-6.206,48.916,48.916,0,0,1-1.293-7.369c1.164-.517,3.62-1.939,4.008-3.879a2.859,2.859,0,0,0-.776-2.456,4.643,4.643,0,0,0-1.422-3.1,5.789,5.789,0,0,0-5.171-.905.859.859,0,0,0-.646.517,2.269,2.269,0,0,1-.517.647H11.1a4.063,4.063,0,0,0-2.327,2.069,2.855,2.855,0,0,0,0,2.068,13.634,13.634,0,0,1,.129,6.464c-.129.517-3.1,11.636-1.939,16.937.517,4.784,1.293,5.818,1.681,6.206a5.776,5.776,0,0,0,3.491,1.551,20.685,20.685,0,0,0,9.309.905,27.5,27.5,0,0,0,7.369,1.293,17.565,17.565,0,0,0,6.852-1.422,3.16,3.16,0,0,0,1.164-1.422C37.344-519.533,37.861-526.385,36.7-529.1Z" transform="translate(-6.692 552.497)"/></g><path class="b" d="M22.327,37.7a21.963,21.963,0,0,1-6.981-1.164l-.259-.129h-.259a14.052,14.052,0,0,1-2.327.129A21.81,21.81,0,0,1,6.036,35.5H5.778A4.468,4.468,0,0,1,3.063,34.21H2.8s-.646-.776-1.164-5.3V28.78C.865,24.513,2.8,15.334,3.58,12.489a14.68,14.68,0,0,0-.129-7.111V5.12a1.416,1.416,0,0,1,0-1.034A3.119,3.119,0,0,1,5,2.793H5.39l.388-.388c.259-.129.388-.388.646-.776A4.4,4.4,0,0,1,7.717,1.5a4.058,4.058,0,0,1,2.715.905,3.855,3.855,0,0,1,1.034,2.2V5.12l.388.388A1.312,1.312,0,0,1,12.242,6.8c-.259.905-1.422,2.069-3.232,2.974l-.905.388.129.905a47.825,47.825,0,0,0,1.293,7.5v.259a11.741,11.741,0,0,1,.905,5.559l-.259,2.844,2.327-1.81A17.583,17.583,0,0,1,22.714,21.8a11.886,11.886,0,0,1,6.335,1.81l.388.388v.129c.905,2.2.517,8.662-.129,11.636a1.291,1.291,0,0,1-.517.646A15.473,15.473,0,0,1,22.714,37.7Z" transform="translate(-0.466 -0.212)"/></g></g></svg>