<svg xmlns="http://www.w3.org/2000/svg" width="30.478" height="40.422" viewBox="0 0 30.478 40.422"><defs><style>.a{fill:#c4cfe0;}.b{fill:#333;stroke:#333;stroke-width:0.4px;}</style></defs><g transform="translate(-585.681 -500.883)"><path class="a" d="M6.983,0A6.983,6.983,0,1,1,0,6.983,6.983,6.983,0,0,1,6.983,0Z" transform="translate(593.98 508.981)"/><g transform="translate(586 501.207)"><path class="b" d="M26.615,10.7a1.261,1.261,0,0,1-.414-1c.016-1.233.016-2.474.008-3.708A2.292,2.292,0,0,0,23.9,3.7c-1.233,0-2.474-.016-3.708.008a1.325,1.325,0,0,1-1.062-.453C18.31,2.4,17.475,1.561,16.648.718A2.283,2.283,0,0,0,13.33.71c-.882.882-1.756,1.78-2.662,2.638a1.335,1.335,0,0,1-.82.343c-1.257.039-2.521.016-3.786.016A2.286,2.286,0,0,0,3.745,6.033c0,1.264-.008,2.521,0,3.786a1.142,1.142,0,0,1-.375.9C2.5,11.552,1.646,12.4.787,13.254a2.276,2.276,0,0,0-.023,3.333c.827.827,1.647,1.67,2.49,2.482a1.5,1.5,0,0,1,.507,1.2c-.031,1.194-.016,2.4-.008,3.591A2.2,2.2,0,0,0,5.72,26.148c.234.031.476.023.757.039-.078.172-.133.3-.2.429q-2.447,4.847-4.871,9.71c-.148.3-.25.585.008.866s.546.211.859.086c1.756-.71,3.52-1.4,5.276-2.123a.4.4,0,0,1,.578.164c.375.531.773,1.046,1.163,1.561.679.905,1.35,1.819,2.045,2.709a.757.757,0,0,0,.585.273c.2-.039.367-.273.523-.445.062-.07.062-.2.094-.3q1.136-3.63,2.264-7.243c.039-.125.086-.25.172-.468.086.234.133.351.164.468.773,2.467,1.545,4.925,2.31,7.4.094.3.219.57.562.617s.515-.172.695-.414c1.023-1.366,2.053-2.716,3.06-4.09a.48.48,0,0,1,.695-.2c1.741.718,3.489,1.4,5.237,2.107.429.172.788.109.89-.234a1.024,1.024,0,0,0-.078-.726q-2.412-4.871-4.855-9.726c-.062-.125-.117-.258-.2-.429a1.725,1.725,0,0,1,.25-.016,2.332,2.332,0,0,0,2.42-2.427c-.062-1.155,0-2.318-.016-3.473a1.359,1.359,0,0,1,.437-1.069c.89-.859,1.756-1.741,2.623-2.615a2.27,2.27,0,0,0,.008-3.278Q27.931,11.985,26.615,10.7ZM11.66,37.864c-.039.023-.086.047-.125.07a.863.863,0,0,0-.094-.211c-.913-1.233-1.834-2.459-2.748-3.692a.679.679,0,0,0-.913-.273c-1.389.554-2.771,1.108-4.16,1.663-.125.055-.258.094-.461.164.078-.187.125-.3.18-.414,1.436-2.88,2.88-5.76,4.309-8.648a.572.572,0,0,1,.624-.382,12.378,12.378,0,0,0,1.522,0,1.219,1.219,0,0,1,1,.421q1.077,1.1,2.178,2.178c.367.359.765.687,1.194,1.077C13.354,32.455,12.5,35.156,11.66,37.864Zm15.057-2.459a1.178,1.178,0,0,1,.055.2c-1.093-.437-2.115-.843-3.138-1.249-.468-.187-.937-.382-1.4-.578a.666.666,0,0,0-.944.258q-1.335,1.78-2.669,3.551c-.078.1-.156.2-.289.367-.866-2.763-1.709-5.456-2.537-8.118a28.244,28.244,0,0,0,3.442-3.239,1.324,1.324,0,0,1,1.069-.437c.507.031,1.015-.008,1.522.016a.539.539,0,0,1,.39.219C23.712,29.387,25.21,32.4,26.717,35.405ZM28.333,15.72q-1.323,1.323-2.654,2.646a2.382,2.382,0,0,0-.749,1.78c.008,1.225.008,2.443,0,3.669-.008.851-.281,1.124-1.124,1.124-1.194,0-2.4.008-3.591,0a2.358,2.358,0,0,0-1.78.742c-.866.866-1.748,1.709-2.584,2.6a1.046,1.046,0,0,1-1.647.008c-.835-.89-1.725-1.733-2.584-2.6a2.423,2.423,0,0,0-1.78-.749c-1.288.008-2.576,0-3.864,0a.938.938,0,0,1-1.015-1.023V20.091a2.334,2.334,0,0,0-.71-1.717L1.607,15.728c-.593-.593-.593-1,.008-1.592Q2.9,12.859,4.206,11.591A2.383,2.383,0,0,0,4.963,9.78c-.008-1.264,0-2.521,0-3.786,0-.765.3-1.069,1.062-1.069H9.81a2.334,2.334,0,0,0,1.717-.71l2.646-2.646c.593-.593,1-.593,1.592.008.851.851,1.686,1.7,2.521,2.56a2.444,2.444,0,0,0,1.881.788q1.873-.012,3.747,0c.773,0,1.062.289,1.069,1.054V7.891h0V9.764a2.324,2.324,0,0,0,.734,1.748l2.623,2.623C28.926,14.729,28.926,15.127,28.333,15.72Z" transform="translate(-0.049 0)"/><path class="b" d="M73.445,63.4a9.979,9.979,0,1,0,9.913,10.124A10.106,10.106,0,0,0,73.445,63.4Zm-.258,18.749a8.763,8.763,0,1,1,8.945-8.57A8.688,8.688,0,0,1,73.188,82.148Z" transform="translate(-58.455 -58.45)"/><path class="a" d="M102.97,95.4a7.482,7.482,0,1,0,7.493,7.454A7.6,7.6,0,0,0,102.97,95.4Zm-.008,13.738a6.256,6.256,0,1,1,6.276-6.26A6.136,6.136,0,0,1,102.962,109.138Z" transform="translate(-88.049 -87.954)"/><path class="b" d="M132.994,127.983c-.016-.367-.32-.593-.781-.585a5.153,5.153,0,0,0-4.816,4.808c-.008.476.234.788.617.788.367,0,.593-.289.609-.757a3.645,3.645,0,0,1,3.606-3.614C132.713,128.615,133.01,128.366,132.994,127.983Z" transform="translate(-117.458 -117.453)"/><path class="b" d="M187.848,184.171a3.633,3.633,0,0,1-3.614,3.6c-.484.016-.773.273-.749.648s.32.585.788.57a5.146,5.146,0,0,0,4.8-4.777c.016-.484-.211-.8-.585-.812S187.871,183.679,187.848,184.171Z" transform="translate(-169.165 -169.083)"/></g></g></svg>