<svg xmlns="http://www.w3.org/2000/svg" width="16.25" height="15.077" viewBox="0 0 16.25 15.077"><defs><style>.a{fill:#9cc4f3;}</style></defs><path class="a" d="M15.845,7.873,8.667.735a.951.951,0,0,0-1.334,0L.155,7.872A.946.946,0,0,0,.149,9.21a.943.943,0,0,0,.674.28H2.087V14.6a.948.948,0,0,0,.947.944h9.932a.948.948,0,0,0,.947-.944V9.49h1.266a.945.945,0,0,0,.666-1.617ZM8.611,11.051v2.994H7.389V11.051Zm3.807-2.125v5.119H10.1V10.488a.929.929,0,0,0-.925-.925H6.82a.929.929,0,0,0-.925.925v3.557H3.582V8.92A.928.928,0,0,0,2.657,8H2.151L8,2.179,13.851,8l-.508,0A.929.929,0,0,0,12.418,8.926Z" transform="translate(0.125 -0.462)"/></svg>