<svg xmlns="http://www.w3.org/2000/svg" xmlns:xlink="http://www.w3.org/1999/xlink" width="78.356" height="76.25" viewBox="0 0 78.356 76.25"><defs><style>.a{opacity:0.5;}.b{fill:#fff;}.c{fill:none;}.d{filter:url(#c);}.e{filter:url(#a);}</style><filter id="a" x="0" y="0" width="78.356" height="73.767" filterUnits="userSpaceOnUse"><feOffset dy="5" input="SourceAlpha"/><feGaussianBlur stdDeviation="10" result="b"/><feFlood flood-opacity="0.051"/><feComposite operator="in" in2="b"/><feComposite in="SourceGraphic"/></filter><filter id="c" x="4.665" y="14.414" width="69.025" height="61.836" filterUnits="userSpaceOnUse"><feOffset dy="5" input="SourceAlpha"/><feGaussianBlur stdDeviation="10" result="d"/><feFlood flood-opacity="0.051"/><feComposite operator="in" in2="d"/><feComposite in="SourceGraphic"/></filter></defs><g class="a" transform="translate(-5349.25 -2091.5)"><g transform="translate(5379.25 2116.5)"><g class="e" transform="matrix(1, 0, 0, 1, -30, -25)"><path class="b" d="M400.3,414.381H385.62a1.836,1.836,0,0,0-1.836,1.836v10.1a1.836,1.836,0,0,0,1.836,1.836H400.3a1.836,1.836,0,0,0,1.836-1.836v-10.1A1.836,1.836,0,0,0,400.3,414.381Zm-10.937,10.343a.918.918,0,1,1-1.836,0v-2.542a.918.918,0,1,1,1.836,0Zm4.513,0a.918.918,0,0,1-1.836,0V420a.918.918,0,0,1,1.836,0Zm4.512,0a.918.918,0,0,1-1.836,0v-7.189a.918.918,0,0,1,1.836,0Z" transform="translate(-353.78 -389.38)"/></g><g class="d" transform="matrix(1, 0, 0, 1, -30, -25)"><path class="b" d="M460.952,649.964a.918.918,0,1,0,0,1.836h7.189a.918.918,0,1,0,0-1.836Z" transform="translate(-425.37 -610.55)"/></g></g><rect class="c" width="20" height="20" transform="translate(5378 2114)"/></g></svg>