<?xml version="1.0" encoding="utf-8"?>
<!-- Generator: Adobe Illustrator 19.1.0, SVG Export Plug-In . SVG Version: 6.00 Build 0)  -->
<svg version="1.1" id="Layer_1" xmlns="http://www.w3.org/2000/svg" xmlns:xlink="http://www.w3.org/1999/xlink" x="0px" y="0px"
	 viewBox="-266 358.8 78.4 76.3" style="enable-background:new -266 358.8 78.4 76.3;" xml:space="preserve">
<style type="text/css">
	.st0{fill:#FFFFFF;}
</style>
<g>
	<path id="Path_3483-2" class="st0" d="M-195.5,362.2h-62.7c-4.3,0-7.8,3.5-7.8,7.8v43.1c0,4.3,3.5,7.8,7.8,7.8h62.7
		c4.3,0,7.8-3.5,7.8-7.8V370C-187.6,365.7-191.2,362.2-195.5,362.2z M-242.2,406.3c0,2.2-1.7,3.9-3.9,3.9c-2.2,0-3.9-1.8-3.9-3.9
		c0,0,0,0,0,0v-10.9c0-2.2,1.7-3.9,3.9-3.9c2.2,0,3.9,1.8,3.9,3.9c0,0,0,0,0,0V406.3z M-222.9,406.3c0,2.2-1.8,3.9-3.9,3.9
		c-2.2,0-3.9-1.8-3.9-3.9v-20.2c0-2.2,1.8-3.9,3.9-3.9c2.2,0,3.9,1.8,3.9,3.9V406.3z M-203.6,406.3c0,2.2-1.8,3.9-3.9,3.9
		c-2.2,0-3.9-1.8-3.9-3.9v-30.7c0-2.2,1.8-3.9,3.9-3.9c2.2,0,3.9,1.8,3.9,3.9V406.3z"/>
	<path id="Path_3482-2" class="st0" d="M-242.2,423.7c-2.2,0-3.9,1.7-3.9,3.9c0,2.2,1.8,3.9,3.9,3.9c0,0,0,0,0,0h30.7
		c2.2,0,3.9-1.7,3.9-3.9c0-2.2-1.8-3.9-3.9-3.9c0,0,0,0,0,0H-242.2z"/>
</g>
</svg>
