<svg xmlns="http://www.w3.org/2000/svg" width="15.999" height="16.003" viewBox="0 0 15.999 16.003"><defs><style>.a{fill:#9cc4f3;}</style></defs><g transform="translate(-0.001 0.001)"><path class="a" d="M15.456,6.514c-.007,0-.738-.451-1.242-.714l-.263-.637c.149-.486.34-1.247.372-1.384a1.15,1.15,0,0,0-.31-1.081L13.3,1.985a1.161,1.161,0,0,0-1.083-.31c-.1.025-.885.222-1.382.373L10.2,1.784C9.957,1.325,9.548.643,9.484.543A1.149,1.149,0,0,0,8.5,0H7.5a1.152,1.152,0,0,0-.982.543c-.044.07-.467.768-.715,1.243l-.637.263C4.656,1.89,3.875,1.7,3.78,1.675a1.155,1.155,0,0,0-1.081.31L1.986,2.7a1.154,1.154,0,0,0-.308,1.087c.038.152.226.9.372,1.377L1.786,5.8c-.448.237-1.124.639-1.241.714A1.148,1.148,0,0,0,0,7.5V8.5a1.153,1.153,0,0,0,.542.982c.056.034.762.463,1.243.715l.264.637c-.15.484-.341,1.245-.373,1.383A1.154,1.154,0,0,0,1.986,13.3l.713.712a1.155,1.155,0,0,0,1.093.307c.214-.053.915-.23,1.372-.37l.641.264c.237.45.64,1.125.713,1.242A1.155,1.155,0,0,0,7.5,16H8.508a1.153,1.153,0,0,0,.983-.545c.005-.007.451-.738.714-1.241l.637-.264c.486.15,1.246.34,1.384.373a1.155,1.155,0,0,0,1.081-.31l.713-.712a1.16,1.16,0,0,0,.31-1.084c0-.01-.212-.85-.373-1.382l.258-.641c.453-.239,1.125-.64,1.241-.713A1.155,1.155,0,0,0,16,8.5V7.5A1.153,1.153,0,0,0,15.456,6.514Zm-2.275,2.7L12.527,10.8l.091.247c.1.272.305,1.054.385,1.377l-.565.565c-.32-.08-1.111-.286-1.38-.385l-.244-.091-1.589.658-.108.24c-.13.277-.544.976-.71,1.25H7.6c-.169-.272-.585-.979-.707-1.246l-.109-.244L5.2,12.509l-.239.1c-.274.1-1.045.3-1.379.385l-.565-.565c.08-.32.288-1.111.386-1.38l.09-.244L2.831,9.22l-.24-.108c-.279-.131-.982-.548-1.249-.709V7.6c.278-.173.987-.587,1.246-.706l.243-.11L3.486,5.19l-.092-.245c-.106-.28-.3-1.055-.385-1.378L3.574,3c.337.084,1.115.289,1.38.386l.244.09,1.59-.658L6.9,2.58c.13-.277.548-.983.709-1.249h.8c.169.273.584.981.706,1.246l.11.243,1.592.656.245-.092c.276-.1,1.05-.305,1.378-.386L13,3.564c-.08.321-.287,1.11-.385,1.379l-.091.245.658,1.589.24.108c.276.13.982.547,1.25.709V8.4c-.281.173-.991.588-1.247.706Z"/><path class="a" d="M10,4.684a4.011,4.011,0,0,0-4.026-.029A3.17,3.17,0,0,0,4.66,5.966a4.019,4.019,0,0,0,.029,4.028A3.84,3.84,0,0,0,8,11.866,3.88,3.88,0,0,0,11.871,8,3.841,3.841,0,0,0,10,4.684ZM10.528,8A2.525,2.525,0,1,1,8,5.474,2.521,2.521,0,0,1,10.528,8Z"/></g></svg>