<svg xmlns="http://www.w3.org/2000/svg" width="16" height="14.094" viewBox="0 0 16 14.094"><defs><style>.a{fill:#ffffff;}</style></defs><g transform="translate(0.005 -1.906)"><path class="a" d="M13.995,4.33h-6L7.2,3.148A2,2,0,0,0,5.353,1.906H2a2,2,0,0,0-2,2V14a2.006,2.006,0,0,0,2,2h12a2,2,0,0,0,2-2V6.33A2,2,0,0,0,13.995,4.33Zm.7,9.67a.7.7,0,0,1-.7.7H2a.71.71,0,0,1-.7-.7V3.906a.7.7,0,0,1,.7-.7H5.353A.7.7,0,0,1,6,3.641a1.3,1.3,0,0,0,.122.23l.792,1.182a1.3,1.3,0,0,0,1.08.577h6a.7.7,0,0,1,.7.7Z"/><path class="a" d="M11.063,8.789,8.348,11.505,6.526,9.683a.672.672,0,0,0-.92,0L2.833,12.457a.651.651,0,0,0,.92.92l2.313-2.315,1.822,1.822a.651.651,0,0,0,.92,0l3.175-3.175.64.64.805-3.005-3.005.805Z"/></g></svg>