<svg xmlns="http://www.w3.org/2000/svg" xmlns:xlink="http://www.w3.org/1999/xlink" width="696.229" height="425.737" viewBox="0 0 696.229 425.737"><defs><style>.a{fill:#f7f7f8;}.b,.e,.f{fill:none;}.b,.f{stroke:#c4cfe0;}.b{stroke-width:4px;opacity:0.29;}.c{opacity:0.09;isolation:isolate;}.d{fill:#97ffb6;}.e{stroke:#0667fb;}.e,.f{stroke-miterlimit:10;stroke-width:2px;}.g{fill:#c4cfe0;}.h{fill:#bce1f4;}.i{opacity:0.62;}.j{fill:#414551;}.k{fill:#333;}.l{fill:#272727;}.m{fill:#ff9569;}.n{fill:#2a2a2a;}.o{fill:#ffd665;}.p{fill:#ffcc41;}.q{fill:#41424c;}.r{fill:#014278;}.s{fill:#0667fb;}.t{fill:#5898fb;}.u{fill:#b0bac9;}.v{fill:#e7efff;}.w{fill:#fff;}.x{filter:url(#a);}</style><filter id="a" x="226.429" y="286.179" width="233.161" height="59.884" filterUnits="userSpaceOnUse"><feOffset dy="3" input="SourceAlpha"/><feGaussianBlur stdDeviation="3" result="b"/><feFlood flood-opacity="0.161"/><feComposite operator="in" in2="b"/><feComposite in="SourceGraphic"/></filter></defs><g transform="translate(-66 -88)"><path class="a" d="M254.955,147.164c65.128-15.7,65.2-33.871,90.936-99.747s358.849-2.186,378.8,51.253-44.6,37.29-97.75,83.792,156.094,196.511-32.491,227.849S92.93,313.366,54.267,230.526,189.826,162.865,254.955,147.164Z" transform="translate(33.825 68.667)"/><path class="b" d="M8739.572,5119.5h-144.15" transform="translate(-8466.503 -4823.844)"/><path class="b" d="M8739.572,5119.5h-144.15" transform="translate(-8466.503 -4807.844)"/><path class="b" d="M8739.572,5119.5h-144.15" transform="translate(-8466.503 -4791.844)"/><ellipse class="c" cx="343.01" cy="7.684" rx="343.01" ry="7.684" transform="translate(66 498.369)"/><path class="d" d="M323.018,385.58q27.194-27.984,56.992-54.035c7.336-6.412,15.426-13.035,25.746-14.762,7.635-1.278,17.174,1.534,18.832,8,1.721,6.736-5.62,12.4-8.928,18.692a4.354,4.354,0,0,0-.659,2.4c.355,3.36,6.218,3.292,9.854,1.958,18.7-6.87,33.209-19.81,49.587-30.12s37.344-18.317,56.774-13.1c4.132,1.108,8.364,3.068,10.009,6.478,1.87,3.876-.2,8.313-2.919,11.807s-6.175,6.725-7.462,10.769a4.288,4.288,0,0,0-.229,2.149c.737,3.58,6.883,3.2,10.941,2.073a121.866,121.866,0,0,1,37.856-4.244c4.82.217,9.758.755,13.989,2.73,8.559,4.055,14.541,13.657,14.495,22.1.967,12.257-13.438,25.267-23.489,27.108l-261.39,0" transform="translate(78.972 115.355)"/><path class="e" d="M193.853,249.281H123.711A13.715,13.715,0,0,1,110,235.567V159.6" transform="translate(43.909 100.717)"/><path class="f" d="M476.09,302h78.921a16.331,16.331,0,0,0,16.331-16.331V174.083H527.106a14.1,14.1,0,0,0-14.1,14.1v36.762A16.452,16.452,0,0,1,496.555,241.4H476.09" transform="translate(104.168 94.139)"/><path class="d" d="M351.576,389.389l-274.7,3.659,43.862-15.772s-29.906-64.4,6.978-63.486c0,0,8.971-.92,18.94,5.52,0,0,1.5-54.284,31.9-54.744s48.489,49.224,48.489,49.224,23.417-22.769,51.089-19.12c19.769,2.434,26.342,26.485,34.215,34.948.267.283,31.933-13.255,41.563,2.339S350.878,392,350.878,392" transform="translate(38.458 109.032)"/><g transform="translate(521.396 180.746)"><rect class="g" width="33.297" height="33.297" rx="3.704" transform="translate(0 0)"/></g><g transform="translate(671.34 422.064)"><rect class="h" width="17.926" height="17.926" rx="1.994"/></g><g transform="translate(92.422 358.075)"><rect class="h" width="36.361" height="36.361" rx="2.827"/></g><g class="i" transform="translate(344.919 218.572)"><rect class="h" width="12.417" height="12.417" rx="2.827"/></g><g class="i" transform="translate(128.919 462.572)"><rect class="h" width="12.417" height="12.417" rx="2.827"/></g><g class="i" transform="translate(682.919 109.572)"><rect class="h" width="12.417" height="12.417" rx="2.827"/></g><rect class="g" width="44.943" height="44.943" rx="5" transform="translate(653.039 313.064)"/><rect class="g" width="30.913" height="30.913" rx="15.457" transform="translate(660.054 252.766)"/><g transform="translate(164.035 358.007)"><path class="j" d="M144.149,366.272s-9.922,6.3-.291,9.213,7.853,4.45,7.853,4.45a41.789,41.789,0,0,1-18.724-.409c-7.587.892,2.816-14.5,2.816-14.5Z" transform="translate(-119.964 -233.562)"/><path class="j" d="M165.178,367.3s-9.028,7.514.892,9.173,8.36,3.406,8.36,3.406a41.783,41.783,0,0,1-18.627,1.995c-7.411,1.863.933-14.735.933-14.735Z" transform="translate(-114.477 -233.047)"/><path class="k" d="M149.945,305.253c-.031-.162-.052-.245-.052-.245-.32.011-.645.011-.992-.01a36.924,36.924,0,0,1-9.248-2.016c-6.165-2.05-7.427,4.231-7.427,4.231s6.995,36.443-.1,74.986l-.6,2.8c6.992,4.789,11.306.912,11.306.912.4-1.16.78-2.308,1.147-3.445q1.075-3.336,1.96-6.609a172.205,172.205,0,0,0,6.119-43.746A134.577,134.577,0,0,0,149.945,305.253Z" transform="translate(-119.647 -248.782)"/><path class="l" d="M147.857,334.629a25.178,25.178,0,0,1-5.172,13.645c-2.463,3.226-2.463,10.345,0,19.012a18.376,18.376,0,0,0,.979,2.783,172.194,172.194,0,0,0,6.119-43.744C147.942,326.355,147.859,330.633,147.857,334.629Z" transform="translate(-117.376 -242.993)"/><path class="m" d="M150.751,260.272l-.035-.043c-18.167-4.477-9.2,12.729-9.2,12.729l.3.459c.148.21.347.522.638.968.94,1.429-3.159,7.644-3.159,7.644l13.065-2.448-1.647-5.2C159.116,269.839,151.341,260.924,150.751,260.272Z" transform="translate(-117.751 -259.282)"/><path class="n" d="M132.1,307.215l2.254-4.645h17.541v31.463L133.3,315.273Z" transform="translate(-119.506 -248.782)"/><path class="k" d="M170.085,379.774c5.039-42.311-7.495-73.955-8.736-76.946-.056-.154-.092-.233-.092-.233-.317.07-.633.132-.98.184a36.626,36.626,0,0,1-9.461-.244,103.492,103.492,0,0,1-12.6-2.559c.223.476.438.959.65,1.44,1.69,3.826,3.247,7.71,4.726,11.626q3.815,10.063,6.815,20.385a219.684,219.684,0,0,1,5.911,25.659c.747,4.54,1.327,9.114,1.684,13.705.184,2.3.279,4.589.357,6.889a16.777,16.777,0,0,1-.383,4.308,12.455,12.455,0,0,0-.562,2.536c7.771,3.38,10.994,1.507,10.994,1.507C168.581,386.818,169.941,380.962,170.085,379.774Z" transform="translate(-118.014 -249.414)"/><path class="l" d="M158.893,302.371l-1.071-.05-9.535-.453.076.208c.694,1.943,6.8,3.762,9.1,34.847,2.37,32.131,8.911,42.876,10.172,42.388C172.671,337,160.137,305.355,158.893,302.371Z" transform="translate(-115.561 -248.953)"/><path class="o" d="M158.518,273.109c-20.519-.234-23.119,3.3-23.119,3.3L132.092,314.4s7.859,5.735,32.89-.694c0,0,2.021,4.7-3.873-29.035Z" transform="translate(-119.507 -255.964)"/><path class="p" d="M153.125,285.04s-5.359,4.343,2.426,10.477c0,0,1.266,6.728,4.1,7.2L156.5,282.769Z" transform="translate(-114.82 -253.608)"/><path class="o" d="M137.366,287.14l-6.462,8.685,4.026,13.349-.317,4.659c-.924-.922-10.053-15.2-12.382-18.853a1.592,1.592,0,0,1-.015-1.711c11.117-17.244,16.259-17.883,16.259-17.883Z" transform="translate(-121.973 -255.407)"/><path class="q" d="M140.37,266.588c-.34,2.715-.572,4.528-.823,8.794s-3.613,6.721-6.588,9.309-2.584,11.9,0,8.149,3.879,7.242,10.6,3.75,3.618.648,9.254-3.362,1.177-3.38-.483-11.182c-.357-1.675,2.354-5.769,2.938-6.663,1.545-2.372-4.936-4.66-2.46-7.242,4.339-4.525-.047-7.878-.047-7.878C140.125,256.782,140.711,263.873,140.37,266.588Z" transform="translate(-119.805 -259.322)"/><path class="m" d="M150.928,264.507a7.458,7.458,0,0,1-2.96.74c-.765-.23-.943-.434.052-.74s-4.971-2.522-3.365-2.752a28.639,28.639,0,0,1,5.915.621Z" transform="translate(-116.513 -258.729)"/><path class="o" d="M155.154,289.239s23.469-16,18.751-20.563-25.36-6.588-25.36-6.588v2.853l15.182,6.172-9.512,4.681Z" transform="translate(-115.498 -258.647)"/></g><rect class="r" width="342.496" height="230.035" rx="16.423" transform="translate(237.294 245.751)"/><rect class="s" width="328.311" height="216.005" rx="12.611" transform="translate(244.854 252.766)"/><rect class="t" width="141.176" height="4.382" transform="translate(338.422 431.027)"/><rect class="u" width="60.856" height="25.559" transform="translate(378.417 475.786)"/><path class="g" d="M7.032,0h73.2a7.032,7.032,0,0,1,7.032,7.032V8.19a0,0,0,0,1,0,0H0a0,0,0,0,1,0,0V7.032A7.032,7.032,0,0,1,7.032,0Z" transform="translate(364.791 498.426)"/><g class="x" transform="matrix(1, 0, 0, 1, 66, 88)"><rect class="v" width="215.161" height="41.884" rx="7" transform="translate(235.43 292.18)"/></g><g transform="translate(321.772 394.453)"><path class="r" d="M273.672,284.391l-3.619,4.763v.078l5.754-.763v2.59l-5.754-.685v.077l3.659,4.571-2.4,1.371-2.287-5.334h-.076l-2.476,5.374-2.172-1.371,3.619-4.652v-.074l-5.639.723v-2.59l5.6.723v-.074l-3.582-4.651,2.323-1.33,2.364,5.3h.076l2.323-5.336Z" transform="translate(-262.28 -283.095)"/><g transform="translate(40.236)"><path class="r" d="M304.468,284.391l-3.619,4.763v.078l5.754-.763v2.59l-5.754-.685v.077l3.659,4.571-2.4,1.371-2.287-5.334h-.077l-2.476,5.374-2.172-1.371,3.619-4.652v-.074l-5.639.723v-2.59l5.6.723v-.074l-3.583-4.651,2.325-1.33,2.362,5.3h.076l2.324-5.336Z" transform="translate(-293.074 -283.095)"/></g><g transform="translate(80.474)"><path class="r" d="M335.261,284.391l-3.619,4.763v.078l5.754-.763v2.59l-5.754-.685v.077l3.659,4.571-2.4,1.371-2.287-5.334h-.076l-2.476,5.374-2.172-1.371,3.619-4.652v-.074l-5.639.723v-2.59l5.6.723v-.074l-3.581-4.651,2.323-1.33,2.364,5.3h.076l2.323-5.336Z" transform="translate(-323.869 -283.095)"/></g><g transform="translate(120.71)"><path class="r" d="M366.057,284.391l-3.619,4.763v.078l5.754-.763v2.59l-5.754-.685v.077l3.659,4.571-2.4,1.371-2.287-5.334h-.077l-2.476,5.374-2.172-1.371,3.619-4.652v-.074l-5.639.723v-2.59l5.6.723v-.074l-3.583-4.651,2.324-1.33,2.362,5.3h.076l2.324-5.336Z" transform="translate(-354.663 -283.095)"/></g><g transform="translate(160.947)"><path class="r" d="M396.85,284.391l-3.619,4.763v.078l5.754-.763v2.59l-5.754-.685v.077l3.659,4.571-2.4,1.371-2.287-5.334h-.076l-2.476,5.374-2.172-1.371,3.619-4.652v-.074l-5.639.723v-2.59l5.6.723v-.074l-3.581-4.651,2.323-1.33,2.364,5.3h.076l2.323-5.336Z" transform="translate(-385.458 -283.095)"/></g></g><g transform="translate(118.023 201.662)"><rect class="s" width="71.763" height="71.763" rx="9" transform="translate(0)"/><g transform="translate(24.303 17.355)"><path class="w" d="M100.343,174.7a3.308,3.308,0,0,0-.051-.516c-.1-.482-.156-.742-.156-.774a5.891,5.891,0,0,1,.1-2.482,8.681,8.681,0,0,1,2.559-4.262,10.87,10.87,0,0,1,4.108-2.431,14.244,14.244,0,0,1,4.6-.644,14.758,14.758,0,0,1,4.6.723,11.377,11.377,0,0,1,4.11,2.427,9.326,9.326,0,0,1,2.66,4.084q1.4,4.6-3,9.25a10.378,10.378,0,0,1-.878.981l-1.135,1.033c-.415.38-.724.674-.932.878a12.693,12.693,0,0,0-1.912,2.276,8.021,8.021,0,0,0-.826,1.963c-.035.207-.07.533-.1.983q-.154,1.445-.155,1.756a2.44,2.44,0,0,1-.956,1.756,2.572,2.572,0,0,1-1.912.569,2.429,2.429,0,0,1-1.732-.957,2.536,2.536,0,0,1-.567-1.884q.051-.311.155-1.655.1-.98.207-1.551a12.426,12.426,0,0,1,1.446-3.565,17.044,17.044,0,0,1,2.738-3.359c.1-.07.518-.446,1.241-1.138l1.6-1.6q2.274-2.481,1.756-4.187a4.55,4.55,0,0,0-2.221-2.582,8.38,8.38,0,0,0-4.211-1.061,7.937,7.937,0,0,0-4.135.956,4.4,4.4,0,0,0-2.144,2.584l.052.362v.257l.1.207v.206q.1.569.154.983a2.583,2.583,0,0,1-.645,1.885,2.485,2.485,0,0,1-1.757.878,2.458,2.458,0,0,1-1.861-.618A2.567,2.567,0,0,1,100.343,174.7Zm13.074,21.55a2.371,2.371,0,0,1,.776,1.81,2.594,2.594,0,1,1-2.584-2.585A2.375,2.375,0,0,1,113.417,196.251Z" transform="translate(-100.053 -163.589)"/></g></g><path class="w" d="M565.882,230.372v-1.938a6.678,6.678,0,1,0-13.356,0v1.938a2.989,2.989,0,0,0-3.015,2.908v9.048a3.01,3.01,0,0,0,3.015,3.015H565.99a3.081,3.081,0,0,0,3.015-3.015V233.28A3.016,3.016,0,0,0,565.882,230.372Zm-5.923,8.186v1.724a.7.7,0,0,1-1.4,0v-1.724a1.824,1.824,0,0,1-.969-1.508,1.586,1.586,0,0,1,1.615-1.615,1.526,1.526,0,0,1,1.615,1.615A1.719,1.719,0,0,1,559.959,238.558Zm4.092-8.186h-9.694v-1.938a4.847,4.847,0,1,1,9.694,0Z" transform="translate(116.253 101.986)"/><g transform="translate(372.457 287.663)"><circle class="t" cx="36.553" cy="36.553" r="36.553"/><path class="w" d="M335.808,221.808a8.158,8.158,0,1,0-7.261,0,14.63,14.63,0,0,0-10.992,14.17H346.8A14.629,14.629,0,0,0,335.808,221.808Z" transform="translate(-295.627 -184.608)"/></g><g transform="translate(591.697 367.165)"><rect class="g" width="57.943" height="57.943" rx="6.446"/><path class="w" d="M518.1,269.572l-12.7.015a.463.463,0,0,0-.464.464v6.914a.457.457,0,0,0,.02.126l4.87,4.6.234.217v12.466h-.139a.464.464,0,0,0-.464.464v0a.464.464,0,0,0,.464.464h.139v1.048H507.5a.463.463,0,0,0-.464.464v1.168a.464.464,0,0,0,.464.465h.7v.814h-.7a.464.464,0,0,0-.464.465v1.168a.464.464,0,0,0,.464.465h2.565v1.166a.463.463,0,0,0,.463.464h2.8a.464.464,0,0,0,.463-.464V295.3h.06a.464.464,0,0,0,.465-.464v0a.464.464,0,0,0-.465-.464h-.06V281.746l4.632-4.441a.465.465,0,0,0,.142-.334v-6.934A.463.463,0,0,0,518.1,269.572Zm-2.04,4.646h-8.5a1.106,1.106,0,0,1,0-2.213h8.5a1.106,1.106,0,1,1,0,2.213Z" transform="translate(-482.781 -257.309)"/></g><g transform="translate(668.349 261.918)"><path class="w" d="M552.588,173.964l-.83-2.76a.734.734,0,0,1,.468-.891h0a.732.732,0,0,1,.89.468l.3,1.026a6.333,6.333,0,0,1,11.3.723.72.72,0,0,1-.649,1,.7.7,0,0,1-.649-.423,4.9,4.9,0,0,0-8.809-.482l1.222-.362a.732.732,0,0,1,.89.468h0a.731.731,0,0,1-.467.89l-2.76.829A.737.737,0,0,1,552.588,173.964Z" transform="translate(-551.731 -168.67)"/><path class="w" d="M564.488,178.191l-.3-1.026a6.326,6.326,0,0,1-11.3-.708.72.72,0,0,1,.649-1h0a.7.7,0,0,1,.649.422,4.9,4.9,0,0,0,8.809.483l-1.222.362a.734.734,0,0,1-.891-.468h0a.732.732,0,0,1,.468-.89l2.76-.829a.726.726,0,0,1,.89.482l.844,2.76a.731.731,0,0,1-.467.89h0A.72.72,0,0,1,564.488,178.191Z" transform="translate(-551.549 -167.708)"/></g></g></svg>