<svg xmlns="http://www.w3.org/2000/svg" xmlns:xlink="http://www.w3.org/1999/xlink" width="412.7" height="113.2" viewBox="0 0 412.7 113.2"><defs><style>.a,.g{fill:#fff;}.a{stroke:#707070;}.b{opacity:0.6;}.c{clip-path:url(#a);}.d{fill:#fe852d;}.e{fill:#896cfe;}.f{fill:#000e4d;}.h{fill:#66a2fe;}.i{fill:#feb8ca;}.j,.k{fill:none;stroke:#000e4d;stroke-linecap:round;stroke-width:1.4px;}.j{stroke-linejoin:round;}</style><clipPath id="a"><rect class="a" width="411" height="109" transform="translate(1746.48 1029.909)"/></clipPath></defs><g class="b" transform="translate(-920 -221.8)"><g class="c" transform="translate(-826.48 -803.909)"><g transform="translate(1850.635 960.759)"><g transform="translate(51.353 143.111)"><path class="d" d="M479.329,853.624a13.395,13.395,0,1,0,13.395-13.395A13.394,13.394,0,0,0,479.329,853.624Z" transform="translate(-479.329 -840.229)"/></g><g transform="translate(34.231 143.111)"><path class="e" d="M446.942,853.624a13.395,13.395,0,1,1-13.394-13.395A13.393,13.393,0,0,1,446.942,853.624Z" transform="translate(-420.153 -840.229)"/></g><g transform="translate(43.136 153.374)"><path class="f" d="M451.617,875.7a.681.681,0,0,0-.2,1.335,6.788,6.788,0,0,1,2.84,2.1c1.47,1.695,2.99,4.662,2.99,9.873a.681.681,0,1,0,1.362,0c0-5.479-1.636-8.822-3.322-10.766a8.55,8.55,0,0,0-3.471-2.507A.709.709,0,0,0,451.617,875.7Z" transform="translate(-450.929 -875.703)"/></g><g transform="translate(61.555 153.375)"><path class="f" d="M521.563,875.706a.681.681,0,0,0-.181.032,8.544,8.544,0,0,0-3.47,2.507c-1.686,1.944-3.322,5.286-3.322,10.766a.681.681,0,1,0,1.362,0c0-5.211,1.519-8.178,2.989-9.873a6.8,6.8,0,0,1,2.841-2.1.681.681,0,0,0-.218-1.334Z" transform="translate(-514.59 -875.705)"/></g><g transform="translate(49.001 157.491)"><path class="f" d="M474,889.932a.682.682,0,0,0-.566.288l-2.093,2.864a.681.681,0,1,0,1.1.8l2.093-2.866a.681.681,0,0,0-.534-1.09Z" transform="translate(-471.201 -889.932)"/></g><g transform="translate(-704.594 -181.244)"><path class="f" d="M1340.26,634.513a.615.615,0,0,0-.606.623v75.055a.615.615,0,1,0,1.229,0V635.136a.614.614,0,0,0-.624-.623Z" transform="translate(-349.71 -355.79)"/><path class="f" d="M1356.272,671.086a.615.615,0,0,0-.605.624v65.413a.615.615,0,1,0,1.229,0V671.71a.615.615,0,0,0-.624-.624Z" transform="translate(-362.216 -382.808)"/><path class="f" d="M1323.828,755.725a.615.615,0,0,0-.605.623v43.3a.615.615,0,1,0,1.229,0v-43.3a.615.615,0,0,0-.624-.623Z" transform="translate(-336.783 -445.336)"/><path class="f" d="M1390.127,837.539a.615.615,0,0,0-.606.624V860.09a.615.615,0,1,0,1.229,0V838.162a.614.614,0,0,0-.624-.624Z" transform="translate(-389.936 -505.776)"/><path class="f" d="M1371.318,755.725a.615.615,0,0,0-.605.623v43.3a.615.615,0,1,0,1.23,0v-43.3a.614.614,0,0,0-.625-.623Z" transform="translate(-373.756 -445.336)"/></g><g transform="translate(195.678 142.184)"><g transform="translate(0.668 0.67)"><path class="g" d="M967.47,676.141a6.83,6.83,0,0,1,7.049,7.91l-5.76,42.557a9.451,9.451,0,0,1-9.19,7.91H918.75a6.831,6.831,0,0,1-7.05-7.91l.088-3.228h15.143l5.672-39.329a9.45,9.45,0,0,1,9.19-7.91Z" transform="translate(-911.629 -676.141)"/></g><g transform="translate(21.839 6.856)"><path class="h" d="M1027.782,697.879a7.615,7.615,0,0,1-.039,1.723l-5.76,42.557a9.451,9.451,0,0,1-9.19,7.91H986.024l5.857-43.271a10.656,10.656,0,0,1,10.363-8.919Z" transform="translate(-986.024 -697.879)"/></g><g transform="translate(0 0)"><path class="f" d="M965.792,673.788a7.548,7.548,0,0,1,7.714,8.669l-5.761,42.557a10.085,10.085,0,0,1-9.854,8.489h-40.82a7.548,7.548,0,0,1-7.713-8.669l.088-.65a.67.67,0,1,1,1.328.18l-.088.65a6.114,6.114,0,0,0,6.385,7.148h40.82a8.817,8.817,0,0,0,8.527-7.329l5.759-42.557a6.115,6.115,0,0,0-6.385-7.15h-9.505a.67.67,0,1,1,0-1.339Z" transform="translate(-909.283 -673.788)"/></g></g><g transform="translate(183.933 117.084)"><path class="e" d="M903.169,585.589l-6.753,6.025s-3.484,1.4-7.5,3.543c-4.065,1.865-5.385,3.934-6.113,7.9l-2.848,15.516-6.758,7.557.247,1.945-5.434,5.682h13.045c.081-1.414,2.306-4.157,3.988-6.084a58.244,58.244,0,0,0,7.074-9.1V643.8h30.988v-9.873s8.7-2.307,12.242-4.85,2.81-7.761,2.81-7.761-2.942-12.642-3.878-16.255a10.9,10.9,0,0,0-3.145-5.419L919.847,591.5,913,585.589V587.3l-4.478,4.478h-2.767l-2.586-4.478Z" transform="translate(-868.012 -585.589)"/></g><g transform="translate(219.089 110.289)"><path class="i" d="M991.548,567.183v3.031l2.586,4.478H996.9l4.478-4.478v-8.5s-.225.267-.66.685c-.218.209-.489.457-.809.727s-.692.565-1.112.87-.889.618-1.4.926a18.854,18.854,0,0,1-1.684.9,18.042,18.042,0,0,1-1.952.782c-.347.116-.7.224-1.073.321S991.937,567.108,991.548,567.183Z" transform="translate(-991.548 -561.713)"/></g><g transform="translate(207.498 88.313)"><path class="i" d="M963.653,513.682c.375-.127.739-.264,1.091-.409s.692-.3,1.021-.462a18.094,18.094,0,0,0,1.83-1.035,18.956,18.956,0,0,0,1.549-1.114c.47-.375.892-.748,1.268-1.105s.7-.7.986-1.011.517-.592.705-.829c.376-.473.563-.767.563-.767a7.357,7.357,0,0,0,.93-2.9l2.879-.387a3.525,3.525,0,0,0-.94-6.987l-2.739.369-.57-4.234a9.551,9.551,0,1,0-18.931,2.547l.57,4.234a3.525,3.525,0,0,0,.948,6.985h.015c.8,4.645,2.56,8.057,7.38,7.408A10.9,10.9,0,0,0,963.653,513.682Z" transform="translate(-950.818 -484.489)"/></g><g transform="translate(198.465 82.81)"><path class="f" d="M938.952,465.248c-8.643.62-13.575,9.01-17.964,8.39s-.133,4.654,1.95,6.781c.73.858,3.185,2.521,3.844,3.705,1.83,3.291,1.8,6.468,4.555,5.927a3.171,3.171,0,0,0,.4-.14l-.8-5.876h-.007l-.258-1.914s.5-.109,2.1-.324l12.167-1.638s1.834-.416,2.335.8a1.381,1.381,0,0,1,.1.335l.695,5.486a3.071,3.071,0,0,0,3.945-3.708c-.023-.085-.051-.169-.081-.252,0,0,1.412-6.877.88-9.8a4.67,4.67,0,0,0-3.5-3.546C948.771,465.721,944.778,464.836,938.952,465.248Z" transform="translate(-919.076 -465.155)"/></g><g transform="translate(205.786 136.67)"><path class="f" d="M945.448,654.413a.67.67,0,0,0-.55,1.013l1.381,2.392v28.2a.67.67,0,1,0,1.34,0V657.637a.666.666,0,0,0-.09-.335l-1.47-2.546A.67.67,0,0,0,945.448,654.413Z" transform="translate(-944.804 -654.412)"/></g><g transform="translate(224.903 124.625)"><path class="f" d="M1012.644,612.088a.67.67,0,0,0-.551,1.048l4.08,6.127a.669.669,0,0,0,1.1.021l4.233-5.847a.67.67,0,1,0-1.085-.786l-3.669,5.066-3.545-5.323A.669.669,0,0,0,1012.644,612.088Z" transform="translate(-1011.977 -612.088)"/></g><g transform="translate(211.662 122.43)"><path class="f" d="M966.093,604.375a.67.67,0,0,0-.549,1.014l4.813,8.319a.67.67,0,0,0,1.137.037l4.08-6.127a.67.67,0,1,0-1.115-.742l-3.483,5.229-4.273-7.387A.668.668,0,0,0,966.093,604.375Z" transform="translate(-965.449 -604.375)"/></g><g transform="translate(220.536 124.633)"><path class="f" d="M997.326,612.116a.67.67,0,1,0,0,1.339h4.348a.67.67,0,1,0,0-1.339Z" transform="translate(-996.633 -612.115)"/></g><g transform="translate(214.72 113.819)"><path class="f" d="M987.141,574.116a.67.67,0,0,0-.464.194,11.848,11.848,0,0,1-5.016,2.838l-.009.005a16.757,16.757,0,0,1-2.259.355,6.211,6.211,0,0,1-2.248-.4.67.67,0,1,0-.512,1.237,6.737,6.737,0,0,0,2.867.5,17.608,17.608,0,0,0,2.465-.388h.006a13.181,13.181,0,0,0,5.642-3.179.671.671,0,0,0-.471-1.16Z" transform="translate(-976.197 -574.116)"/></g><g transform="translate(212.813 103.956)"><path class="f" d="M972.052,539.458a.717.717,0,0,0-.114.006l-1.861.251a.67.67,0,1,0,.178,1.328l1.861-.25a.67.67,0,0,0-.064-1.335Z" transform="translate(-969.496 -539.457)"/></g><g transform="translate(237.689 139.236)"><path class="f" d="M1057.592,663.429a.67.67,0,0,0-.66.853l2.673,9.976-2.076,1.423a.67.67,0,1,0,.758,1.1l2.467-1.689a.669.669,0,0,0,.268-.726l-2.8-10.435A.671.671,0,0,0,1057.592,663.429Z" transform="translate(-1056.907 -663.429)"/></g><g transform="translate(219.321 189.477)"><path class="f" d="M993.038,839.971a.67.67,0,1,0,0,1.34h25.92a.67.67,0,1,0,0-1.34Z" transform="translate(-992.363 -839.971)"/></g><g transform="translate(213.969 103.948)"><path class="f" d="M974.944,539.43a.67.67,0,0,0-.675.593l-.706,5.491a.67.67,0,0,0,.754.75l2.34-.314a.67.67,0,1,0-.179-1.328l-1.475.2.6-4.625a.669.669,0,0,0-.655-.764Z" transform="translate(-973.557 -539.43)"/></g><g transform="translate(182.802 157.42)"><path class="f" d="M864.04,735.153h15.381C877.624,725.164,865.554,724.276,864.04,735.153Z" transform="translate(-864.04 -727.325)"/></g><g transform="translate(181.162 159.079)"><path class="i" d="M858.276,739.324H871.8C870.379,731.452,859.47,730.752,858.276,739.324Z" transform="translate(-858.276 -733.155)"/></g><g transform="translate(37.257 165.249)"><path class="h" d="M609.422,754.834a2.184,2.184,0,0,1,2.361,1.961v6.6H352.613v-6.6a2.184,2.184,0,0,1,2.361-1.961Z" transform="translate(-352.613 -754.834)"/></g><g transform="translate(37.258 173.812)"><rect class="g" width="259.169" height="3.613" transform="translate(0 0)"/></g><g transform="translate(33.935 176.755)"><path class="f" d="M251.61,795.267a.67.67,0,1,0,0,1.34H604.819a.67.67,0,1,0,0-1.34Z" transform="translate(-340.938 -795.267)"/></g><g transform="translate(266.132 156.131)"><path class="d" d="M1174.42,722.794V726.9a5,5,0,0,0,5.011,5.011h3.2a5,5,0,0,0,5.011-5.011v-4.107Z" transform="translate(-1174.42 -722.794)"/></g><g transform="translate(265.467 164.579)"><path class="f" d="M1172.752,752.479a.67.67,0,0,0,0,1.34h12.788a.67.67,0,1,0,0-1.34Z" transform="translate(-1172.082 -752.479)"/></g><g transform="translate(266.432 145.625)"><path class="f" d="M1177.368,685.88a1.879,1.879,0,0,0-1.663,1.145,2.462,2.462,0,0,0,0,2.078,1.879,1.879,0,0,0,1.663,1.145.67.67,0,1,0,0-1.34c-.14,0-.318-.091-.447-.369a1.213,1.213,0,0,1,0-.948c.129-.277.308-.369.447-.369a.67.67,0,1,0,0-1.341Z" transform="translate(-1175.475 -685.88)"/></g><g transform="translate(267.649 148.652)"><path class="f" d="M1180.426,696.516a.67.67,0,1,0,0,1.34c.139,0,.318.091.447.369a1.214,1.214,0,0,1,0,.949c-.129.277-.308.369-.447.369a.67.67,0,1,0,0,1.34,1.88,1.88,0,0,0,1.663-1.144,2.465,2.465,0,0,0,0-2.078A1.881,1.881,0,0,0,1180.426,696.516Z" transform="translate(-1179.75 -696.516)"/></g><g transform="translate(270.922 145.625)"><path class="f" d="M1193.143,685.88a1.879,1.879,0,0,0-1.662,1.145,2.464,2.464,0,0,0,0,2.078,1.879,1.879,0,0,0,1.662,1.145.67.67,0,1,0,0-1.34c-.139,0-.318-.091-.447-.369a1.208,1.208,0,0,1,0-.948c.128-.277.308-.369.447-.369a.67.67,0,1,0,0-1.341Z" transform="translate(-1191.251 -685.88)"/></g><g transform="translate(272.138 148.652)"><path class="f" d="M1196.2,696.516a.67.67,0,1,0,0,1.34c.139,0,.318.091.447.369a1.213,1.213,0,0,1,0,.949c-.129.277-.308.369-.447.369a.67.67,0,1,0,0,1.34,1.878,1.878,0,0,0,1.662-1.144,2.466,2.466,0,0,0,0-2.078A1.879,1.879,0,0,0,1196.2,696.516Z" transform="translate(-1195.526 -696.516)"/></g><g transform="translate(275.515 145.625)"><path class="f" d="M1209.283,685.88a1.88,1.88,0,0,0-1.663,1.145,2.464,2.464,0,0,0,0,2.078,1.879,1.879,0,0,0,1.663,1.145.67.67,0,1,0,0-1.34c-.139,0-.318-.091-.447-.369a1.209,1.209,0,0,1,0-.948c.129-.277.308-.369.447-.369a.67.67,0,1,0,0-1.341Z" transform="translate(-1207.391 -685.88)"/></g><g transform="translate(276.732 148.652)"><path class="f" d="M1212.343,696.516a.67.67,0,1,0,0,1.34c.139,0,.318.091.447.369a1.212,1.212,0,0,1,0,.949c-.129.277-.308.369-.447.369a.67.67,0,1,0,0,1.34,1.88,1.88,0,0,0,1.663-1.144,2.466,2.466,0,0,0,0-2.078A1.88,1.88,0,0,0,1212.343,696.516Z" transform="translate(-1211.667 -696.516)"/></g><g transform="translate(207.894 160.451)"><path class="f" d="M957.485,737.977a7.475,7.475,0,0,1,3.494,1.117l.522,3.68h-9.29a5.381,5.381,0,0,1,5.1-4.8Z" transform="translate(-952.211 -737.977)"/></g><g transform="translate(212.257 158.268)"><path class="i" d="M975.218,730.3a10.883,10.883,0,0,1,5.084,1.626l.758,5.355H967.542a7.832,7.832,0,0,1,7.417-6.98Z" transform="translate(-967.542 -730.303)"/></g><g transform="translate(225.017 158.586)"><path class="f" d="M1012.379,732.728l.772,5.444,4-.088-.731-6.663Z" transform="translate(-1012.379 -731.421)"/></g><g transform="translate(205.421 164.579)"><path class="f" d="M944.189,752.479a.67.67,0,0,0,0,1.34h48.283a.67.67,0,0,0,0-1.34Z" transform="translate(-943.519 -752.479)"/></g><g transform="translate(127.982 101.479)"><path class="h" d="M675.414,530.756a4,4,0,0,0-4,4v44.6a4,4,0,0,0,4,4h55.518a4,4,0,0,0,4-4v-44.6a4,4,0,0,0-4-4Z" transform="translate(-671.41 -530.756)"/></g><g transform="translate(139.145 131.571)"><path class="h" d="M720.512,636.495a3.254,3.254,0,0,0-3.021,2.377l-6.76,28.923c-.319,1.317.135,2.377,1.49,2.377h25.638v-.941a3.64,3.64,0,0,0-3.648-3.648h-7.7l6.224-26.711a1.831,1.831,0,0,0-1.87-2.377Z" transform="translate(-710.634 -636.495)"/></g><g transform="translate(127.312 144.019)"><path class="f" d="M669.715,680.235a.67.67,0,0,0-.659.68v5.38a4.678,4.678,0,0,0,4.674,4.674.67.67,0,1,0,0-1.339A3.313,3.313,0,0,1,670.4,686.3v-5.38a.671.671,0,0,0-.681-.68Z" transform="translate(-669.056 -680.235)"/></g><g transform="translate(127.313 100.809)"><path class="f" d="M673.73,528.4a4.679,4.679,0,0,0-4.674,4.675V572.29a.67.67,0,0,0,1.34,0V533.075a3.312,3.312,0,0,1,3.334-3.334.67.67,0,1,0,0-1.341Z" transform="translate(-669.056 -528.4)"/></g><g transform="translate(175.955 162.093)"><path class="f" d="M839.98,746.9h28.459c.108-2.76-1.7-3.148-3.648-3.156H842.705C840.928,743.744,839.98,745.219,839.98,746.9Z" transform="translate(-839.98 -743.744)"/></g><g transform="translate(68.192 134.064)"><path class="g" d="M9.348,0h1.066a9.349,9.349,0,0,1,9.349,9.349V21.836a9.349,9.349,0,0,1-9.349,9.349H9.348A9.348,9.348,0,0,1,0,21.837V9.348A9.348,9.348,0,0,1,9.348,0Z" transform="translate(0)"/></g><g transform="translate(79.467 134.064)"><rect class="h" width="19.763" height="31.185"/></g><g transform="translate(87.955 134.064)"><path class="g" d="M9.348,0h1.067a9.348,9.348,0,0,1,9.348,9.348V21.836a9.349,9.349,0,0,1-9.349,9.349H9.349A9.349,9.349,0,0,1,0,21.836V9.348A9.348,9.348,0,0,1,9.348,0Z" transform="translate(0)"/></g><g transform="translate(99.23 134.064)"><rect class="h" width="19.763" height="31.185" transform="translate(0)"/></g><g transform="translate(63.448 164.579)"><path class="f" d="M445.313,752.479a.67.67,0,1,0,0,1.34h58.133a.67.67,0,0,0,0-1.34Z" transform="translate(-444.643 -752.479)"/></g><g transform="translate(70.562 154.295)"><path class="d" d="M475.406,719.227a2.881,2.881,0,1,1-.844-2.038A2.882,2.882,0,0,1,475.406,719.227Z" transform="translate(-469.642 -716.345)"/></g><g transform="translate(90.359 154.295)"><path class="d" d="M544.97,719.227a2.881,2.881,0,1,1-.844-2.038A2.882,2.882,0,0,1,544.97,719.227Z" transform="translate(-539.206 -716.345)"/></g><g transform="translate(70.848 139.373)"><path class="h" d="M3.223,0h0A3.223,3.223,0,0,1,6.45,3.223v.449A3.225,3.225,0,0,1,3.225,6.9h0A3.225,3.225,0,0,1,0,3.673V3.223A3.223,3.223,0,0,1,3.223,0Z" transform="translate(0 0)"/></g><g transform="translate(90.376 139.373)"><path class="h" d="M3.224,0h0A3.224,3.224,0,0,1,6.45,3.224v.449A3.225,3.225,0,0,1,3.225,6.9h0A3.225,3.225,0,0,1,0,3.672V3.224A3.224,3.224,0,0,1,3.224,0Z" transform="translate(0 0)"/></g><g transform="translate(98.56 133.385)"><path class="f" d="M568.682,642.868a.669.669,0,0,0-.659.679v31.184a.67.67,0,1,0,1.34,0V643.547a.67.67,0,0,0-.68-.679Z" transform="translate(-568.023 -642.868)"/></g><g transform="translate(173.396 147.684)"><path class="f" d="M833.6,694.423a1.309,1.309,0,1,1-1.309-1.309A1.309,1.309,0,0,1,833.6,694.423Z" transform="translate(-830.987 -693.114)"/></g><g transform="translate(177.676 147.684)"><path class="f" d="M848.644,694.423a1.309,1.309,0,1,1-1.309-1.309A1.309,1.309,0,0,1,848.644,694.423Z" transform="translate(-846.026 -693.114)"/></g><g transform="translate(138.471 130.898)"><path class="f" d="M718.817,634.134a.674.674,0,0,0-.243.043,3.813,3.813,0,0,0-3.327,2.615.664.664,0,0,0-.1.236l-.719,3.08-6.041,25.844v-.007a2.947,2.947,0,0,0,.185,2.171,2.2,2.2,0,0,0,1.955,1.034h25.637a.67.67,0,0,0,.67-.671v-.94a4.324,4.324,0,0,0-4.318-4.319h-6.853L727,657.462a.67.67,0,1,0-1.3-.3l-1.508,6.475a.67.67,0,0,0,.055.622c.012.019.025.036.039.054l.029.033a.67.67,0,0,0,.61.219h7.59a2.957,2.957,0,0,1,2.978,2.978v.271H710.523c-.5,0-.664-.132-.789-.354a1.749,1.749,0,0,1-.05-1.2v-.005l6.041-25.845.715-3.069v-.005a2.672,2.672,0,0,1,2.37-1.865h10.356a1.167,1.167,0,0,1,1.219,1.549v.006l-.006.012-.716,3.072-1.127,4.838a.67.67,0,1,0,1.3.305l1.127-4.839.716-3.071v-.007h0v-.005a.664.664,0,0,0,.009-.283,2.334,2.334,0,0,0-2.244-2.855.662.662,0,0,0-.286-.061Z" transform="translate(-708.264 -634.131)"/></g></g></g><path class="j" d="M410.139,2856.773h94.328a7.519,7.519,0,0,0,7.519-7.52l.033-96.735A7.519,7.519,0,0,0,504.5,2745H415.684" transform="translate(819.98 -2522.5)"/><path class="k" d="M1849.817-131.5h-30.322" transform="translate(-619 354)"/><path class="k" d="M1821.735-131.5h-2.241" transform="translate(-625.919 354)"/><g transform="translate(23)"><g transform="translate(1017.766 222.5)"><path class="f" d="M1148.391,300.422a.417.417,0,0,1,.411.423v41.6a.417.417,0,0,1-.417.417h-38.865a.417.417,0,1,1,0-.834h38.448V300.844A.416.416,0,0,1,1148.391,300.422Z" transform="translate(-1109.104 -300.422)"/></g><g transform="translate(1011.407 223.336)"><path class="h" d="M1173.827,305.143a38.45,38.45,0,0,0-14.654,2.767v35.542h14.654Zm-18.252,4.472c-18.638,10.107-23.79,33.838-23.79,33.838h23.79Z" transform="translate(-1131.785 -305.143)"/></g><g transform="translate(1034.723 229.901)"><path class="f" d="M1233.259,342.225a.417.417,0,0,1,.411.423v34.194a.417.417,0,1,1-.834,0V342.648a.417.417,0,0,1,.423-.423Z" transform="translate(-1232.836 -342.225)"/></g><g transform="translate(1015.655 245.623)"><path class="f" d="M1150.494,431.018a.417.417,0,1,1,0,.834h-40.974a.417.417,0,1,1,0-.834Z" transform="translate(-1109.102 -431.018)"/></g></g></g></svg>