<svg xmlns="http://www.w3.org/2000/svg" width="770.714" height="309.468" viewBox="0 0 770.714 309.468">
  <g id="Group_6030" data-name="Group 6030" transform="translate(-619.613 -449.905)">
    <rect id="Rectangle_1643" data-name="Rectangle 1643" width="32" height="66" transform="translate(1293.625 662.706)" fill="#51beff"/>
    <rect id="Rectangle_1644" data-name="Rectangle 1644" width="31" height="129" transform="translate(1340.625 620.706)" fill="#2b7ef9"/>
    <rect id="Rectangle_1642" data-name="Rectangle 1642" width="32" height="59" transform="translate(1246.625 674.706)" fill="#51beff"/>
    <ellipse id="Ellipse_63" data-name="Ellipse 63" cx="337.819" cy="7.28" rx="337.819" ry="7.28" transform="translate(714.689 744.813)" opacity="0.09"/>
    <rect id="Rectangle_1618" data-name="Rectangle 1618" width="79.205" height="28.683" rx="4" transform="translate(1036.408 628.626)" fill="#dce4ed"/>
    <rect id="Rectangle_1619" data-name="Rectangle 1619" width="79.205" height="28.683" rx="4" transform="translate(1036.408 593.044)" fill="#c4cfe0"/>
    <g id="Group_5543" data-name="Group 5543" transform="translate(1043.251 601.488)">
      <ellipse id="Ellipse_64" data-name="Ellipse 64" cx="5.897" cy="5.897" rx="5.897" ry="5.897" transform="translate(0 0)" fill="#fff"/>
      <g id="Group_5542" data-name="Group 5542" transform="translate(17.035 0.655)">
        <rect id="Rectangle_1620" data-name="Rectangle 1620" width="48.484" height="2.912" rx="1.456" fill="#fff"/>
        <rect id="Rectangle_1621" data-name="Rectangle 1621" width="35.307" height="2.912" rx="1.456" transform="translate(0 7.571)" fill="#fff"/>
      </g>
    </g>
    <rect id="Rectangle_1622" data-name="Rectangle 1622" width="79.205" height="28.683" rx="4" transform="translate(1036.408 558.001)" fill="#c4cfe0"/>
    <g id="Group_5546" data-name="Group 5546" transform="translate(1043.251 566.446)">
      <ellipse id="Ellipse_65" data-name="Ellipse 65" cx="5.897" cy="5.897" rx="5.897" ry="5.897" transform="translate(0 0)" fill="#fff"/>
      <g id="Group_5545" data-name="Group 5545" transform="translate(17.035 0.655)">
        <rect id="Rectangle_1623" data-name="Rectangle 1623" width="48.484" height="2.912" rx="1.456" fill="#fff"/>
        <rect id="Rectangle_1624" data-name="Rectangle 1624" width="35.307" height="2.912" rx="1.456" transform="translate(0 7.571)" fill="#fff"/>
      </g>
    </g>
    <rect id="Rectangle_1637" data-name="Rectangle 1637" width="98.664" height="35.729" rx="4" transform="translate(1053.635 615.813)" fill="#2b7ef9"/>
    <g id="Group_5562" data-name="Group 5562" transform="translate(1062.16 626.333)">
      <ellipse id="Ellipse_70" data-name="Ellipse 70" cx="7.345" cy="7.345" rx="7.345" ry="7.345" fill="#fff"/>
      <g id="Group_5561" data-name="Group 5561" transform="translate(21.22 0.816)">
        <rect id="Rectangle_1638" data-name="Rectangle 1638" width="60.396" height="3.627" rx="1.667" fill="#fff"/>
        <rect id="Rectangle_1639" data-name="Rectangle 1639" width="43.982" height="3.627" rx="1.667" transform="translate(0 9.431)" fill="#fff"/>
      </g>
    </g>
    <path id="Path_13815" data-name="Path 13815" d="M497.333,514.857V455.311A12.168,12.168,0,0,1,509.5,443.144h51.814" transform="translate(626.228 103.782)" fill="none" stroke="#2b7ef9" stroke-miterlimit="10" stroke-width="1.5"/>
    <path id="Path_13837" data-name="Path 13837" d="M280.381,556.263H237.928a9.427,9.427,0,0,1-9.428-9.427v-30.79" transform="translate(660.212 57.002)" fill="none" stroke="#c4cfe0" stroke-miterlimit="10" stroke-width="1.5"/>
    <rect id="Rectangle_1641" data-name="Rectangle 1641" width="40.767" height="40.767" rx="5" transform="translate(1158.516 526.543)" fill="#2b7ef9"/>
    <path id="Path_13838" data-name="Path 13838" d="M588.46,445.731a6.061,6.061,0,1,0-5.4,0,10.87,10.87,0,0,0-8.168,10.527h21.732A10.87,10.87,0,0,0,588.46,445.731Z" transform="translate(593.138 101.673)" fill="#fff"/>
    <rect id="Rectangle_1628" data-name="Rectangle 1628" width="79.205" height="28.683" rx="4" transform="translate(940.592 592.809)" fill="#c4cfe0"/>
    <g id="Group_5552" data-name="Group 5552" transform="translate(947.435 601.254)">
      <ellipse id="Ellipse_67" data-name="Ellipse 67" cx="5.897" cy="5.897" rx="5.897" ry="5.897" transform="translate(0)" fill="#fff"/>
      <g id="Group_5551" data-name="Group 5551" transform="translate(17.035 0.655)">
        <rect id="Rectangle_1629" data-name="Rectangle 1629" width="48.484" height="2.912" rx="1.456" fill="#fff"/>
        <rect id="Rectangle_1630" data-name="Rectangle 1630" width="35.307" height="2.912" rx="1.456" transform="translate(0 7.571)" fill="#fff"/>
      </g>
    </g>
    <g id="Group_5550" data-name="Group 5550" transform="translate(940.592 557.866)">
      <rect id="Rectangle_1625" data-name="Rectangle 1625" width="79.205" height="28.683" rx="4" transform="translate(0 0)" fill="#c4cfe0"/>
      <g id="Group_5549" data-name="Group 5549" transform="translate(6.843 8.445)">
        <ellipse id="Ellipse_66" data-name="Ellipse 66" cx="5.897" cy="5.897" rx="5.897" ry="5.897" fill="#2b7ef9"/>
        <g id="Group_5548" data-name="Group 5548" transform="translate(17.035 0.655)">
          <rect id="Rectangle_1626" data-name="Rectangle 1626" width="48.484" height="2.912" rx="1.456" fill="#fff"/>
          <rect id="Rectangle_1627" data-name="Rectangle 1627" width="35.307" height="2.912" rx="1.456" transform="translate(0 7.571)" fill="#fff"/>
        </g>
      </g>
    </g>
    <path id="Path_13834" data-name="Path 13834" d="M299.129,514.688l1.78,2.147,4.059-3.732" transform="translate(651.283 57.238)" fill="none" stroke="#fff" stroke-miterlimit="10" stroke-width="1.5"/>
    <g id="Group_5556" data-name="Group 5556" transform="translate(940.592 628.626)">
      <rect id="Rectangle_1631" data-name="Rectangle 1631" width="79.205" height="28.683" rx="4" transform="translate(0 0)" fill="#c4cfe0"/>
      <g id="Group_5555" data-name="Group 5555" transform="translate(6.843 8.445)">
        <ellipse id="Ellipse_68" data-name="Ellipse 68" cx="5.897" cy="5.897" rx="5.897" ry="5.897" fill="#2b7ef9"/>
        <g id="Group_5554" data-name="Group 5554" transform="translate(17.035 0.655)">
          <rect id="Rectangle_1632" data-name="Rectangle 1632" width="48.484" height="2.912" rx="1.456" fill="#fff"/>
          <rect id="Rectangle_1633" data-name="Rectangle 1633" width="35.307" height="2.912" rx="1.456" transform="translate(0 7.571)" fill="#fff"/>
        </g>
      </g>
    </g>
    <path id="Path_13835" data-name="Path 13835" d="M299.129,606.025l1.78,2.147,4.059-3.732" transform="translate(651.283 36.662)" fill="none" stroke="#fff" stroke-miterlimit="10" stroke-width="1.5"/>
    <g id="Group_5559" data-name="Group 5559" transform="translate(940.592 663.569)">
      <rect id="Rectangle_1634" data-name="Rectangle 1634" width="79.205" height="28.683" rx="4" transform="translate(0 0)" fill="#c4cfe0"/>
      <g id="Group_5558" data-name="Group 5558" transform="translate(6.843 8.445)">
        <ellipse id="Ellipse_69" data-name="Ellipse 69" cx="5.897" cy="5.897" rx="5.897" ry="5.897" fill="#2b7ef9"/>
        <g id="Group_5557" data-name="Group 5557" transform="translate(17.035 0.655)">
          <rect id="Rectangle_1635" data-name="Rectangle 1635" width="48.484" height="2.912" rx="1.456" fill="#fff"/>
          <rect id="Rectangle_1636" data-name="Rectangle 1636" width="35.307" height="2.912" rx="1.456" transform="translate(0 7.571)" fill="#fff"/>
        </g>
      </g>
    </g>
    <path id="Path_13836" data-name="Path 13836" d="M299.129,651.785l1.78,2.147,4.059-3.732" transform="translate(651.283 25.925)" fill="none" stroke="#fff" stroke-miterlimit="10" stroke-width="1.5"/>
    <path id="Path_13817" data-name="Path 13817" d="M453.165,724.984c-.468.187.529,4.777.641,5.2.337,1.262.815,2.752,2.14,3.27,1.887.736,3.988.222,5.943.219s3.887,0,5.83.034c0,0,5.326,0-5.18-3.653a3.852,3.852,0,0,1-2.517-2.919l-.864-4.547Z" transform="translate(613.93 22.251)" fill="#414551"/>
    <path id="Path_13818" data-name="Path 13818" d="M387.677,717.57s-10.274,8.733-4.795,9.589A30.345,30.345,0,0,0,395.9,731.1s1.541-.724-4.623-4.643,3.253-4.432,3.253-4.432Z" transform="translate(631.814 23.501)" fill="#414551"/>
    <path id="Path_13819" data-name="Path 13819" d="M419.029,649.46l-.868,9.072-.822,8.584-.354,3.688-1.038,10.829c-.837,5.676-6.791,12.169-12.046,16.906a97.071,97.071,0,0,1-8.332,6.724L388.89,700.3l12.164-13.2a13.152,13.152,0,0,0,3.005-5.368c2.352-8.379,1.905-18.463,1.135-25.357-.519-4.7-1.192-7.921-1.233-8.116,1.5,1.726,9.832,1.495,13.423,1.309C418.392,649.506,419.029,649.46,419.029,649.46Z" transform="translate(629.916 40.775)" fill="#456ce2"/>
    <path id="Path_13820" data-name="Path 13820" d="M420.948,678.289l-1.038,10.83c-.837,5.676-6.791,12.169-12.046,16.906-.591.293-1.207.586-1.845.863,0,0-5.2-2.352,5.846-11.425a10.344,10.344,0,0,0,3.421-5.347C416.315,686.226,418.309,680.036,420.948,678.289Z" transform="translate(625.952 33.29)" fill="#7f8af6"/>
    <path id="Path_13821" data-name="Path 13821" d="M423.163,658.532l-.523,5.459-12.848-10.838c-.519-4.7-.788-4.705-.828-4.9,1.5,1.726,9.832,1.495,13.423,1.309Z" transform="translate(624.914 40.775)" fill="#4b57bd"/>
    <path id="Path_13822" data-name="Path 13822" d="M451.732,704.746s-1.885,3.765-7.88,2.394l-.339-2.055c-5.481-27.909-25.346-55.628-25.346-55.628a75.074,75.074,0,0,0,9.329.138,26.58,26.58,0,0,0,6.781-1.094c.237-.083.457-.17.673-.262,0,0,.036.051.1.154,1.285,1.968,14.466,22.865,16.536,53.718C451.64,702.979,451.692,703.857,451.732,704.746Z" transform="translate(622.62 40.778)" fill="#456ce2"/>
    <path id="Path_13823" data-name="Path 13823" d="M454.653,702.162c-.832.519-6.938-6.271-12.932-28.874-5.8-21.871-10.4-22.348-11.156-23.643-.056-.092-.082-.138-.082-.138l6.863-.956.77-.108C439.4,650.412,452.583,671.309,454.653,702.162Z" transform="translate(619.551 40.727)" fill="#7f8af6"/>
    <path id="Path_13824" data-name="Path 13824" d="M425.913,603.44l1.2,3.771-9.483,1.778s2.974-4.511,2.291-5.548c-.21-.324-.36-.55-.462-.7l-.221-.334s-6.509-12.488,6.678-9.236a.313.313,0,0,1,.026.031C426.37,593.674,432.011,600.147,425.913,603.44Z" transform="translate(622.755 54.638)" fill="#ff9569"/>
    <path id="Path_13825" data-name="Path 13825" d="M425.816,597.347H423.5c-3.082,1.346.318,3.56.318,3.56l-.472,1.161c-2.908-.7-3.421.863-3.421.863l-.472-.2-.221-.334s-6.509-12.488,6.678-9.236a.316.316,0,0,1,.026.031l-.123.1C423.951,593.623,425.816,597.347,425.816,597.347Z" transform="translate(622.755 54.638)" fill="#41424c"/>
    <path id="Path_13826" data-name="Path 13826" d="M382.184,641.576c.055.317-4.95-.245-5.434-.378-1.852-.51-3.478-1.047-4.647-2.6-.58-.773-1.678-4.026.561-3.408.571.158,1.007,1.174,1.469,1.571.28.24.99.52,1.174.824,0,0-1.284-2.119.56-1.156a20.4,20.4,0,0,0,3.678,1.456Z" transform="translate(634.296 44.05)" fill="#ff9569"/>
    <path id="Path_13827" data-name="Path 13827" d="M404,616.714l-.626,11.841s1.2,2.743-5.138,5.651a31.248,31.248,0,0,1-10.69,2.214,51.3,51.3,0,0,1-5.748.016c-3.252-2.055,0-4.454,0-4.454l13.7-3.765c3.939-11.132,8.733-15.924,8.733-15.924Z" transform="translate(632.045 49.737)" fill="#3dd0c0"/>
    <path id="Path_13828" data-name="Path 13828" d="M405.758,630.023s1.2,2.743-5.138,5.651a31.247,31.247,0,0,1-10.69,2.214v-.005c1.68-3.673,3.9-.38,9.75-3.462s3.853-5.446,4.536-9.941,2.168-6.3,2.168-6.3Z" transform="translate(629.657 48.269)" fill="#2fada9"/>
    <path id="Path_13829" data-name="Path 13829" d="M430.022,617.4c4.28,24.487,2.809,21.074,2.809,21.074-18.166,4.666-23.872.5-23.872.5l2.4-27.569s1.884-2.569,16.781-2.4Z" transform="translate(624.915 50.557)" fill="#3dd0c0"/>
    <path id="Path_13830" data-name="Path 13830" d="M435.846,620.665l2.534,14.312c-2.054-.342-3.264-5.147-3.264-5.147-5.65-4.452-2.055-9.418-2.055-9.418Z" transform="translate(619.19 47.713)" fill="#2fada9"/>
    <path id="Path_13831" data-name="Path 13831" d="M462.862,584.044a4.434,4.434,0,0,0,.276-2.866c-.133-.362-.529-.819-.526-1.213s-.09-.508.553-.359a2.919,2.919,0,0,1,1.2,1.068c.634-.785,1.1-1.354,1.684-2.177.413-.584.9-1.134,1.391-1.776.241-.314,1.242-1.306,1.242-.281a5.324,5.324,0,0,1-1.553,2.819c.415-.185,1.407-.253,1.445.2a2.142,2.142,0,0,1-.751,1.431c.181-.189.563-.054.761.034a.591.591,0,0,1,.414.757,5.5,5.5,0,0,1-1.2,2.006c-.262.313-.538.613-.819.91a7.227,7.227,0,0,1-.778.817Z" transform="translate(611.545 58.784)" fill="#ff9569"/>
    <path id="Path_13832" data-name="Path 13832" d="M459.225,586.765a19.885,19.885,0,0,1-.324,2.255.18.18,0,0,0-.005.025,72.976,72.976,0,0,1-4.372,12.9,11.491,11.491,0,0,1-5.6,5.882c-.966.457-1.947.874-2.928,1.249a61.3,61.3,0,0,1-13.484,3.375l-1.885-9.251c4.982.241,12.143-1.495,15.678-2.461a4.63,4.63,0,0,0,3-2.594l5.461-12.406A6.939,6.939,0,0,1,459.225,586.765Z" transform="translate(619.515 56.358)" fill="#3dd0c0"/>
    <path id="Path_13833" data-name="Path 13833" d="M464.307,587.132c-.016.124-.134.961-.318,2.24a.177.177,0,0,0-.005.025,72.98,72.98,0,0,1-4.372,12.9,11.491,11.491,0,0,1-5.6,5.882c-.966.457-1.947.874-2.928,1.249-.159-1.074.031-2.825,2.225-4.372C456.714,602.656,464.045,587.667,464.307,587.132Z" transform="translate(614.428 56.006)" fill="#2fada9"/>
    <rect id="Rectangle_1647" data-name="Rectangle 1647" width="12.658" height="8.439" rx="3" transform="translate(836.825 654.724) rotate(-43)" fill="#1767d1"/>
    <g id="Group_6029" data-name="Group 6029" transform="translate(732.537 626.386)">
      <path id="Path_13785" data-name="Path 13785" d="M331.057,706.972H211l19.219-6.989s-13.1-30.575,3.058-30.139a13.185,13.185,0,0,1,8.3,2.621s.655-25.771,13.977-25.989S276.8,669.844,276.8,669.844s10.261-10.808,22.387-9.076c8.662,1.155,11.542,12.573,14.992,16.591.116.134,13.992-6.293,18.211,1.11s-1.333,28.5-1.333,28.5" transform="translate(-211 -581.505)" fill="#97ffb6"/>
      <path id="Path_13855" data-name="Path 13855" d="M331.057,706.972H211l19.219-6.989s-13.1-30.575,3.058-30.139a13.185,13.185,0,0,1,8.3,2.621s.655-25.771,13.977-25.989S276.8,669.844,276.8,669.844s10.261-10.808,22.387-9.076c8.662,1.155,11.542,12.573,14.992,16.591.116.134,13.992-6.293,18.211,1.11s-1.333,28.5-1.333,28.5" transform="translate(-129.757 -581.505)" fill="#97ffb6"/>
      <rect id="Rectangle_1645" data-name="Rectangle 1645" width="12" height="13" transform="translate(103.088 2.32)" fill="#1767d1"/>
      <rect id="Rectangle_1646" data-name="Rectangle 1646" width="30" height="10" rx="2" transform="translate(94.088 0.32)" fill="#2680eb"/>
      <g id="Group_5567" data-name="Group 5567" transform="translate(52.315 13.649)">
        <circle id="Ellipse_16" data-name="Ellipse 16" cx="56.5" cy="56.5" r="56.5" transform="translate(-0.228 -0.329)" fill="#2680eb"/>
        <ellipse id="Ellipse_17" data-name="Ellipse 17" cx="51.249" cy="51.249" rx="51.249" ry="51.249" transform="translate(5.086 5.178)" fill="#cee9ff"/>
        <ellipse id="Ellipse_18" data-name="Ellipse 18" cx="51.784" cy="51.784" rx="51.784" ry="51.784" transform="translate(4.551 4.644)" fill="#fff"/>
        <g id="Group_318" data-name="Group 318" transform="translate(12.327 12.42)">
          <g id="Group_314" data-name="Group 314" transform="translate(42.688 0)">
            <rect id="Rectangle_1418" data-name="Rectangle 1418" width="2.484" height="8.382" rx="1.242" fill="#373449"/>
            <rect id="Rectangle_1419" data-name="Rectangle 1419" width="2.484" height="8.382" rx="1.242" transform="translate(0.155 79.633)" fill="#373449"/>
          </g>
          <g id="Group_315" data-name="Group 315" transform="translate(0 42.688)">
            <rect id="Rectangle_1420" data-name="Rectangle 1420" width="2.484" height="8.382" rx="1.242" transform="translate(88.015 0) rotate(90)" fill="#373449"/>
            <rect id="Rectangle_1421" data-name="Rectangle 1421" width="2.484" height="8.382" rx="1.242" transform="translate(8.382 0.155) rotate(90)" fill="#373449"/>
          </g>
          <g id="Group_316" data-name="Group 316" transform="translate(12.955 12.883)">
            <path id="Rectangle_1422" data-name="Rectangle 1422" d="M1.241,0h0A1.242,1.242,0,0,1,2.484,1.242v3A1.241,1.241,0,0,1,1.242,5.488h0A1.242,1.242,0,0,1,0,4.246v-3A1.241,1.241,0,0,1,1.241,0Z" transform="matrix(0.707, 0.707, -0.707, 0.707, 60.312, 0)" fill="#373449"/>
            <path id="Rectangle_1423" data-name="Rectangle 1423" d="M1.241,0h0A1.242,1.242,0,0,1,2.484,1.242V4.957A1.242,1.242,0,0,1,1.242,6.2h0A1.242,1.242,0,0,1,0,4.957V1.241A1.241,1.241,0,0,1,1.241,0Z" transform="matrix(0.707, 0.707, -0.707, 0.707, 4.384, 56.148)" fill="#373449"/>
          </g>
          <g id="Group_317" data-name="Group 317" transform="translate(12.846 12.992)">
            <path id="Rectangle_1424" data-name="Rectangle 1424" d="M1.241,0h0A1.242,1.242,0,0,1,2.484,1.242v3A1.242,1.242,0,0,1,1.242,5.488h0A1.242,1.242,0,0,1,0,4.246v-3A1.241,1.241,0,0,1,1.241,0Z" transform="matrix(-0.707, 0.707, -0.707, -0.707, 62.286, 60.312)" fill="#373449"/>
            <path id="Rectangle_1425" data-name="Rectangle 1425" d="M1.241,0h0A1.242,1.242,0,0,1,2.484,1.242V4.957A1.242,1.242,0,0,1,1.242,6.2h0A1.242,1.242,0,0,1,0,4.957V1.241A1.241,1.241,0,0,1,1.241,0Z" transform="matrix(-0.707, 0.707, -0.707, -0.707, 6.139, 4.384)" fill="#373449"/>
          </g>
        </g>
        <g id="Group_319" data-name="Group 319" transform="translate(54.946 25.601)">
          <rect id="Rectangle_1426" data-name="Rectangle 1426" width="2.742" height="31.538" rx="1.371" transform="translate(0 0)" fill="#2680eb"/>
          <rect id="Rectangle_1427" data-name="Rectangle 1427" width="2.742" height="22.625" rx="1.371" transform="translate(22.625 31.195) rotate(90)" fill="#2680eb"/>
        </g>
        <line id="Line_1" data-name="Line 1" x1="20.568" y2="18.511" transform="translate(56.489 37.77)" fill="none" stroke="#373449" stroke-linecap="round" stroke-miterlimit="10" stroke-width="2"/>
        <ellipse id="Ellipse_19" data-name="Ellipse 19" cx="4.971" cy="4.971" rx="4.971" ry="4.971" transform="translate(51.363 51.457)" fill="#1767d1"/>
      </g>
    </g>
    <path id="Path_13856" data-name="Path 13856" d="M3.518,0S-3.558,12.9,2.361,11.641a33.1,33.1,0,0,0,14.8-1.049s1.289-1.338-6.519-2.934-.731-6.34-.731-6.34Z" transform="matrix(1, -0.017, 0.017, 1, 1303.746, 651.258)" fill="#414551"/>
    <g id="Group_5576" data-name="Group 5576" transform="matrix(1, -0.017, 0.017, 1, 1254.969, 593.536)">
      <path id="Path_13857" data-name="Path 13857" d="M5.547,0C5.028-.176,1.706,5,1.706,5S-.579,7.928.14,9.3c1.024,1.96,3.12,3.043,4.729,4.443s.86.561,2.436,1.981c0,0,6.737,5.251.718-5.288a2.857,2.857,0,0,1,0-3.408l1.848-4.29Z" transform="translate(0 64.791)" fill="#414551"/>
      <path id="Path_13858" data-name="Path 13858" d="M8.2,69.811S3.946,71.555,0,66.127l1.2-1.933C16.706,37.315,21.053,0,21.053,0a36.5,36.5,0,0,0,6.772,7.08,29.066,29.066,0,0,0,6.36,3.964c.253.1.5.188.741.267,0,0-.007.068-.03.2-.355,2.539-4.5,29.176-24.932,56.029Q9.1,68.669,8.2,69.811Z" transform="translate(2.052 0)" fill="#292929"/>
      <path id="Path_13859" data-name="Path 13859" d="M.458,60.63C-.6,60.459-.749,50.5,10.535,27.614,21.454,5.471,18.012,1.778,18.319.173,18.34.057,18.351,0,18.351,0L24.68,4.137l.711.464C25.036,7.139,20.886,33.776.458,60.63Z" transform="translate(11.557 6.908)" fill="#404040"/>
    </g>
    <path id="Path_13860" data-name="Path 13860" d="M9.041,11.8l1.306,4.114L0,17.853S3.245,12.932,2.5,11.8c-.229-.353-.392-.6-.5-.768l-.242-.365S-5.348-2.958,9.041.59a.324.324,0,0,1,.028.034C9.54,1.144,15.694,8.206,9.041,11.8Z" transform="matrix(1, -0.017, 0.017, 1, 1282.363, 559.342)" fill="#ff8469"/>
    <path id="Path_13861" data-name="Path 13861" d="M4.2,2.763.089,0C-.258-.049.511,5.392.672,5.915c.615,2,1.252,3.761,2.984,4.986.861.61,4.444,1.7,3.7-.718-.19-.619-1.312-1.061-1.76-1.552a3.931,3.931,0,0,1-.3-.384A4.36,4.36,0,0,1,4.548,6.2Z" transform="matrix(1, -0.017, 0.017, 1, 1264.545, 599.679)" fill="#ff8469"/>
    <path id="Path_13862" data-name="Path 13862" d="M20.211,3.039a2.9,2.9,0,0,1-1.724,3.971c-.358.12-.753.261-1.188.425a77.74,77.74,0,0,0-7.611,3.481,2.913,2.913,0,0,0-1.549,2.119l-1.507,9.25-.641,3.962a2.835,2.835,0,0,1-.6,1.352A2.47,2.47,0,0,1,2.2,28.54a2.735,2.735,0,0,1-1.31-1.931C.7,25.53.394,23.631.2,21.36c-.317-3.629-.366-8.208.724-11.891A15.926,15.926,0,0,1,2.64,5.314C3.816,3.489,6.043,2.861,8.023,2.3c1.742-.491,3.526-.808,5.278-1.284C14.23.761,15.142.431,16.064.138a2.9,2.9,0,0,1,3.517,1.541Z" transform="matrix(1, -0.017, 0.017, 1, 1263.067, 574.846)" fill="#f2bc0a"/>
    <path id="Path_13863" data-name="Path 13863" d="M0,3.81a4.513,4.513,0,0,0,1.932-2.2c.106-.378.05-.991.287-1.314s.228-.473.67.034a2.967,2.967,0,0,1,.358,1.594c.99-.27,1.714-.461,2.684-.8.687-.237,1.416-.4,2.2-.639.385-.116,1.8-.34,1.192.505A5.42,5.42,0,0,1,6.369,2.4c.452.094,1.311.628,1.072,1.026a2.176,2.176,0,0,1-1.47.734c.262-.048.5.291.608.48a.641.641,0,0,1-.108.871c-.612.683-4.832.93-4.866.876Z" transform="matrix(1, -0.017, 0.017, 1, 1328.106, 558.762)" fill="#ff8469"/>
    <path id="Path_13864" data-name="Path 13864" d="M33.462,0,22.394,3.643A14.084,14.084,0,0,0,19.561,4.9a24.392,24.392,0,0,1-3.9,1.633C12.154,7.739,5.043,9.962,0,10.047l2.511,9.211a61.969,61.969,0,0,0,13.384-4.293c.965-.443,1.928-.928,2.872-1.452a52.927,52.927,0,0,0,6.015-4.258c4.054-2.965,5.493-5,10.65-6.032C35.432,3.223,35.027.673,33.462,0Z" transform="matrix(1, -0.017, 0.017, 1, 1295.114, 562.534)" fill="#f2bc0a"/>
    <path id="Path_13865" data-name="Path 13865" d="M11.284,5.991A78.123,78.123,0,0,0,3.6,9.507a2.762,2.762,0,0,0-1.468,2.01L.616,20.841a40.774,40.774,0,0,1-.6-8.955c.043-1.88.388-3.5,2.1-4.545A7.735,7.735,0,0,1,4.9,6.51a3.084,3.084,0,0,0,1.654-.8A11.393,11.393,0,0,0,8.338,3.173c.4-.716.776-1.451,1.123-2.2C9.543.8,9.943.2,9.9,0Z" transform="matrix(1, -0.017, 0.017, 1, 1269.106, 576.185)" fill="#dca900"/>
    <path id="Path_13866" data-name="Path 13866" d="M16.269,4.116a2.179,2.179,0,0,0-.121-.258c0,.014,0,.029,0,.043A2.3,2.3,0,0,0,12.8,2.984a2.214,2.214,0,0,0-.937-2.39A4.059,4.059,0,0,0,9.224.018,5.26,5.26,0,0,0,6.29,1.1,3.461,3.461,0,0,0,4.965,3.859a3.856,3.856,0,0,0-3.51.614A3.852,3.852,0,0,0,.009,7.728,3,3,0,0,0,.344,8.94c.007.012.016.023.023.036l0,0A4.942,4.942,0,0,0,2.8,10.834a6.538,6.538,0,0,0,.024,2.89,2.677,2.677,0,0,0,.328.679,2.069,2.069,0,0,0,1.834,1.054,2.479,2.479,0,0,0,1.887-1.6,3.387,3.387,0,0,0-.11-2.844,1.787,1.787,0,0,0,1.595-.34,2.39,2.39,0,0,0,.822-1.443.433.433,0,0,1,.138-.3.416.416,0,0,1,.324-.008,6.286,6.286,0,0,0,5.035-.971,4.391,4.391,0,0,0,1.463-1.658A2.784,2.784,0,0,0,16.269,4.116Z" transform="matrix(1, -0.017, 0.017, 1, 1279.206, 555.759)" fill="#41424c"/>
    <path id="Path_13867" data-name="Path 13867" d="M0,8.693,13.57,17.16,17.805,2.595,4.288,0,1.053,3.379Z" transform="matrix(1, -0.017, 0.017, 1, 1275.56, 600.085)" fill="#1a1a1a"/>
    <path id="Path_13868" data-name="Path 13868" d="M34.759,32.211q-1.978,4.411-3.916,8.831Q28.447,46.51,26.092,52L18.8,49.463c-.066-.025.09-.664.107-.713.508-2.728,1.237-5.431,1.876-8.135.483-1.991.639-3.924,1.311-5.89.639-1.843,1.344-3.777,1.016-5.751-.32-1.958-1.6-3.023-2.867-4.391-1.384-1.491-2.777-2.974-4.137-4.481-2.72-3.023-5.4-6.095-8.151-9.085Q3.985,6.705,0,2.417L12.345.68,17.17,0l1.5,1.868q5.136,6.39,10.281,12.771c2.015,2.5,4.416,4.735,5.964,7.578C36.749,25.567,36.282,28.819,34.759,32.211Z" transform="matrix(1, -0.017, 0.017, 1, 1284.938, 604.872)" fill="#292929"/>
    <path id="Path_13869" data-name="Path 13869" d="M23.519,32.211q-1.978,4.411-3.916,8.831c1.311-5.079,2.671-11.551,1.974-14.483C20.349,21.365,0,1.671,0,1.671L1.106.68,5.931,0l1.5,1.868q5.136,6.39,10.281,12.771c2.015,2.5,4.415,4.735,5.964,7.578C25.51,25.567,25.043,28.819,23.519,32.211Z" transform="matrix(1, -0.017, 0.017, 1, 1296.176, 604.675)" fill="#404040"/>
    <path id="Path_13870" data-name="Path 13870" d="M22.981,9.164c4.67,26.717,3.065,22.994,3.065,22.994C6.226,37.249,0,32.7,0,32.7L2.616,2.625S4.671-.178,20.926.009Z" transform="matrix(1, -0.017, 0.017, 1, 1275.498, 572.876)" fill="#f2bc0a"/>
    <path id="Path_13871" data-name="Path 13871" d="M4.243,0,6.916,16.155c-2.234-.422-3.439-5.693-3.439-5.693C-2.582,5.472,1.119.523,1.119.523Z" transform="matrix(1, -0.017, 0.017, 1, 1294.393, 581.711)" fill="#dca900"/>
    <g id="Group_6028" data-name="Group 6028" transform="translate(619.613 580.183)">
      <ellipse id="Ellipse_73" data-name="Ellipse 73" cx="31.319" cy="5.096" rx="31.319" ry="5.096" transform="translate(0 166.377)" opacity="0.09"/>
      <path id="Path_13872" data-name="Path 13872" d="M123.931,1078.809s-7.425,10.987-2.008,10.351a29.832,29.832,0,0,0,13.369.292s1.269-1.094-5.607-3.177.208-6.575.208-6.575Z" transform="translate(-106.029 -917.045)" fill="#414551"/>
      <path id="Path_13873" data-name="Path 13873" d="M149.879,1081.351s-5.956,11.848-.665,10.523a29.837,29.837,0,0,0,13.3-1.424s1.118-1.247-5.968-2.432-.637-6.547-.637-6.547Z" transform="translate(-113.113 -917.711)" fill="#414551"/>
      <path id="Path_13874" data-name="Path 13874" d="M136.17,1024.809a122.93,122.93,0,0,1-4.364,31.226q-.631,2.337-1.4,4.718c-.266.812-.532,1.632-.82,2.459,0,0-3.079,2.769-8.071-.65l.428-2c5.065-27.512.074-53.526.074-53.526s.9-4.482,5.3-3.02a26.364,26.364,0,0,0,6.6,1.44c.244.015.48.015.709.007,0,0,.015.059.037.177A96.066,96.066,0,0,1,136.17,1024.809Z" transform="translate(-106.441 -897.402)" fill="#005ca6"/>
      <g id="Group_5579" data-name="Group 5579" transform="translate(7.377)">
        <ellipse id="Ellipse_71" data-name="Ellipse 71" cx="26.485" cy="26.479" rx="26.485" ry="26.479" transform="matrix(-0.13, -0.992, 0.992, -0.13, 6.867, 59.389)" fill="#feb755"/>
        <ellipse id="Ellipse_72" data-name="Ellipse 72" cx="20.13" cy="20.125" rx="20.13" ry="20.125" transform="translate(12.027 52.017) rotate(-96.642)" fill="#fc9722"/>
        <g id="Group_5578" data-name="Group 5578" transform="translate(20.612 17.498)">
          <path id="Path_13877" data-name="Path 13877" d="M139.766,892.862a4.106,4.106,0,0,1,.579-.82,8.947,8.947,0,0,1,.971-.944,9.723,9.723,0,0,1,1.286-.911,8.584,8.584,0,0,1,1.523-.718l1.646,5.859-.506.264a25.87,25.87,0,0,0-2.528,1.6,8.16,8.16,0,0,0-1.77,1.688,4.672,4.672,0,0,0-.866,1.969,5.381,5.381,0,0,0,.181,2.438,5.833,5.833,0,0,0,1.258,2.41,5.184,5.184,0,0,0,1.983,1.351,6.91,6.91,0,0,0,2.505.442,11.211,11.211,0,0,0,2.81-.377l.835,2.972,1.471-.413-.851-3.029a14.8,14.8,0,0,0,3.65-1.9,12.663,12.663,0,0,0,2.847-2.8l-2.206-2.312a5.216,5.216,0,0,1-.7.991,10.813,10.813,0,0,1-1.172,1.153,13.258,13.258,0,0,1-1.558,1.14,11.539,11.539,0,0,1-1.855.949l-1.646-5.858q.154-.1.326-.2t.326-.2a24.781,24.781,0,0,0,2.383-1.57,6.791,6.791,0,0,0,1.556-1.582,4.324,4.324,0,0,0,.708-1.771,5.029,5.029,0,0,0-.187-2.132,6.2,6.2,0,0,0-1.173-2.327,5.6,5.6,0,0,0-1.879-1.472,6.729,6.729,0,0,0-2.393-.641,9.942,9.942,0,0,0-2.745.176l-.8-2.858-1.471.414.8,2.858a11.308,11.308,0,0,0-3.188,1.69,12.757,12.757,0,0,0-2.324,2.272Zm9.545-1.888a2.125,2.125,0,0,1-.334,2.017,8.365,8.365,0,0,1-2.239,1.759l-1.566-5.576a4.264,4.264,0,0,1,2.773.091A2.547,2.547,0,0,1,149.311,890.974Zm-5.538,11.695a2.177,2.177,0,0,1,.462-2.161,11.068,11.068,0,0,1,2.451-1.926l1.575,5.6a5.361,5.361,0,0,1-2.978.1A2.219,2.219,0,0,1,143.773,902.669Z" transform="translate(-137.591 -883.43)" fill="#ffd9a4"/>
        </g>
      </g>
      <path id="Path_13878" data-name="Path 13878" d="M129.24,932.492l.03-2.264s-5.135-2.982-3.847-3.115a14.177,14.177,0,0,1,4.41.778c.222.07-.117-.5-.169-.7-.1-.394.279-.512.715-.219a7.113,7.113,0,0,1,1.707,1.839,7.922,7.922,0,0,0-.288,3.437Z" transform="translate(-107.408 -877.282)" fill="#ff9569"/>
      <path id="Path_13879" data-name="Path 13879" d="M157.822,937.647l.469-2.215s5.665-1.779,4.439-2.192a14.149,14.149,0,0,0-4.472-.213c-.232.019.223-.461.318-.642.188-.361-.159-.56-.648-.371a7.1,7.1,0,0,0-2.07,1.417,7.926,7.926,0,0,1-.477,3.417Z" transform="translate(-115.299 -878.623)" fill="#ff9569"/>
      <path id="Path_13880" data-name="Path 13880" d="M151.688,938.355l-3.017,8.853a11.255,11.255,0,0,0-.566,2.423,19.6,19.6,0,0,1-.841,3.291c-.921,2.828-2.934,8.46-5.319,11.732l6.144,4.615a60.138,60.138,0,0,0,4.693-12.422c.183-.833.338-1.684.459-2.543a42.535,42.535,0,0,0,.18-5.913c.061-4.031-.549-5.937,1.285-9.74C154.706,938.652,152.877,937.678,151.688,938.355Z" transform="translate(-111.784 -880.239)" fill="#ff7070"/>
      <path id="Path_13881" data-name="Path 13881" d="M139.1,1032.28a122.928,122.928,0,0,1-4.364,31.226,13.215,13.215,0,0,1-.7-1.986c-1.757-6.188-1.757-11.268,0-13.572s3.692-6.276,3.692-9.74C137.725,1035.359,137.784,1032.295,139.1,1032.28Z" transform="translate(-109.37 -904.873)" fill="#146cb2"/>
      <path id="Path_13882" data-name="Path 13882" d="M131.711,932.936l.009,9.353a11.284,11.284,0,0,1-.244,2.476,19.5,19.5,0,0,0-.262,3.387c-.039,2.974.056,8.954,1.261,12.82l-6.794,3.077s-1.63-8.073-.955-13.956c.095-.847.222-1.7.384-2.555a42.536,42.536,0,0,1,1.732-5.657c1.24-3.837,2.431-5.446,1.917-9.636C128.758,932.246,130.8,931.912,131.711,932.936Z" transform="translate(-107.237 -878.69)" fill="#ff7070"/>
      <path id="Path_13883" data-name="Path 13883" d="M139.013,962.55l1.177,3.708-9.327,1.749s2.926-4.436,2.254-5.457c-.207-.318-.354-.54-.455-.692l-.217-.328s-6.4-12.282,6.568-9.084c0,0,.01.01.025.03C139.462,952.945,145.009,959.311,139.013,962.55Z" transform="translate(-108.885 -883.848)" fill="#ff9569"/>
      <path id="Path_13884" data-name="Path 13884" d="M123.062,1012.788l13.265,13.39V1003.72H123.805l-1.609,3.315Z" transform="translate(-106.618 -897.402)" fill="#08508a"/>
      <path id="Path_13885" data-name="Path 13885" d="M151.115,1063.453s-2.3,1.338-7.845-1.076a8.864,8.864,0,0,1,.4-1.81,12,12,0,0,0,.274-3.075c-.056-1.641-.129-3.279-.256-4.917-.255-3.278-.667-6.543-1.2-9.787a156.938,156.938,0,0,0-4.22-18.312q-2.142-7.368-4.865-14.551c-1.055-2.793-2.166-5.566-3.374-8.3-.152-.344-.3-.688-.464-1.029a73.71,73.71,0,0,0,8.992,1.827,26.17,26.17,0,0,0,6.753.174c.244-.037.473-.081.7-.131,0,0,.026.056.066.167.885,2.135,9.833,24.726,6.235,54.924C152.208,1058.407,151.237,1062.587,151.115,1063.453Z" transform="translate(-108.546 -896.585)" fill="#005ca6"/>
      <path id="Path_13886" data-name="Path 13886" d="M155.477,1058.153c-.9.35-5.568-7.321-7.259-30.256-1.636-22.192-6-23.488-6.493-24.877-.038-.1-.055-.148-.055-.148l6.807.322.764.036C150.126,1005.364,159.075,1027.955,155.477,1058.153Z" transform="translate(-111.712 -897.18)" fill="#146cb2"/>
      <path id="Path_13887" data-name="Path 13887" d="M142.911,976.547c4.21,24.082,2.764,20.726,2.764,20.726-17.866,4.589-23.477.493-23.477.493l2.358-27.113s1.852-2.526,16.5-2.358Z" transform="translate(-106.618 -888.132)" fill="#ff7070"/>
      <path id="Path_13888" data-name="Path 13888" d="M149.346,979.949l2.207,14.152c-2.021-.337-2.924-5.138-2.924-5.138-5.558-4.379-2.021-9.262-2.021-9.262Z" transform="translate(-112.956 -891.118)" fill="#fe5454"/>
      <path id="Path_13889" data-name="Path 13889" d="M135.837,952.4s3.131,2.393.033,5.624c-1.767,1.842,2.858,3.477,1.755,5.169-.416.637-2.354,3.56-2.1,4.756,1.184,5.57,4.365,5.12.345,7.981s-1.805-.092-6.6,2.4-5.723-5.353-7.569-2.677-2.123-3.969,0-5.815,4.523-3.6,4.707-6.646.345-4.338.588-6.276S126.809,949.91,135.837,952.4Z" transform="translate(-105.709 -883.798)" fill="#41424c"/>
    </g>
    <rect id="Rectangle_1640" data-name="Rectangle 1640" width="26.211" height="26.211" rx="5" transform="translate(875.648 547.998)" fill="#c4cfe0"/>
    <path id="Path_13816" data-name="Path 13816" d="M229.377,501.551a4.474,4.474,0,1,0-3.982,0,8.023,8.023,0,0,0-6.029,7.771h16.04A8.022,8.022,0,0,0,229.377,501.551Z" transform="translate(661.367 59.906)" fill="#fff"/>
    <path id="Path_13891" data-name="Path 13891" d="M102.249,304.25q18.862-19.409,39.528-37.477c5.088-4.448,10.7-9.041,17.857-10.239,5.3-.887,11.912,1.063,13.061,5.549,1.2,4.671-3.9,8.6-6.192,12.964a3.01,3.01,0,0,0-.458,1.668c.247,2.328,4.312,2.284,6.834,1.357,12.973-4.765,23.033-13.74,34.392-20.89s25.9-12.7,39.378-9.089c2.866.769,5.8,2.128,6.942,4.493,1.3,2.688-.138,5.766-2.024,8.189s-4.283,4.664-5.176,7.469a2.974,2.974,0,0,0-.159,1.49c.511,2.483,4.772,2.219,7.589,1.438a84.547,84.547,0,0,1,26.256-2.943,25.776,25.776,0,0,1,9.7,1.894,12.985,12.985,0,0,1,6.758,15.844c-1.971,5.833-6.022,17.007-13,18.284" transform="translate(1083.045 448.497)" fill="#97ffb6"/>
    <path id="Path_13786" data-name="Path 13786" d="M634.349,693.19c0,1.395-.028,2.817-.1,4.245-.25,4.617-1.092,9.183-3.705,12.439-4.145,5.161-11.65,6.754-17.855,7.784-8.88,1.469-17.945,1.124-26.934,1.016q-1.914-.029-3.814-.029c-6.659.005-13.465.288-19.859-1.909-4.467-1.536-7.987-4.117-8.848-9.046a12.76,12.76,0,0,1,1.819-8.64,4.748,4.748,0,0,0,.733-1.966c1.777-1.163,3.9-1.295,5.831-2,1.475-.179,2.9-.657,4.4-.7,3.819-.5,7.255-2.164,10.79-3.53a35.293,35.293,0,0,0,12.524-9.67c4.778-5.515,8.479-11.834,13.025-17.529a15.206,15.206,0,0,1,1.791-2.165,16.133,16.133,0,0,1,1.8-1.357,24.568,24.568,0,0,1,8.214-1.8,15.552,15.552,0,0,1,13.224,5.785c5.368,6.5,7.118,14.669,6.966,22.931C634.306,688.923,634.349,691.017,634.349,693.19Z" transform="translate(608.058 39.059)" fill="#b7bcd1"/>
    <path id="Path_13787" data-name="Path 13787" d="M592.253,652.442c1.263-.018,1.888.768,2.488,1.766a18.428,18.428,0,0,1,2.707,10.152,12.4,12.4,0,0,1-4.458,5.756c-.542-.157-.68-.594-.75-1.079-.1-.821.48-1.681-.158-2.6a8.621,8.621,0,0,0-3.122,2.77c-1.864,2.117-3.849,4.128-5.609,6.339-2.755,3.463-6.746,4.013-10.747,4.47-1.626.185-3.294-.188-4.911.316a4.475,4.475,0,0,1-.754.162c-3.7.121-7.408.443-11.043-.6a1.76,1.76,0,0,1-1.062-1.676,2.013,2.013,0,0,1,.324-1.144c1.324-1.009,2.871-.509,4.326-.62,5.5-.419,10.967-.979,15.844-3.917,4.815-2.9,8.419-6.806,9.949-12.332a26.712,26.712,0,0,1,3.23-6.513C589.532,652.6,590.677,651.873,592.253,652.442Z" transform="translate(607.639 40.497)" fill="#bce1f4"/>
    <path id="Path_13788" data-name="Path 13788" d="M600.149,672.183l4.353-5.567c2.294-1.677,4.317-3.749,7.033-4.808.492-.152.62.064.519.513-5.113,6.622-9.48,13.8-14.915,20.176-3.467,4.065-7.446,7.579-12.541,9.571-.148-1.093.835-1.45,1.363-2.106,4.248-2.588,6.771-6.657,9.184-10.795.909-1.558,1.844-3.1,2.82-4.611C598.64,673.717,599.089,672.668,600.149,672.183Z" transform="translate(600.586 38.24)" fill="#8d92aa"/>
    <path id="Path_13789" data-name="Path 13789" d="M593.159,634.942c1.422-2.2,3.395-2.89,6.29-2.141a25.385,25.385,0,0,1,2.421.883c3.591,3.132,3.584,7.071-.017,10.768a2.482,2.482,0,0,1-2.159-2.376c.1-.375.33-.7.456-1.062.379-1.084.213-1.8-1.129-1.265-.956.378-1.7.352-2.066-.687a3.537,3.537,0,0,0-2.939-2.606C593.224,636.327,592.776,635.825,593.159,634.942Z" transform="translate(598.585 45.176)" fill="#41454f"/>
    <path id="Path_13790" data-name="Path 13790" d="M600.448,645.16q1,1.147,2.009,2.292c-.573,1.039-.26,2.225-.545,3.312a9.784,9.784,0,0,0-3.383,1.32,1,1,0,0,1-.919.565c-1.763-.211-1.424-1.8-1.887-2.868-.1-.445-.319-1.116.06-1.291C597.56,647.671,598.614,645.87,600.448,645.16Z" transform="translate(597.98 42.176)" fill="#e97332"/>
    <path id="Path_13791" data-name="Path 13791" d="M620.431,662.069l-.519-.513a2.565,2.565,0,0,1,1.874-.859A2.79,2.79,0,0,1,620.431,662.069Z" transform="translate(592.208 38.492)" fill="#9ab5b0"/>
    <path id="Path_13792" data-name="Path 13792" d="M506.958,729.065l-.663.8c-.78.642-1.584,1.257-2.333,1.934-2.479,2.241-3.418,2.253-6.007.033-.591-.507-1.2-1-1.793-1.5-1.217-1.52-2.458-3.022-3.637-4.571-.31-.407-.693-.938-.334-1.5a1.328,1.328,0,0,1,1.689-.391,10.8,10.8,0,0,1,2.788,1.184c2.461,1.717,4.856,1.866,7.311.065a.768.768,0,0,1,.672-.018C505.465,726.4,507.466,727,506.958,729.065Z" transform="translate(622.528 23.543)" fill="#414551"/>
    <path id="Path_13793" data-name="Path 13793" d="M547.987,727.571q.691,1.418,1.382,2.836c.461,2.031-.853,2.786-2.429,2.819-3.2.065-6.356-.33-9.034-2.385-.362-1.105.24-1.6,1.188-1.88a4.435,4.435,0,0,1,3.167-.245C544.535,729.567,546.256,728.818,547.987,727.571Z" transform="translate(611.679 22.635)" fill="#414550"/>
    <path id="Path_13794" data-name="Path 13794" d="M579.494,703.86c-1.23.012-2.64.352-3.157-1.289-.475-1.511.649-2.359,1.58-3.122a17.433,17.433,0,0,1,5.932-3.231c6.935-2.115,11.679-7.041,16.336-12.207,4.395-4.874,8.092-10.386,13.3-14.524,2.513-2,4.824-2.4,7.07-.986,2.052,1.292,2.534,3.185,1.816,6.454a19,19,0,0,1-4.042,7.616c-7.985,10.133-18.8,15.871-30.863,19.61-2.009.622-4.049,1.158-6.094,1.657A8.142,8.142,0,0,1,579.494,703.86Z" transform="translate(602.568 36.84)" fill="#c8cde2"/>
    <path id="Path_13795" data-name="Path 13795" d="M568.105,696.44c-.1.978-1.276,1.058-1.569,1.876a42.09,42.09,0,0,1-10.847,3.8q-2.3.284-4.584.558-2.871.9-5.733,1.805c-.189-.014-.378-.024-.567-.037l-4.689.61a1.659,1.659,0,0,0-1.257,2.254c.529,2.188.818,4.428,1.205,6.65.123,1.105.822,2.108.577,3.275a1.046,1.046,0,0,1,.378.988c-1.394,2.514-2.476,2.868-5.222,1.668-1.205-.525-1.829-.383-.922-.979a67.972,67.972,0,0,1-3.753-7.8c-.525-1.5-1.361-.832-2.165-.288-4.821,3.275-9.9,6.111-15.01,8.9a5.594,5.594,0,0,1-3.11.907c-.114-1.711-2.259-2.122-2.424-3.8,7.925-1.611,13.408-7.183,19.363-11.981,2.079-1.673,4.074-3.45,6.181-5.09a33.216,33.216,0,0,1,12.335-6.186c3.346-.846,6.782-1.565,9.088-4.537.3-.383.88-.307,1.267-.577l0-.1c2.533-.5,4.721-.393,6.2,2.306.817,1.5,2.429,2.439,3.762,3.544C567.326,694.791,568.19,695.306,568.105,696.44Z" transform="translate(618.647 31.991)" fill="#34486e"/>
    <path id="Path_13796" data-name="Path 13796" d="M556.463,688.419c-2.45,3.575-6.2,4.808-10.165,5.69-5.922,1.317-10.685,4.713-15.217,8.53-4.847,4.081-9.558,8.344-14.981,11.684-2.406,1.482-4.85,2.919-7.872,2.468l-.553-.148c-.281-1.588.795-2.435,1.829-3.277,4.853-3.957,9.681-7.945,14.6-11.818,1.356-1.069,1.98-1.966,1.057-3.681a10.686,10.686,0,0,1-1.13-3.805c-.182-1.638-.484-3.5,1.655-4.317,1.172.514,1.624,1.665,2.317,2.6a14.045,14.045,0,0,1,.762,1.406,8.106,8.106,0,0,1-.04,1.4c-.037,1.643.613,1.688,1.82.867a18.117,18.117,0,0,1,4.435-2.572c.642-.211-1.033-.142-.307-.751,2.123-1.262,4.614-.579,6.84-1.3.993-.321,2.314-.149,2.466-1.692a2.364,2.364,0,0,1,.682-1.718A88.907,88.907,0,0,0,556.463,688.419Z" transform="translate(618.833 32.021)" fill="#6c7594"/>
    <path id="Path_13797" data-name="Path 13797" d="M583.1,692c-2.367-2.553-5.542-4.258-7.3-7.506-.787-1.456-2.78-.09-4.152-.584,3.174-.9,6.521-.09,9.734-1.216a12.775,12.775,0,0,0,5.922-3.963c2.411-2.893,5.039-5.6,7.575-8.395.405-.445.68-1.184,1.479-.86s.836,1.095.746,1.81a16.038,16.038,0,0,1-.436,1.828,8.605,8.605,0,0,1-1.391,3.3c-2.682,4.947-5.292,9.943-9.43,13.9A4.788,4.788,0,0,1,583.1,692Z" transform="translate(603.652 36.43)" fill="#75bae4"/>
    <path id="Path_13798" data-name="Path 13798" d="M556.326,675.207a53.825,53.825,0,0,0,10.953-2.347c2.085-1.323,4.6-1.62,6.728-2.843,2.495-1.17,3.7-3.557,5.194-5.633.915-1.268,1.8-2.566,2.707-3.841,1.569-2.35,2.858-4.984,5.9-5.84l1.14-.468c-2.854,4.381-3.3,9.894-6.862,14-4.69,5.411-10.64,7.961-17.565,8.894a73.428,73.428,0,0,1-8.922.416C554.643,676.393,555.456,675.791,556.326,675.207Z" transform="translate(607.56 40.025)" fill="#def1fd"/>
    <path id="Path_13799" data-name="Path 13799" d="M553.919,681.062c-.227.783-.949,1.414-.727,2.337q-.149.493-.3.986c-.755.6-1.436.174-2.127-.146a7.59,7.59,0,0,0-3.419-.723c-1.187-.1-2.15-.508-2.328-1.877.024-.708.205-1.311,1.009-1.492,1.685-1.613,3.488-1.5,5.385-.4C552.229,680.219,553.083,680.625,553.919,681.062Z" transform="translate(609.967 34.17)" fill="#f89664"/>
    <path id="Path_13800" data-name="Path 13800" d="M550.815,685.421l1.709.5c.157.508.119,1.1.631,1.456q-.024.921-.047,1.842c-2.8,1.256-5.715.712-8.567.418-1.364-.14-1.451-1.368-.195-2.392C546.222,685.721,548.513,685.517,550.815,685.421Z" transform="translate(610.337 32.63)" fill="#8b88b6"/>
    <path id="Path_13801" data-name="Path 13801" d="M602.621,677.573a10.608,10.608,0,0,1,1.392-3.3l.414.88A5.574,5.574,0,0,1,602.621,677.573Z" transform="translate(596.308 35.274)" fill="#97c2e3"/>
    <path id="Path_13802" data-name="Path 13802" d="M592.336,646.777c-2.12-.017-2.695-2.338-2.384-3.991.475-2.53.873-4.964,2.461-7.088.175.336.339.96.526.967a3.767,3.767,0,0,1,3.98,3.43c.082.446.539.536.893.161.652-.692,1.274-1.583,2.241-.433s.228,2-.586,2.81a3.56,3.56,0,0,1-.371.283c-1.128,1.51-2.189,3.1-4.277,3.435A13.829,13.829,0,0,1,592.336,646.777Z" transform="translate(599.331 44.42)" fill="#f99763"/>
    <path id="Path_13803" data-name="Path 13803" d="M523.787,671.459c-1.195-1.649-.67-2.421,1.244-2.791,2.839-.549,5.666-1.19,8.452-1.961a2.048,2.048,0,0,1,2.6.854c1.152,1.678,2.283,3.375,3.526,4.985a1.66,1.66,0,0,1-.331,2.6c-1.964,2.617-4.851,4.1-7.415,5.967a1.617,1.617,0,0,1-2.33-.35C527.44,677.771,524.985,675,523.787,671.459Z" transform="translate(615.153 37.101)" fill="#8076fb"/>
    <path id="Path_13804" data-name="Path 13804" d="M523.464,672.981c1.84,2.733,3.75,5.422,5.493,8.215.967,1.55,1.773,1.6,3.16.478,2.193-1.777,4.549-3.35,6.837-5.01l1.566,2.072q-.351.744-.7,1.488c-.929,2.951-3.471,4.737-5.171,7.132a20.494,20.494,0,0,1-1.746,1.9c-.7.757-1.344.663-1.928-.148l-1.928-2.92c-2.212-3.5-4.409-7.009-6.643-10.494C521.472,674.246,521.43,673.227,523.464,672.981Z" transform="translate(615.476 35.58)" fill="#e3e3ef"/>
    <path id="Path_13805" data-name="Path 13805" d="M582.51,662.5c-1.818,3.836-3.772,7.57-7.54,9.926a45.487,45.487,0,0,1-13.516-.73,6.951,6.951,0,0,1-3.46-1.341c-.732-1.12.075-1.433.911-1.732,4.077,0,8.171-.222,12.229.066a9.89,9.89,0,0,0,8.939-4.043A8.475,8.475,0,0,1,582.51,662.5Z" transform="translate(606.958 38.064)" fill="#bde1f4"/>
    <path id="Path_13806" data-name="Path 13806" d="M557.809,672.408a45.255,45.255,0,0,0,14.6,1.92c.816-.013,1.745-.372,2.427.449a18,18,0,0,1-7.089,2.392,40.185,40.185,0,0,1-8.968-1.364c-1.244-.325-1.982-.89-1.5-2.3C556.96,672.9,557.325,672.626,557.809,672.408Z" transform="translate(607.096 35.715)" fill="#75bae3"/>
    <path id="Path_13807" data-name="Path 13807" d="M555.383,671.39l-.532,1.1c-2.4,1.008-4.374-1.206-6.764-.866-1.134.162-1.61-.918-.757-1.928,1.081-1.28,2.537-2,4.154-1.32a46.632,46.632,0,0,0,4.855,1.583C556.005,670.424,555.278,670.629,555.383,671.39Z" transform="translate(609.522 36.734)" fill="#f59966"/>
    <path id="Path_13808" data-name="Path 13808" d="M533.825,691.358c.912.681,1.34.044,1.874-.6,2.3-2.781,4.644-5.524,6.97-8.279.368,1.209,1.285,1.4,2.39,1.362,1.233-.047,2.517-.2,3.47.886a3.232,3.232,0,0,1-2.526.967,4.938,4.938,0,0,0-2.848.884c-.562.412-1.758.53-1.452,1.519.248.8,1.233.394,1.881.407,2.411.048,4.825.023,7.238.025.241,1.232-.2,1.67-1.5,1.984-2.791.671-5.68.532-8.446,1.255a7.534,7.534,0,0,1-6.078.57C534.248,692.23,533.819,692.011,533.825,691.358Z" transform="translate(612.621 33.329)" fill="#b2b1d1"/>
    <path id="Path_13809" data-name="Path 13809" d="M534.94,695.22l6.079-.57,1.116.169c-2.119,1.443-4.123,2.783-6.1,4.165-.841.588-1.146.042-1.353-.593A3.592,3.592,0,0,1,534.94,695.22Z" transform="translate(612.476 30.441)" fill="#45517d"/>
    <path id="Path_13810" data-name="Path 13810" d="M533.67,673.983a2.34,2.34,0,0,1-.039,2.84,2.863,2.863,0,0,1-2.369.015c-1.006-.042-1.459-.764-1.9-1.522a1.473,1.473,0,0,1,.038-1.74c.25-.352.569-.606.97-.412.693.335.252.922.26,1.429.012.725.271,1.541,1.072,1.577a1.314,1.314,0,0,0,1.442-1.655C533.005,674.027,533.219,673.888,533.67,673.983Z" transform="translate(613.742 35.552)" fill="#aca7fa"/>
    <path id="Path_13811" data-name="Path 13811" d="M537.924,673.953a2.194,2.194,0,0,1-1.279-1.531c-.144-.822.636-.948,1.267-.835.449.082,1.3-.122,1.138.732C538.932,672.942,538.773,673.712,537.924,673.953Z" transform="translate(611.957 35.919)" fill="#dac5be"/>
    <path id="Path_13812" data-name="Path 13812" d="M534.683,674l-.523.532c-.355-.327-1.148-.635-.6-1.167S534.416,673.573,534.683,674Z" transform="translate(612.729 35.53)" fill="#a9a6fb"/>
    <path id="Path_13813" data-name="Path 13813" d="M531.934,678l2.37-.015A1.639,1.639,0,0,1,531.934,678Z" transform="translate(613.07 34.394)" fill="#a9a6fb"/>
    <path id="Path_13814" data-name="Path 13814" d="M644.507,704.022c0,1.395-.028,2.817-.1,4.245-.25,4.617-1.092,9.183-3.705,12.439-4.145,5.161-11.65,6.754-17.855,7.784-8.88,1.469-17.945,1.125-26.934,1.016l.028-.057a22.989,22.989,0,0,1,12.713-6.285c10.067-1.394,17.751-6.839,24.774-13.607a31.7,31.7,0,0,1,6.3-4.519A7.994,7.994,0,0,1,644.507,704.022Z" transform="translate(597.9 28.227)" fill="#8d92aa"/>
    <rect id="Rectangle_1640-2" data-name="Rectangle 1640" width="16.857" height="16.857" rx="3.704" transform="translate(782.233 580.221)" fill="#c4cfe0"/>
    <rect id="Rectangle_1640-3" data-name="Rectangle 1640" width="9.545" height="9.545" rx="1.994" transform="translate(1179.666 618.936)" fill="#bce1f4"/>
    <rect id="Rectangle_1640-4" data-name="Rectangle 1640" width="17.506" height="17.506" rx="2.827" transform="translate(1298.979 449.905)" fill="#bce1f4"/>
  </g>
</svg>
