<svg xmlns="http://www.w3.org/2000/svg" xmlns:xlink="http://www.w3.org/1999/xlink" width="599.156" height="356.536" viewBox="0 0 599.156 356.536"><defs><style>.a{fill:#f7f7f8;opacity:0.72;}.b,.z{fill:none;}.b{stroke:#c4cfe0;stroke-width:4px;opacity:0.29;}.c{opacity:0.05;}.c,.l,.n{isolation:isolate;}.d{fill:#bce1f4;}.e{fill:#0666fb;}.f{opacity:0.62;}.g{fill:#c4cfe0;}.h{fill:#75fc9e;}.i{fill:#97ffb6;}.j{fill:#01569b;}.k{fill:#f5fbff;opacity:0.9;}.l,.n{fill:#c9d3f4;mix-blend-mode:multiply;}.l{opacity:0.55;}.m{fill:#0667fb;}.n{opacity:0.35;}.aa,.o{fill:#fff;}.o{opacity:0.41;}.p{fill:#014278;}.q{fill:#ff9569;}.r{fill:#c8c8c8;}.s{fill:#414551;}.t{fill:#292929;}.u{fill:#ff8469;}.v{fill:#41424c;}.w{fill:#1a1a1a;}.x{fill:#404040;}.y{fill:#e2e0e0;}.z{stroke:#0667fb;stroke-miterlimit:10;stroke-width:2px;}.ab{filter:url(#a);}</style><filter id="a" x="195" y="172.955" width="191" height="51" filterUnits="userSpaceOnUse"><feOffset dy="3" input="SourceAlpha"/><feGaussianBlur stdDeviation="3" result="b"/><feFlood flood-opacity="0.161"/><feComposite operator="in" in2="b"/><feComposite in="SourceGraphic"/></filter></defs><g transform="translate(-650 -220.045)"><path class="a" d="M72.306,76.251c77.782.854,147.872,18.805,187.191-22.223s121.374-49.575,179.5,5.983-1.709,68.38,67.526,123.978,99.8,115.508-46.939,139.893S136.073,245.9,39.255,183.989-5.476,75.4,72.306,76.251Z" transform="translate(663.389 199.252)"/><path class="b" d="M8739.572,5119.5h-144.15" transform="translate(-7592.286 -4762)"/><path class="b" d="M8739.572,5119.5h-144.15" transform="translate(-7592.286 -4746)"/><path class="b" d="M8739.572,5119.5h-144.15" transform="translate(-7592.286 -4730)"/><ellipse class="c" cx="289.01" cy="7.684" rx="289.01" ry="7.684" transform="translate(650 561.214)"/><g transform="translate(1221.557 413.235)"><rect class="d" width="27.599" height="27.599" rx="1.994"/></g><g transform="translate(717.639 440.919)"><rect class="d" width="36.361" height="36.361" rx="2.827"/></g><g transform="translate(716.555 301.835)"><rect class="e" width="44.529" height="44.529" rx="7"/></g><g class="f" transform="translate(1126.002 317.832)"><rect class="g" width="13.136" height="13.136" rx="2.827"/></g><g transform="translate(723.136 504.417)"><rect class="h" width="12.417" height="12.417" rx="2.827"/></g><g class="f" transform="translate(863.676 252.957)"><rect class="d" width="31.337" height="31.337" rx="2.827"/></g><g transform="translate(34)"><path class="i" d="M351.576,389.389l-274.7,3.659,43.862-15.772s-29.906-64.4,6.978-63.486c0,0,8.971-.92,18.94,5.52,0,0,1.5-54.284,31.9-54.744s48.489,49.224,48.489,49.224,23.417-22.769,51.089-19.12c19.769,2.434,26.342,26.485,34.215,34.948.267.283,31.933-13.255,41.563,2.339S350.878,392,350.878,392" transform="translate(605.675 171.876)"/><path class="i" d="M350.878,394.147l-274-1.1,43.862-15.772s-29.906-64.4,6.978-63.486c0,0,8.971-.92,18.94,5.52,0,0,1.5-54.284,31.9-54.744s48.489,49.224,48.489,49.224,23.417-22.769,51.089-19.12c19.769,2.434,26.342,26.485,34.215,34.948.267.283,31.933-13.255,41.563,2.339s-3.038,62.189-3.038,62.189" transform="translate(818.675 171.876)"/><g transform="translate(-67)"><g transform="translate(29 29.238)"><g transform="translate(805 254.65)"><path class="j" d="M274.609,84.93,147.892,195.886V353.535a10.147,10.147,0,0,0,10.147,10.147H416.461a10.147,10.147,0,0,0,10.147-10.147V195.886L299.891,84.93A19.189,19.189,0,0,0,274.609,84.93Z" transform="translate(-147.89 -80.178)"/><rect class="k" width="250.541" height="229.579" rx="20" transform="translate(14.086 36.752)"/><path class="l" d="M287.25,336.65,147.892,230.124V380.6H426.608V230.124Z" transform="translate(-147.89 -114.415)"/><path class="m" d="M426.608,230.125V387.26a10.6,10.6,0,0,1-3.218,7.624c-.054.046-.108.1-.162.154a10.584,10.584,0,0,1-7.285,2.878H158.554a10.6,10.6,0,0,1-7.285-2.878c-.054-.054-.108-.108-.162-.154a10.6,10.6,0,0,1-3.218-7.624V230.125L239.5,311.551l4.838,4.3,42.912,38.143,42.912-38.143,4.831-4.3Z" transform="translate(-147.89 -114.416)"/><path class="n" d="M424.343,405.659c-.054.046-.108.1-.162.154a10.585,10.585,0,0,1-7.285,2.878H159.507a10.6,10.6,0,0,1-7.285-2.878c-.054-.054-.108-.108-.162-.154l88.394-83.332,47.751-45.011,47.743,45.011Z" transform="translate(-148.843 -125.191)"/><path class="m" d="M424.229,409.6a10.584,10.584,0,0,1-7.285,2.878H159.555a10.6,10.6,0,0,1-7.285-2.878l93.071-79.188L288.253,293.9l42.912,36.508Z" transform="translate(-148.891 -128.979)"/></g><path class="j" d="M1.394-13.126C1.394-6.315,6.2-1.753,12.921-1.753c6.812-.123,11.62-4.685,11.62-11.5,0-7-4.808-11.558-11.62-11.435C6.2-24.684,1.394-20.123,1.394-13.126Zm4.068-.247c0-4.346,2.99-7.8,7.49-7.8,4.531,0,7.52,3.452,7.52,7.8,0,4.654-2.99,8.106-7.52,8.106C8.452-5.267,5.462-8.719,5.462-13.373ZM32.709-2.308h3.883V-20.616H43.28v-3.514H26.02v3.514h6.688Zm13.222,0h3.883v-9.031h2.774c4.623,0,8.722-.986,8.722-6.472,0-4.839-3.822-6.318-8.044-6.318H45.931Zm3.883-12.359V-20.8h2.774c2.1,0,4.654.37,4.654,3.051,0,2.959-2.866,3.082-5.086,3.082Z" transform="translate(912.745 355.178)"/><g class="ab" transform="matrix(1, 0, 0, 1, 654, 190.81)"><rect class="o" width="173" height="33" rx="8" transform="translate(204 178.96)"/></g><g transform="translate(876.615 381.879)"><path class="p" d="M271.112,284.1l-2.806,3.692v.061l4.461-.592v2.008l-4.461-.531v.06l2.836,3.543L269.28,293.4l-1.773-4.135h-.059l-1.92,4.166-1.684-1.063,2.806-3.606v-.058l-4.372.56v-2.008l4.342.56v-.058l-2.777-3.606,1.8-1.031,1.832,4.105h.059l1.8-4.137Z" transform="translate(-262.28 -283.095)"/><g transform="translate(31.192)"><path class="p" d="M301.907,284.1l-2.806,3.692v.061l4.461-.592v2.008l-4.461-.531v.06l2.836,3.543-1.862,1.063-1.773-4.135h-.06l-1.919,4.166-1.684-1.063,2.806-3.606v-.058l-4.372.56v-2.008l4.343.56v-.058l-2.777-3.606,1.8-1.031,1.831,4.105h.059l1.8-4.137Z" transform="translate(-293.074 -283.095)"/></g><g transform="translate(62.385)"><path class="p" d="M332.7,284.1l-2.806,3.692v.061l4.461-.592v2.008l-4.461-.531v.06l2.836,3.543-1.862,1.063-1.773-4.135h-.059l-1.919,4.166-1.683-1.063,2.806-3.606v-.058l-4.372.56v-2.008l4.342.56v-.058l-2.776-3.606,1.8-1.031,1.832,4.105h.059l1.8-4.137Z" transform="translate(-323.869 -283.095)"/></g><g transform="translate(93.578)"><path class="p" d="M363.5,284.1l-2.806,3.692v.061l4.461-.592v2.008l-4.461-.531v.06l2.836,3.543-1.862,1.063-1.773-4.135h-.06l-1.919,4.166-1.684-1.063,2.806-3.606v-.058l-4.372.56v-2.008l4.343.56v-.058l-2.777-3.606,1.8-1.031,1.831,4.105h.059l1.8-4.137Z" transform="translate(-354.663 -283.095)"/></g><g transform="translate(124.771)"><path class="p" d="M394.29,284.1l-2.806,3.692v.061l4.461-.592v2.008l-4.461-.531v.06l2.836,3.543-1.862,1.063-1.773-4.135h-.059l-1.919,4.166-1.684-1.063,2.806-3.606v-.058l-4.372.56v-2.008l4.342.56v-.058l-2.776-3.606,1.8-1.031,1.832,4.105h.059l1.8-4.137Z" transform="translate(-385.458 -283.095)"/></g></g></g><g transform="translate(683.061 232.061) rotate(-3)"><path class="q" d="M426.82,253.827l-2.835-.376s-2.788-6.96-3.189-5.376a17.854,17.854,0,0,0,.166,5.652c.047.29-.6-.235-.839-.337-.472-.2-.69.255-.4.852a8.977,8.977,0,0,0,1.985,2.468,10.009,10.009,0,0,1,4.347.269Z" transform="translate(-4.254 -9.73)"/><path class="r" d="M427.108,260.293c6.649-1.139,9.28.816,15.463,2.724a63.772,63.772,0,0,0,9.111,2.647c1.367.23,2.743.4,4.094.51a73.436,73.436,0,0,0,17.977-.838l-.625-7.719a4.52,4.52,0,0,0-5.446-4.044,91.919,91.919,0,0,1-15.358,1.539,28.9,28.9,0,0,1-5.412-.251,16.687,16.687,0,0,0-3.961-.273l-14.907.572C426.463,256.783,427.107,260.287,427.108,260.293Z" transform="translate(-7.055 -11.867)"/><path class="s" d="M550.724,421.579l4.139,8.2a3.038,3.038,0,0,1-1.414,3.833l-3.04,1.581a2.845,2.845,0,0,1-1.314.322h-13.5c-1.649,0-1.463-2.215.125-2.659l9.526-3.1c1.513-.422,1.862-1.38,1.177-2.794l-2.528-6.416Z" transform="translate(-47.796 -75.206)"/><path class="t" d="M538.474,381.864c-13.445-32.043-22.168-73.346-22.168-73.346s-15.811,6.536-21.274,7.364c0,0,22.255,47.315,34.69,67.262" transform="translate(-32.855 -32.734)"/><path class="s" d="M473.675,421.784s9.219,5.551-.534,8.042c-4.083,1.043-6.157,1.932-7.189,2.612a.98.98,0,0,0,.322,1.769,41.811,41.811,0,0,0,17.554.138c7.544,1.227-2.171-14.614-2.171-14.614Z" transform="translate(-21.665 -74.897)"/><path class="u" d="M465.861,230.88q.008-.027.019-.052c15.5-10.5,13.04,8.755,13.04,8.755l-.127.538c-.059.248-.142.616-.262,1.13-.387,1.668,5.608,6.08,5.608,6.08l-13.108,2.225-.251-5.445C461.328,242.761,465.53,231.7,465.861,230.88Z" transform="translate(-21.336 -2.093)"/><path class="v" d="M459.772,232.921a5.544,5.544,0,0,0,2.459,1.327,7.941,7.941,0,0,0,6.389-1.051.528.528,0,0,1,.387-.132.553.553,0,0,1,.3.3,3.021,3.021,0,0,0,1.6,1.35,2.256,2.256,0,0,0,2.039-.295,4.279,4.279,0,0,0,1.113,3.419A3.132,3.132,0,0,0,477,238.913a2.612,2.612,0,0,0,1.712-2.051,3.356,3.356,0,0,0,.091-.947,8.262,8.262,0,0,0-1.235-3.435,6.242,6.242,0,0,0,2.066-3.257l0-.006c0-.019.009-.035.011-.052a3.787,3.787,0,0,0-.133-1.582,4.783,4.783,0,0,0-7.564-2.419,4.371,4.371,0,0,0-2.775-2.69,6.64,6.64,0,0,0-3.949,0,5.126,5.126,0,0,0-2.87,1.835,2.8,2.8,0,0,0-.066,3.241,2.9,2.9,0,0,0-3.577,2.554.165.165,0,0,0-.013-.054,2.63,2.63,0,0,0-.029.363A3.516,3.516,0,0,0,459.772,232.921Z" transform="translate(-19.068)"/><path class="w" d="M515.472,306.249l-5.051-3.716-17.588,8.428,11.7,24.049,12.1-23.486Z" transform="translate(-32.022 -30.465)"/><path class="t" d="M452.649,353.436c1.223-3.9,3.65-7.259,5.535-10.848Q463,333.423,467.8,324.25l1.4-2.681,6.144-.338,17.992-5.124c-2.592,4.192-7.447,12.649-10.022,16.858-2.679,4.379-5.247,8.841-7.877,13.251-1.316,2.205-2.679,4.379-4.03,6.565-1.238,2.005-2.561,3.638-2.479,6.141.077,2.526,1.424,4.75,2.666,6.877,1.313,2.271,1.979,4.629,3.064,6.978,1.453,3.194,3.018,6.364,4.315,9.62.035.056.381.811.306.857l-8.412,4.93q-4.262-6.23-8.569-12.418-3.48-5-7.012-9.984C452.57,361.952,451.2,358.037,452.649,353.436Z" transform="translate(-16.564 -35.611)"/><path class="x" d="M452.65,356.067c1.224-3.9,3.65-7.259,5.536-10.848Q463,336.053,467.8,326.88l1.4-2.68,6.144-.338,2.7-.816s-21.485,31.153-21.738,37.889c-.145,3.8,3.124,11.489,5.99,17.462q-3.481-5-7.012-9.984C452.569,364.583,451.2,360.667,452.65,356.067Z" transform="translate(-16.565 -38.242)"/><path class="y" d="M466.534,257.416c9.287-3.549,14.936-4.811,18.291-5.169a5.944,5.944,0,0,1,6.013,3.413L505.5,287.172s-5.268,7.945-30.979,10.578c0,0-.274,5.113-6.421-28.585Z" transform="translate(-22.051 -11.389)"/><path class="r" d="M472.992,278.313s6.548,4.246,1.551,12.807c0,0,.875,6.772-1.587,8.248l-3.895-20.309Z" transform="translate(-23.009 -21.283)"/><path class="q" d="M415.245,259.068l-3.216-.6s-2.771-8.722-3.324-6.786a23.812,23.812,0,0,0-.147,6.984c.036.359-.206,2.816.67,3.717,1.672-.215,3.842-1.064,5.431-.493Z" transform="translate(0 -11.081)"/><path class="y" d="M413.05,265.03c5.528-.947,7.716.679,12.857,2.265a53.011,53.011,0,0,0,7.575,2.2c1.137.191,2.281.328,3.4.424a61.088,61.088,0,0,0,14.948-.7l-.887-10.944c-5.068,1.917-12.988,2.35-16.931,2.443a24.034,24.034,0,0,1-4.5-.209,13.883,13.883,0,0,0-3.292-.227l-12.4.476C412.513,262.112,413.048,265.025,413.05,265.03Z" transform="translate(-1.733 -13.688)"/></g></g><path class="z" d="M193.853,249.281H123.711A13.715,13.715,0,0,1,110,235.567V159.6" transform="translate(595.125 178.561)"/></g><path class="aa" d="M59.159,3.785,50.211.07a.913.913,0,0,0-.7,0L40.563,3.785A.913.913,0,0,0,40,4.628V9.145a15.291,15.291,0,0,0,9.516,14.162.913.913,0,0,0,.69,0A15.291,15.291,0,0,0,59.722,9.145V4.628A.913.913,0,0,0,59.159,3.785ZM48.852,12.222,52.777,8.3a.913.913,0,1,1,1.291,1.291l-4.57,4.57a.913.913,0,0,1-1.291,0l-2.552-2.552a.913.913,0,0,1,1.291-1.291Z" transform="translate(689.138 312.313)"/></g></svg>