<svg xmlns="http://www.w3.org/2000/svg" xmlns:xlink="http://www.w3.org/1999/xlink" width="671.586" height="412.899" viewBox="0 0 671.586 412.899"><defs><style>.a,.b{fill:#ecf1f7;}.a{opacity:0.47;}.b{opacity:0.81;}.c{fill:#aec8ea;}.d{opacity:0.51;}.e{fill:#fff;}.f{fill:#599af2;opacity:0.39;}.g{fill:#ffc957;}.h{fill:#2680eb;}.bj,.i,.j,.k,.m,.n{fill:none;}.i{stroke:#2a294f;stroke-width:0.78px;}.bj,.i,.j,.m,.n{stroke-linecap:round;}.i,.j,.m,.n{stroke-linejoin:round;}.j,.n{stroke:#6aa5fe;}.k{stroke:#707070;}.l{fill:#6aa5fe;}.m{stroke:#1a55b5;}.m,.n{stroke-width:0.867px;}.o{fill:#eea886;}.p{fill:#cf8c6c;}.q{fill:#3b3f66;}.r{fill:#555c94;}.s{fill:#2b2e4a;}.t{fill:#323657;}.u{fill:#ff9f55;}.v{fill:#f75a5a;}.w{fill:#202338;}.x{fill:#eea987;}.y{fill:#543628;}.z{fill:#c48a6f;}.aa{fill:#a53c3b;}.ab{fill:#db9c7c;}.ac{fill:#e55353;}.ad{fill:#b36222;}.ae{fill:#005ca6;}.af{fill:#4ba2f4;}.ag{fill:#f0f0f0;}.ah{fill:#ffdf69;}.ai{fill:#c9c9c9;}.aj{fill:#deba35;}.ak{fill:url(#a);}.al{fill:#c78d71;}.am{fill:#1d2033;}.an{fill:#50558a;}.ao{fill:#1a598c;}.ap{fill:#bfb9b7;}.aq{fill:#f2ebe9;}.ar{fill:#3d8ed1;}.as{fill:#f5eeec;}.at{fill:#ded7d5;}.au{fill:#0064b5;}.av{fill:#2f6b8c;}.aw{fill:#292c47;}.ax{fill:#00447a;}.ay{fill:#0076d6;}.az{fill:#434343;}.ba{fill:#5f8be3;}.bb{fill:#aab1e0;}.bc{fill:#81807e;}.bd{fill:#dbd8e3;}.be{fill:#a77860;}.bf{fill:#c4c1cc;}.bg{fill:#044c87;}.bh{fill:#cee9ff;}.bi{fill:#373449;}.bj{stroke:#373449;stroke-miterlimit:10;stroke-width:2px;}</style><linearGradient id="a" y1="0.5" x2="1" y2="0.5" gradientUnits="objectBoundingBox"><stop offset="0" stop-color="#ff9f55"/><stop offset="1" stop-color="#ffd255"/></linearGradient></defs><g transform="translate(-604.202 -3890.561)"><g transform="translate(604.202 3890.561)"><g transform="translate(0 9.874)"><path class="a" d="M57.889,320.533A16.841,16.841,0,0,0,46.772,341.6c2.746,8.886,14.084,20.039,22.97,17.292s5.064-16.817,6.951-25.925C79.328,320.262,66.776,317.786,57.889,320.533Z" transform="translate(-46.016 -28.545)"/><path class="a" d="M156.761,51.175a25.51,25.51,0,0,0-34.539-10.418c-12.413,6.66-25.7,26.752-19.043,39.166s26.469,2.647,40.556,2.813C163.383,82.967,163.421,63.59,156.761,51.175Z" transform="translate(-44.213 -37.721)"/></g><g transform="translate(37.574 0)"><path class="a" d="M706.634,398.746c8.812-14.014,11.021-31.4,9.186-47.851a157.8,157.8,0,0,0-13.827-48.366c-6.631-14.09-16.229-26.661-18.964-42.357-3.614-20.737,5.852-40.67,8.049-61.011,4.374-40.5-22.993-76.175-56.943-95.444-27.574-15.648-59.9-21.52-91.6-21.1-28.533.376-57.016,5.439-84.665,12.244-26.644,6.56-52.7,15.2-80.625,12.476-23.229-2.267-44.149-11.916-65.782-19.11-51.645-17.176-114.206-19.6-161.432,6.549C119.72,111.554,98.507,138.805,89.1,168.1c-6.892,21.46-8.936,46.136-3.886,67.855,5.675,24.4,16.159,45.9,13.39,71.607-2.272,21.094-10.021,41.66-9.335,63.058.589,18.392,7.478,36.784,18.189,51.659a23.376,23.376,0,0,0,2.257,2.749H676.52C688.387,418.636,699.462,410.154,706.634,398.746Z" transform="translate(-82.405 -26.626)"/><g transform="translate(26.568)"><path class="b" d="M633.029,386.236c2.008-15.629-2.693-30.147-2.076-45.337,1.185-29.21,28.021-49.377,37.37-75.635,11.84-33.25,11.273-70.509-3.107-102.908-6.931-15.615-17.054-30.127-30.879-40.164-21.312-15.471-49.238-18.864-75.5-16.9-39.086,2.921-80.329,19.178-119.628,14.744-21.686-2.446-28.308-25-39.508-39.871-12.667-16.824-29.918-30.037-48.989-38.834-35.127-16.2-77.285-17.734-113.187-3.044-38.329,15.684-71.737,53.983-69.542,97.3,1.016,20.039,9.365,39.942,5.5,59.631-4.851,24.708-24.23,47.225-38.273,67.358a150.067,150.067,0,0,0-5.224,163.994H619.554A109.086,109.086,0,0,0,633.029,386.236Z" transform="translate(-108.135 -28.159)"/></g></g></g><g transform="translate(677.808 4102.5)"><path class="c" d="M964.689,219.377l-5.639-3.055a24.487,24.487,0,0,0,.735-7.093l6.15-1.828a2.208,2.208,0,0,0,1.487-2.745l-2.18-7.33a2.206,2.206,0,0,0-2.745-1.486l-6.15,1.828a24.5,24.5,0,0,0-4.491-5.54l3.054-5.639a2.207,2.207,0,0,0-.89-2.992l-6.724-3.642a2.207,2.207,0,0,0-2.992.89l-3.055,5.639a24.421,24.421,0,0,0-7.094-.735l-1.828-6.151a2.206,2.206,0,0,0-2.745-1.486l-7.33,2.18a2.207,2.207,0,0,0-1.487,2.745l1.828,6.149a24.479,24.479,0,0,0-5.539,4.492l-5.639-3.054a2.206,2.206,0,0,0-2.992.89l-3.641,6.724a2.207,2.207,0,0,0,.89,2.992l5.639,3.054a24.5,24.5,0,0,0-.735,7.094l-6.15,1.828a2.208,2.208,0,0,0-1.487,2.745l2.18,7.33a2.208,2.208,0,0,0,2.745,1.487l6.15-1.829a24.475,24.475,0,0,0,4.491,5.54l-3.054,5.638a2.207,2.207,0,0,0,.89,2.992l6.724,3.642a2.208,2.208,0,0,0,2.993-.89l3.054-5.639a24.454,24.454,0,0,0,7.094.736l1.828,6.149a2.207,2.207,0,0,0,2.745,1.487l7.33-2.179a2.209,2.209,0,0,0,1.487-2.746l-1.828-6.149a24.5,24.5,0,0,0,5.539-4.492l5.639,3.055a2.208,2.208,0,0,0,2.992-.891l3.642-6.724A2.208,2.208,0,0,0,964.689,219.377Zm-37.805,6.2a17.422,17.422,0,1,1,23.617-7.022A17.422,17.422,0,0,1,926.884,225.573Z" transform="translate(-902.848 -177.92)"/></g><g class="d" transform="translate(812.305 3978.057) rotate(-22)"><path class="c" d="M81.809,54.843,74.35,50.8a32.394,32.394,0,0,0,.973-9.384L83.458,39a2.921,2.921,0,0,0,1.967-3.631l-2.883-9.7a2.919,2.919,0,0,0-3.631-1.966l-8.136,2.419A32.406,32.406,0,0,0,64.834,18.8l4.04-7.459A2.919,2.919,0,0,0,67.7,7.379L58.8,2.56a2.919,2.919,0,0,0-3.958,1.177L50.8,11.2a32.307,32.307,0,0,0-9.384-.973L39,2.088A2.919,2.919,0,0,0,35.369.122l-9.7,2.883a2.92,2.92,0,0,0-1.967,3.631l2.419,8.134A32.379,32.379,0,0,0,18.8,20.714l-7.46-4.04a2.918,2.918,0,0,0-3.958,1.177l-4.817,8.9A2.919,2.919,0,0,0,3.738,30.7l7.459,4.04a32.411,32.411,0,0,0-.973,9.385L2.089,46.548A2.921,2.921,0,0,0,.122,50.179l2.883,9.7a2.921,2.921,0,0,0,3.631,1.967l8.136-2.42a32.38,32.38,0,0,0,5.941,7.329l-4.04,7.459a2.919,2.919,0,0,0,1.177,3.958l8.895,4.818A2.921,2.921,0,0,0,30.7,81.81l4.04-7.46a32.352,32.352,0,0,0,9.384.974l2.419,8.134a2.92,2.92,0,0,0,3.631,1.967l9.7-2.882a2.922,2.922,0,0,0,1.967-3.633l-2.419-8.134a32.412,32.412,0,0,0,7.328-5.943l7.46,4.041A2.921,2.921,0,0,0,78.169,67.7L82.988,58.8A2.921,2.921,0,0,0,81.809,54.843ZM31.8,63.04A23.048,23.048,0,1,1,63.04,53.75,23.048,23.048,0,0,1,31.8,63.04Z" transform="translate(0 0)"/></g><g transform="translate(779.769 3997.372)"><path class="e" d="M913.532,161.738l-3.7-2.006a16.087,16.087,0,0,0,.482-4.659l4.04-1.2a1.45,1.45,0,0,0,.976-1.8l-1.431-4.815a1.45,1.45,0,0,0-1.8-.976l-4.04,1.2a16.073,16.073,0,0,0-2.95-3.638l2.006-3.7a1.45,1.45,0,0,0-.585-1.966l-4.416-2.392a1.45,1.45,0,0,0-1.966.585l-2.006,3.7a16.091,16.091,0,0,0-4.659-.483l-1.2-4.039a1.45,1.45,0,0,0-1.8-.977L885.657,136a1.45,1.45,0,0,0-.977,1.8l1.2,4.039a16.108,16.108,0,0,0-3.639,2.951l-3.7-2.006a1.449,1.449,0,0,0-1.965.585l-2.392,4.416a1.45,1.45,0,0,0,.585,1.966l3.7,2.006a16.089,16.089,0,0,0-.483,4.659l-4.039,1.2a1.449,1.449,0,0,0-.977,1.8l1.431,4.815a1.45,1.45,0,0,0,1.8.977l4.039-1.2a16.078,16.078,0,0,0,2.951,3.638l-2.006,3.7a1.45,1.45,0,0,0,.584,1.966l4.417,2.392a1.449,1.449,0,0,0,1.965-.585l2.007-3.7a16.058,16.058,0,0,0,4.659.483l1.2,4.039a1.45,1.45,0,0,0,1.8.977l4.814-1.431a1.451,1.451,0,0,0,.977-1.8l-1.2-4.039a16.1,16.1,0,0,0,3.638-2.951l3.7,2.006a1.45,1.45,0,0,0,1.966-.585l2.391-4.416A1.45,1.45,0,0,0,913.532,161.738ZM888.7,165.809a11.444,11.444,0,1,1,15.513-4.612A11.444,11.444,0,0,1,888.7,165.809Z" transform="translate(-872.911 -134.508)"/></g><path class="f" d="M1240.963,204.086l-2.961-1.6a12.014,12.014,0,0,0,.314-3.593l3.18-.868a1.075,1.075,0,0,0,.747-1.379l-1.2-3.741a1.2,1.2,0,0,0-1.442-.781l-3.18.869a13.16,13.16,0,0,0-2.39-2.854l1.534-2.832a1.136,1.136,0,0,0-.492-1.528l-3.531-1.912a1.135,1.135,0,0,0-1.548.422l-1.533,2.832a13.174,13.174,0,0,0-3.7-.441l-1.009-3.138a1.2,1.2,0,0,0-1.442-.782l-3.791,1.036a1.074,1.074,0,0,0-.747,1.379l1.01,3.138a11.989,11.989,0,0,0-2.838,2.226l-2.962-1.6a1.135,1.135,0,0,0-1.547.422l-1.829,3.377a1.134,1.134,0,0,0,.492,1.527l2.962,1.6a11.982,11.982,0,0,0-.315,3.592l-3.18.869a1.075,1.075,0,0,0-.747,1.379l1.2,3.74a1.2,1.2,0,0,0,1.441.781l3.181-.869a13.166,13.166,0,0,0,2.389,2.854l-1.534,2.832a1.134,1.134,0,0,0,.492,1.527l3.532,1.913a1.135,1.135,0,0,0,1.547-.422l1.534-2.832a13.2,13.2,0,0,0,3.7.441l1.01,3.138a1.2,1.2,0,0,0,1.442.781l3.79-1.035a1.074,1.074,0,0,0,.746-1.379l-1.01-3.138a12.033,12.033,0,0,0,2.837-2.226l2.962,1.6a1.135,1.135,0,0,0,1.547-.423l1.829-3.377A1.135,1.135,0,0,0,1240.963,204.086Zm-19.6,2.78a8.759,8.759,0,1,1,12.214-3.336A8.956,8.956,0,0,1,1221.362,206.866Z" transform="translate(-38.778 3926)"/><g transform="translate(673.574 4187.612)"><g transform="translate(0 0)"><path class="g" d="M214.1,715c-3.938-4.542-8.924-8.462-10.5-14.194-1.148-4.188-.242-8.621.207-12.94s.291-9.095-2.5-12.42c-2.3-2.739-5.939-3.93-9.438-4.681s-7.15-1.227-10.254-3.007c-5.041-2.891-4.037-7.808-6.743-12.12-3.037-4.839-10.1-11.012-16.159-7.8-6.414,3.4-5.4,13.736-1.13,18.3,2.83,3.026,6.453,5.93,6.87,10.052.626,6.206-6.484,11.795-4.529,17.717,1.444,4.376,6.96,5.879,9.683,9.6,2.694,3.676,2.152,8.829.565,13.1s-4.085,8.224-5.073,12.675c-2.019,9.107,5.126,15.4,13.267,17.429,7.48,1.866,23.615.986,23.615.986a30.868,30.868,0,0,0,15.307-12.6,16.02,16.02,0,0,0,.87-13.911A23.219,23.219,0,0,0,214.1,715Z" transform="translate(-136.953 -646.95)"/><g transform="translate(0 67.518)"><path class="h" d="M140.876,717.416a2.876,2.876,0,0,1,1.835-.584c.059,0,.118,0,.178,0,2.563,0,5.128,1.629,7.627,4.847a39.069,39.069,0,0,1,4.889,8.312,17.01,17.01,0,0,0-3.084-2.456,45.4,45.4,0,0,0-5.029-2.6c-1.31-.611-2.666-1.241-3.938-1.958a6.955,6.955,0,0,1-2.777-2.41A2.615,2.615,0,0,1,140.876,717.416Z" transform="translate(-136.482 -716.829)"/><path class="h" d="M136.508,736.013a2.878,2.878,0,0,1,1.408-1.312c.053-.028.106-.053.159-.079,2.317-1.1,5.333-.722,8.968,1.117a39.071,39.071,0,0,1,7.975,5.421,16.917,16.917,0,0,0-3.839-.9,45.187,45.187,0,0,0-5.657-.2c-1.445.009-2.94.019-4.4-.084a6.932,6.932,0,0,1-3.541-.99A2.613,2.613,0,0,1,136.508,736.013Z" transform="translate(-136.352 -717.409)"/><path class="h" d="M142.621,747.026a1.97,1.97,0,0,1,.085-1.313c.014-.038.028-.075.043-.114.638-1.631,2.314-2.858,4.984-3.647a26.7,26.7,0,0,1,6.507-1.042,11.591,11.591,0,0,0-2.331,1.352A30.936,30.936,0,0,0,149,744.815c-.715.681-1.453,1.388-2.226,2.019A4.747,4.747,0,0,1,144.551,748,1.786,1.786,0,0,1,142.621,747.026Z" transform="translate(-136.561 -717.643)"/><path class="i" d="M163.786,750.125s-.08-16.885-20.7-31.221" transform="translate(-136.579 -716.899)"/><path class="i" d="M163.688,750.743s-6.332-13.565-23.494-13.565" transform="translate(-136.482 -717.517)"/><path class="i" d="M154.484,741.084s-3.323-.243-10.264,4.992" transform="translate(-136.618 -717.648)"/></g></g><path class="j" d="M166.295,658.035s27.547,42.552,30.544,89.8" transform="translate(-137.364 -647.324)"/></g><path class="k" d="M1255.678,4315.9H653.662" transform="translate(-16.321 -26.932)"/><g transform="translate(1134.51 4196.961)"><g transform="translate(0 0)"><path class="l" d="M515.269,743.729c-.527,10.447-11.892,28.709-22.339,28.182s-16.016-19.643-15.489-30.089,11.652-62.72,22.1-62.193S515.8,733.284,515.269,743.729Z" transform="translate(-477.407 -679.626)"/><line class="m" x1="5.267" y2="84.653" transform="translate(16.362 6.795)"/><path class="g" d="M491.647,742.5a72.6,72.6,0,0,0-5.284,16.421c-.556,2.9-.905,6.035.406,8.677,1.431,2.885,4.609,4.567,7.787,5.089,7.764,1.275,15.532-3.48,20.083-9.9s6.522-14.264,8.331-21.921c1.424-6.029,2.824-12.148,5.508-17.767,1.151-2.409,7.889-11.707,4.7-14.119-4.36-3.425-16.981.3-25.069,9.131A94.261,94.261,0,0,0,491.647,742.5Z" transform="translate(-477.692 -680.575)"/><path class="n" d="M494.859,772.954s9.376-36.494,32.007-57.426" transform="translate(-477.996 -680.839)"/></g><g transform="translate(38.298 48.38)"><path class="h" d="M547.992,734.638a9.186,9.186,0,0,1-3.672,3.188c-1.683.948-3.477,1.782-5.209,2.589a59.884,59.884,0,0,0-6.649,3.439,22.412,22.412,0,0,0-4.079,3.249,51.648,51.648,0,0,1,6.465-10.995c3.305-4.255,6.7-6.41,10.088-6.41.078,0,.157,0,.235,0a3.81,3.81,0,0,1,2.426.771A3.459,3.459,0,0,1,547.992,734.638Z" transform="translate(-517.427 -729.698)"/><path class="h" d="M551.791,759a9.182,9.182,0,0,1-4.683,1.31c-1.928.136-3.9.123-5.816.11a60.023,60.023,0,0,0-7.482.263,22.462,22.462,0,0,0-5.076,1.191,51.65,51.65,0,0,1,10.548-7.171c4.808-2.431,8.8-2.927,11.86-1.476.071.034.141.068.211.1a3.8,3.8,0,0,1,1.862,1.735A3.455,3.455,0,0,1,551.791,759Z" transform="translate(-517.439 -730.466)"/><path class="h" d="M542.9,770.923a6.268,6.268,0,0,1-2.942-1.543c-1.023-.836-2-1.769-2.944-2.671a40.876,40.876,0,0,0-3.845-3.376,15.312,15.312,0,0,0-3.083-1.787,35.294,35.294,0,0,1,8.607,1.378c3.531,1.044,5.746,2.667,6.591,4.824.019.049.038.1.056.151a2.6,2.6,0,0,1,.112,1.735A2.36,2.36,0,0,1,542.9,770.923Z" transform="translate(-517.485 -730.774)"/><path class="i" d="M517.044,773.733s.106-22.331,27.376-41.29" transform="translate(-517.044 -729.791)"/><path class="i" d="M517.044,774.55s8.373-17.94,31.07-17.94" transform="translate(-517.044 -730.607)"/><path class="i" d="M529.828,761.776s4.4-.322,13.574,6.6" transform="translate(-517.476 -730.782)"/></g></g><g transform="translate(1149.217 4157.42)"><path class="o" d="M2552.413,1220.806s-.793-2.069-.923-2.381a5.344,5.344,0,0,0-1.879-1.349,6.2,6.2,0,0,0-2.65-.7.95.95,0,0,0-.593.53,1.829,1.829,0,0,0-.169.913,1.114,1.114,0,0,0-.411.993.971.971,0,0,0-.239,1.052.812.812,0,0,0-.24.863,7.363,7.363,0,0,1,1.027.8,15.475,15.475,0,0,0,3.747,1.93S2551.992,1223.525,2552.413,1220.806Z" transform="translate(-2527.331 -1191.585)"/><path class="p" d="M2557.433,1232.168a5.475,5.475,0,0,0,.107,1.431c.147.318-2.275.975-2.275.975S2556.079,1232.156,2557.433,1232.168Z" transform="translate(-2535.271 -1204.12)"/><path class="o" d="M2568.582,1239.171s.636.615.715.722,3.121-1.822,1.617-3.372S2568.582,1239.171,2568.582,1239.171Z" transform="translate(-2545.831 -1207.3)"/><path class="q" d="M2718.277,1742.614l-.994-3.3-4.462.642.613,2.966Z" transform="translate(-2660.214 -1606.294)"/><path class="r" d="M2577.7,1749.594l-.281,1.8-4.857-.9.306-2.685Z" transform="translate(-2548.99 -1613.026)"/><g transform="translate(40.155 71.798)"><path class="s" d="M2652.664,1458.036s2.938,17.774,3.583,19.642c.658,1.9,8.534,28.027,8.534,28.027s5.156-.057,5.4-.837c0,0-4.469-28.727-4.38-29.807s-.97-31.531-.97-31.531S2653.025,1456.285,2652.664,1458.036Z" transform="translate(-2652.664 -1443.531)"/></g><g transform="translate(23.436 66.762)"><path class="t" d="M2582.087,1422.168s-6.364,29.781-6.9,32.06-3.291,32.852-3.291,32.852,1.263,2.728,6.125,1.8c0,0,7.187-32.775,7.763-33.867,2.236-4.239,13.206-24.774,14.286-27.713a17.779,17.779,0,0,0,.839-6.4S2593.105,1416.333,2582.087,1422.168Z" transform="translate(-2571.892 -1419.199)"/></g><g transform="translate(22.574 28.233)"><path class="u" d="M2581.92,1235.9s-2.673,6.336-3.312,6.136-7.844-8.968-7.844-8.968-3.439,4.141-3,4.63c.617.682,9.049,15.28,10.249,15.041s6.7-8.975,6.7-8.975S2585.133,1237.107,2581.92,1235.9Z" transform="translate(-2567.727 -1233.064)"/></g><g transform="translate(32.569 19.073)"><path class="u" d="M2631.376,1188.814s-6.729,4.957-8.6,6.936-7.071,10.235-6.75,12.752a182.374,182.374,0,0,1,1.673,24.43c-.064,5.721-1.913,7.148-.78,7.253,1.3.12,17.9,6.469,20.357,7.249,0,0-1.264-20.17-2.044-22.51S2638.334,1198.291,2631.376,1188.814Z" transform="translate(-2616.016 -1188.814)"/></g><path class="e" d="M2467.021,1145.041l-.676,7.621-.676,7.622a40.9,40.9,0,0,1,18.012-2.7l.3-3.362.3-3.381A41.041,41.041,0,0,1,2467.021,1145.041Z" transform="translate(-2464.221 -1135.029)"/><rect class="v" width="1.455" height="15.303" transform="translate(1.35 9.884) rotate(5.062)"/><path class="w" d="M2533.175,1756.476s-3.664-.776-3.791-.891-.89-1.58-1.463-1.336-.611,2.01-1.172,2.3-5,3.177-5.55,3.707-3.867.154-4.265,1.085-.468,3.146,4.5,2.713,10.614.472,11.692-.094S2533.49,1757.909,2533.175,1756.476Z" transform="translate(-2504.742 -1618.113)"/><path class="w" d="M2680.509,1749.834s-3.742-.18-3.885-.272-1.132-1.417-1.658-1.085-.281,2.083-.789,2.458-4.429,3.936-4.886,4.547-3.792.771-4.036,1.753.041,3.181,4.875,1.958,10.553-1.232,11.526-1.964S2681.05,1751.2,2680.509,1749.834Z" transform="translate(-2622.446 -1613.514)"/><g transform="translate(36.037 71.18)"><path class="x" d="M2634.063,1440.545s-.48,1.811-1.206,2.193,3.275,4.344,3.275,4.344a34.291,34.291,0,0,0,1.675-3.942C2637.768,1442.776,2634.063,1440.545,2634.063,1440.545Z" transform="translate(-2632.768 -1440.545)"/></g><path class="t" d="M2619.127,1447.858s-1.686,7.678-1.631,10.04,8.958-3.557,8.554-5.912Z" transform="translate(-2584.619 -1375.164)"/><g transform="translate(36.341 11.398)"><path class="o" d="M2645.827,1159.41s-12.324,12.993-11.554,11.542c2.747-5.173,4.616-6.021,4.6-7-.016-.745-.267-2.922-.3-3.651-.07-1.385-.153-2.511-.153-2.511s6.152-8.325,5.837-5.457S2645.827,1159.41,2645.827,1159.41Z" transform="translate(-2634.239 -1151.736)"/></g><g transform="translate(33.912 0.981)"><path class="o" d="M2625.281,1103.751a30.558,30.558,0,0,0-1.772,4.785,19.42,19.42,0,0,1,.019,2.667c-.166,1.085-1.119,3.358-1.018,3.992.122.767,1.739.4,1.938,1.66s1.328,3.649,1.909,3.707c1.495.149,7.268-2.087,7.654-3.28s2.581-7.842,3.25-9.1-9.952-8.419-10.966-6.424Z" transform="translate(-2622.503 -1101.408)"/></g><path class="y" d="M2642.874,1103.146c.818-3.3-2.981-3.773-2.981-3.773s-2.427-2.928-8.363-2.691-5.168,7.993-5.168,7.993,4.113-.542,5.889-.058a28.023,28.023,0,0,1-.049,4.124l2.24-.159s-.2-2.938.878-3.058,1.325,6.235,3.3,7.669a2.193,2.193,0,0,1,.286-.883h0a25.46,25.46,0,0,0,1.612-3.211A36.492,36.492,0,0,0,2642.874,1103.146Z" transform="translate(-2591.626 -1096.669)"/><g transform="translate(41.933 8.289)"><path class="o" d="M2661.513,1137.965a1.7,1.7,0,0,1,2.812-.737c1.412,1.081-.126,4.835-1.518,4.792S2660.887,1139.911,2661.513,1137.965Z" transform="translate(-2661.252 -1136.716)"/></g><path class="z" d="M2659.933,1173.076a4.352,4.352,0,0,1-.639,1.455,13.243,13.243,0,0,1-4.533,2.26l.245,2.33S2660.121,1177.251,2659.933,1173.076Z" transform="translate(-2614.171 -1157.26)"/><path class="aa" d="M2547.043,1211.731l-.892-.312,2.964-8.575,2.266.783-2.513,7.269A1.337,1.337,0,0,1,2547.043,1211.731Z" transform="translate(-2528.043 -1180.866)"/><path class="ab" d="M2547.081,1216.566s2.4,1.37,2.224,1.784a.7.7,0,0,1-.487.461l.73,1.011s.106.943-.952.783c0,0,.19.87-.813.594,0,0-.131.63-.618.584a9.207,9.207,0,0,1-1.992-.992s-.294-.354.174-.874a.977.977,0,0,1,.257-1.052,1.091,1.091,0,0,1,.416-1.015s-.158-1.151.8-1.409C2546.824,1216.44,2546.98,1216.508,2547.081,1216.566Z" transform="translate(-2527.195 -1191.648)"/><path class="ac" d="M2552.375,1179.049l-8.654-.667.63-7.105,8.624,1.01Z" transform="translate(-2526.116 -1155.833)"/><path class="o" d="M2562,1226.056a9.376,9.376,0,0,0-2.947.319c-.238.092-.452.225-.457.481s.361.588,1.178.667a6.936,6.936,0,0,1,1.84.557S2562.477,1227.915,2562,1226.056Z" transform="translate(-2537.911 -1199.268)"/><path class="ad" d="M2668.047,1301.419s3.186-9.334,3.186-9.954-1.5-11.914-1.5-11.914l4.36,13.33Z" transform="translate(-2624.708 -1241.696)"/><g transform="translate(36.359 24.559)"><path class="u" d="M2648.7,1217.752s4.364,22.745,4.713,25.071c.33,2.2-14.376,22.915-14.376,22.915l-4.717-2.912s11.939-20.83,11.939-21.79-5.213-19.325-5.213-19.325-2.244-4.019,1.9-5.878A4.089,4.089,0,0,1,2648.7,1217.752Z" transform="translate(-2634.324 -1215.318)"/></g></g><g transform="translate(728.648 4033.754)"><g transform="translate(0 5.042)"><rect class="ae" width="420.517" height="249.587" rx="8"/><rect class="af" width="51.886" height="51.886" transform="translate(71.154 73.46)"/><rect class="ag" width="51.886" height="51.886" transform="translate(15.326 17.594)"/><rect class="ag" width="51.886" height="51.886" transform="translate(158.907 73.214)"/><rect class="ah" width="51.886" height="51.886" transform="translate(71.154 129.043)"/><rect class="ah" width="51.886" height="51.886" transform="translate(158.907 184.874)"/><rect class="ag" width="51.886" height="51.886" transform="translate(15.326 129.167)"/><g transform="translate(206.647 184.874)"><path class="ag" d="M1288.622,1408.325s-.036,24.017-5.666,44.376l-12,7.51H1228.65c8.038-21.39,8.086-51.886,8.086-51.886Z" transform="translate(-1228.65 -1408.325)"/><path class="ai" d="M1429.218,1625.559v-7.684h12Z" transform="translate(-1386.911 -1573.674)"/></g><g transform="translate(150.818 129.043)"><path class="ah" d="M1023.95,1143.641s-.036,24.017-5.666,44.375l-12,7.51H963.978c8.038-21.39,8.086-51.885,8.086-51.885Z" transform="translate(-963.978 -1143.641)"/><path class="aj" d="M1164.546,1360.875v-7.684h12Z" transform="translate(-1122.239 -1308.99)"/></g><rect class="ag" width="51.885" height="51.885" transform="translate(214.736 17.632)"/><g transform="translate(150.818 17.632)"><path class="af" d="M1023.95,615.463s-.036,24.017-5.666,44.376l-12,7.51H963.978c8.038-21.39,8.086-51.886,8.086-51.886Z" transform="translate(-963.978 -615.463)"/><path class="h" d="M1164.546,832.7v-7.684h12Z" transform="translate(-1122.239 -780.812)"/></g><g transform="translate(7.237 184.874)"><path class="ag" d="M343.263,1408.325s-.036,24.017-5.666,44.376l-12,7.51H283.291c8.038-21.39,8.086-51.886,8.086-51.886Z" transform="translate(-283.291 -1408.325)"/><path class="ai" d="M483.859,1625.559v-7.684h12Z" transform="translate(-441.552 -1573.674)"/></g><rect class="af" width="51.886" height="51.886" transform="translate(299.239 73.46)"/><rect class="ag" width="51.886" height="51.886" transform="translate(299.239 17.594)"/><rect class="ag" width="51.886" height="51.886" transform="translate(355.068 17.594)"/><rect class="af" width="51.886" height="51.886" transform="translate(355.068 129.043)"/><rect class="ag" width="51.886" height="51.886" transform="translate(355.068 184.874)"/><rect class="ag" width="51.886" height="51.886" transform="translate(299.239 129.167)"/><g transform="translate(291.15 184.874)"><path class="ag" d="M1689.235,1408.325s-.036,24.017-5.666,44.376l-12,7.51h-42.307c8.038-21.39,8.086-51.886,8.086-51.886Z" transform="translate(-1629.263 -1408.325)"/><path class="ai" d="M1829.83,1625.559v-7.684h12Z" transform="translate(-1787.524 -1573.674)"/></g><g transform="translate(206.647 129.043)"><path class="ag" d="M1288.622,1143.641s-.036,24.017-5.666,44.375l-12,7.51H1228.65c8.038-21.39,8.086-51.885,8.086-51.885Z" transform="translate(-1228.65 -1143.641)"/><path class="ai" d="M1429.218,1360.875v-7.684h12Z" transform="translate(-1386.911 -1308.99)"/></g><rect class="ak" width="3.263" height="249.587" transform="translate(138.075)"/><rect class="ak" width="3.264" height="249.587" transform="translate(281.298)"/></g><rect class="ak" width="95.583" height="10.144" transform="translate(160.928)"/></g><g transform="translate(801.313 4151.992)"><g transform="translate(18.725 1.589)"><path class="x" d="M695.607,1096.738s6.1,1.029,5.062,10.573-6.415,8.7-6.775,8.689-5.413.115-5.679-11.555C688.215,1104.445,688.137,1095.817,695.607,1096.738Z" transform="translate(-688.215 -1096.669)"/></g><g transform="translate(20.781 17.207)"><path class="x" d="M705.827,1170.719s-.234,3.957.137,4.812-4.871,3.531-8.144.45a33.754,33.754,0,0,0,.456-5.81C698.071,1168.654,705.827,1170.719,705.827,1170.719Z" transform="translate(-697.82 -1169.614)"/></g><g transform="translate(30.905 9.224)"><path class="x" d="M745.5,1132.638s.677-.707.914.019-.855,3.855-1,4.089c0,0-.125.28-.284.123A35.025,35.025,0,0,1,745.5,1132.638Z" transform="translate(-745.103 -1132.33)"/></g><g transform="translate(17.834 8.944)"><path class="x" d="M685.018,1131.352s-.647-.734-.914-.019.708,3.928.83,4.126c0,0,.21.33.375.18A35.236,35.236,0,0,0,685.018,1131.352Z" transform="translate(-684.058 -1131.02)"/></g><path class="al" d="M701.9,1181a3.882,3.882,0,0,0,3.234,1.3,4.4,4.4,0,0,0,3.242-1.23,3.945,3.945,0,0,1-3.252,2.215C702.945,1183.256,701.9,1181,701.9,1181Z" transform="translate(-680.248 -1161.351)"/><path class="am" d="M611.035,1754.228a12.56,12.56,0,0,1-1.536,2.616c-.7.743-3.393,2.07-3.407,4.275-.016,2.391,4.535,1.728,6.315,1.64s1.914-1.365,2.664-2.719,1.5-1.125,1.645-2.216a13.047,13.047,0,0,0-.574-3.537Z" transform="translate(-604.951 -1611.849)"/><path class="an" d="M628.34,1749.832l-.13,1.134a9.888,9.888,0,0,0,5.446.1l-.148-1.55Z" transform="translate(-622.333 -1608.144)"/><g transform="translate(61.259 65.141)"><path class="ao" d="M943.907,1475.08l-.641-.026,3.224-80.925H890.738l-3.224,80.951-.64-.026,3.249-81.566h57.035Z" transform="translate(-886.873 -1393.489)"/></g><g transform="translate(63.872 65.141)"><path class="ao" d="M958.718,1475.08l-3.224-80.951H899.741l3.223,80.925-.64.026-3.25-81.591h57.035l3.249,81.566Z" transform="translate(-899.074 -1393.489)"/></g><g transform="translate(64.205 39.146)"><path class="ap" d="M903.868,1353.336h56.394l-3.237-81.258H900.631Z" transform="translate(-900.631 -1272.078)"/></g><g transform="translate(59.989 39.146)"><path class="aq" d="M937.333,1353.336H880.94l3.237-81.258H940.57Z" transform="translate(-880.94 -1272.078)"/></g><g transform="translate(77.448 44.442)"><path class="ar" d="M963.1,1348.3l-.614-.219,5.345-14.994,11.591-3.067,4.166-16.457,8.945-3.948,2-12.8.644.1-2.058,13.149-8.98,3.963-4.182,16.521-11.63,3.077Z" transform="translate(-962.481 -1296.815)"/></g><g transform="translate(92.914 76.171)"><path class="as" d="M1037.8,1445.645a1.739,1.739,0,1,1-2.448-.246A1.74,1.74,0,0,1,1037.8,1445.645Z" transform="translate(-1034.714 -1445.006)"/></g><g transform="translate(92.588 75.846)"><path class="ar" d="M1036.567,1447.151a2.066,2.066,0,1,1,.292-2.907A2.068,2.068,0,0,1,1036.567,1447.151Zm-2.2-2.694a1.413,1.413,0,1,0,1.989.2A1.415,1.415,0,0,0,1034.365,1444.458Z" transform="translate(-1033.195 -1443.487)"/></g><g transform="translate(97.134 59.781)"><path class="as" d="M1057.512,1369.095a1.739,1.739,0,1,1-2.448-.246A1.739,1.739,0,0,1,1057.512,1369.095Z" transform="translate(-1054.426 -1368.456)"/></g><g transform="translate(96.809 59.456)"><path class="ar" d="M1056.279,1370.6a2.066,2.066,0,1,1,.292-2.906A2.068,2.068,0,0,1,1056.279,1370.6Zm-2.2-2.694a1.413,1.413,0,1,0,1.989.2A1.415,1.415,0,0,0,1054.078,1367.907Z" transform="translate(-1052.907 -1366.937)"/></g><g transform="translate(105.941 55.721)"><path class="as" d="M1098.647,1350.131a1.739,1.739,0,1,1-2.448-.246A1.739,1.739,0,0,1,1098.647,1350.131Z" transform="translate(-1095.561 -1349.492)"/></g><g transform="translate(81.368 79.39)"><path class="as" d="M983.875,1460.679a1.74,1.74,0,1,1-2.448-.246A1.74,1.74,0,0,1,983.875,1460.679Z" transform="translate(-980.789 -1460.041)"/></g><g transform="translate(81.042 79.065)"><path class="ar" d="M982.642,1462.185a2.066,2.066,0,1,1,.292-2.906A2.068,2.068,0,0,1,982.642,1462.185Zm-2.2-2.693a1.413,1.413,0,1,0,1.989.2A1.415,1.415,0,0,0,980.44,1459.492Z" transform="translate(-979.27 -1458.521)"/></g><g transform="translate(70.196 56.745)"><path class="at" d="M1.8,0H15.611a1.8,1.8,0,0,1,1.8,1.8v0a1.8,1.8,0,0,1-1.8,1.8H1.8A1.8,1.8,0,0,1,0,1.8v0A1.8,1.8,0,0,1,1.8,0Z"/></g><g transform="translate(70.196 50.438)"><path class="at" d="M1.8,0H15.611a1.8,1.8,0,0,1,1.8,1.8v0a1.8,1.8,0,0,1-1.8,1.8H1.8A1.8,1.8,0,0,1,0,1.8v0A1.8,1.8,0,0,1,1.8,0Z"/></g><g transform="translate(105.616 55.396)"><path class="ar" d="M1097.413,1351.637a2.066,2.066,0,1,1,.292-2.906A2.068,2.068,0,0,1,1097.413,1351.637Zm-2.2-2.693a1.413,1.413,0,1,0,1.989.2A1.415,1.415,0,0,0,1095.211,1348.944Z" transform="translate(-1094.041 -1347.973)"/></g><g transform="translate(72.939 80.226)"><path class="ar" d="M941.815,1494.124l-.392-.282,6.872-9.57,8.872.193,6.333-10.852,7.17-.976,4.045-8.692.438.2L971,1473.079l-7.2.98-6.357,10.895-8.9-.193Z" transform="translate(-941.423 -1463.944)"/></g><g transform="translate(87.532 99.703)"><path class="as" d="M1012.052,1555.693a1.287,1.287,0,1,1-1.691-.676A1.287,1.287,0,0,1,1012.052,1555.693Z" transform="translate(-1009.58 -1554.912)"/></g><g transform="translate(87.291 99.462)"><path class="ar" d="M1010.585,1556.721a1.529,1.529,0,1,1,.8-2.008A1.531,1.531,0,0,1,1010.585,1556.721Zm-1.015-2.367a1.046,1.046,0,1,0,1.373.55A1.048,1.048,0,0,0,1009.571,1554.354Z" transform="translate(-1008.454 -1553.787)"/></g><g transform="translate(93.89 88.91)"><path class="as" d="M1041.747,1505.283a1.287,1.287,0,1,1-1.69-.676A1.288,1.288,0,0,1,1041.747,1505.283Z" transform="translate(-1039.276 -1504.502)"/></g><g transform="translate(93.649 88.669)"><path class="ar" d="M1040.281,1506.31a1.529,1.529,0,1,1,.8-2.008A1.531,1.531,0,0,1,1040.281,1506.31Zm-1.014-2.367a1.046,1.046,0,1,0,1.373.55A1.048,1.048,0,0,0,1039.267,1503.943Z" transform="translate(-1038.15 -1503.376)"/></g><g transform="translate(100.986 87.826)"><path class="as" d="M1074.887,1500.218a1.287,1.287,0,1,1-1.691-.676A1.287,1.287,0,0,1,1074.887,1500.218Z" transform="translate(-1072.415 -1499.437)"/></g><g transform="translate(78.661 99.629)"><path class="as" d="M970.619,1555.344a1.287,1.287,0,1,1-1.691-.676A1.287,1.287,0,0,1,970.619,1555.344Z" transform="translate(-968.148 -1554.564)"/></g><g transform="translate(78.42 99.388)"><path class="ar" d="M969.153,1556.372a1.529,1.529,0,1,1,.8-2.007A1.531,1.531,0,0,1,969.153,1556.372Zm-1.014-2.367a1.046,1.046,0,1,0,1.373.549A1.047,1.047,0,0,0,968.139,1554.005Z" transform="translate(-967.022 -1553.438)"/></g><g transform="translate(100.745 87.585)"><path class="ar" d="M1073.421,1501.246a1.529,1.529,0,1,1,.8-2.008A1.531,1.531,0,0,1,1073.421,1501.246Zm-1.015-2.367a1.046,1.046,0,1,0,1.374.55A1.047,1.047,0,0,0,1072.406,1498.879Z" transform="translate(-1071.29 -1498.312)"/></g><g transform="translate(61.502 36.296)"><path class="o" d="M888.007,1264.7s1.838-.577,1.986-1.666a6.175,6.175,0,0,1,1.213-2.374c.342-.456.869-2.247,1.449-1.822s-.727,2.994-.893,3.588,2.348-.536,2.97-.381,2.257,4.426.442,5-4.135-.008-4.434.156a11.694,11.694,0,0,1-1.3.471Z" transform="translate(-888.007 -1258.77)"/></g><g transform="translate(67.771 38.41)"><path class="o" d="M917.288,1269.834s5.675-1.393,6.131-1.169.513.536-.012.688-5.444,1.5-5.444,1.5,6.993-.52,7.407-.418c.242.06.389.657.115.764s-7.175,1.019-7.175,1.019,6.53-.473,6.851-.285a.451.451,0,0,1-.2.815c-.482.068-6.518.85-6.518.85s4.775-.046,4.952.273c.109.2.259.706-.973.679s-4.146.215-4.146.215Z" transform="translate(-917.288 -1268.64)"/></g><g transform="translate(31.172 24.74)"><path class="au" d="M749.727,1216.163s1.474,2.6,3.444,5.526c.182.269.367.541.556.814a.005.005,0,0,0,0,0c.257.37.518.74.785,1.109.318.44.643.876.971,1.3,1.828,2.37,3.751,4.385,5.211,4.745,3.159.777,19.033-2.742,19.033-2.742l-1.227-6.241a50.015,50.015,0,0,1-9.284,2.2c-2.281.19-5.126.939-5.463.727s-6.849-9.6-7.313-10.614a34.067,34.067,0,0,0-4.321-6.887,3.536,3.536,0,0,0-3.7-1.177C743.1,1208.4,749.727,1216.163,749.727,1216.163Z" transform="translate(-746.352 -1204.797)"/></g><g transform="translate(35.614 141.369)"><path class="w" d="M773.2,1749.969s2.455,2.578,4.947,3.118,4.236,1.229,4.254,2.708-7.172,2.454-10.024.963c-4.257-2.226-4.689-1.555-5.161-2.667s.567-4.088.536-4.442C767.717,1749.212,773.2,1749.969,773.2,1749.969Z" transform="translate(-767.095 -1749.513)"/></g><g transform="translate(36.269 139.865)"><path class="av" d="M775.333,1743.215a10.158,10.158,0,0,1,.276,1.233c-.048.026-5.616.649-5.448-.32.136-.786.331-1.641.331-1.641Z" transform="translate(-770.158 -1742.488)"/></g><g transform="translate(4.395 62.789)"><path class="aw" d="M652.721,1387.777s2.579,18.73,3.632,25.062c1.232,7.4,1.649,13.52,1.992,17.352.432,4.82,1.005,29.484,1.307,30.893s-7.511.677-7.511.677-4.093-32.154-5.379-37.287c-1.2-4.779-4.685-25.423-5.778-24.118s-5.766,24.859-6.576,28.629-5.337,34-5.337,34-4.847.879-7.785-.6c0,0,2.279-26.44,2.794-33.507.2-2.693.676-32.282,5.23-44.2C631.719,1378.378,652.721,1387.777,652.721,1387.777Z" transform="translate(-621.287 -1382.503)"/></g><path class="au" d="M664.022,1197.335s6.823,1.411,7.633,2.128c.879.764,2.429,8.236,2.521,10.318a80.34,80.34,0,0,1-1.7,14.016c-.879,3.238-.56,19.168,0,23.655,0,0-10.11,4.528-27.177.418,0,0,2.972-14.77,2.431-19.207-.693-5.684-2.055-19.635-2.055-19.635s-.042-8.534,1.161-9.552,10.055-2.141,10.055-2.141Z" transform="translate(-635.758 -1174.193)"/><path class="au" d="M633.654,1204.672s4.274,1.177,1.923,9.022c-1.842,6.144-2.091,7.464-2.091,7.464l-9.863-2.463s2.523-12.98,7.246-14.1A6.3,6.3,0,0,1,633.654,1204.672Z" transform="translate(-618.728 -1179.797)"/><path class="ax" d="M778.2,1258.742c.182.269.367.541.556.814a.005.005,0,0,0,0,0c.257.37.518.74.785,1.109a44.8,44.8,0,0,0-.759-8.723A45.646,45.646,0,0,1,778.2,1258.742Z" transform="translate(-740.21 -1217.11)"/><rect class="ay" width="4.19" height="6.397" transform="translate(31.634 35.998)"/><path class="au" d="M705.723,1191.887s-4.218,1.24-7.751-.219l-.244,1.728s4.739,1.8,8.441.976Z" transform="translate(-676.967 -1169.739)"/><path class="o" d="M607.407,1426.005a12.76,12.76,0,0,0,.658,2.622,19.168,19.168,0,0,1,1.153,2.769c.077.29.533,2.365.613,2.629s-.518.654-.9.092a17.364,17.364,0,0,1-.807-2.132c-.166-.436-.676-1.813-.83-1.569a15.987,15.987,0,0,0-.206,2.542,15.291,15.291,0,0,0,.345,2.526c.124.6.851,3.133.528,3.259s-.592.082-.985-.6c0,0-.663.348-1.021-.489,0,0-.59.2-.922-.891a1.448,1.448,0,0,1-.559-.63,23.573,23.573,0,0,1-.961-5.062c.045-1.346.386-2.275.355-3.226a25.4,25.4,0,0,0-.463-3Z" transform="translate(-602.836 -1352.991)"/><g transform="translate(0 28.026)"><path class="au" d="M606.5,1267.464a26.4,26.4,0,0,1-5.736.088s1.915-21.759,1.817-22.988c-.091-1.138,4.393-21.354,6.856-24.418l3.747,11.826c-.285-.092-4.078,12.059-4.13,13.31C608.98,1246.958,606.5,1267.464,606.5,1267.464Z" transform="translate(-600.762 -1220.146)"/></g><path class="az" d="M699.66,1097.025a19.739,19.739,0,0,0-.331-5.924c-.406-1.6-2.987-1.157-2.987-1.157h0c-3.937-1.18-6.31-.637-7.8,0-2.232,1.829-2.4,4.942-2.3,6.656.044.406.091.814.137,1.212,0,.008,0,.012,0,.012.2,1.7.407,3.188.407,3.188l.709.819s-.182-2.839.254-3c.235-.086.291-.659.292-1.171,0-.44-.036-.834-.036-.834,4.552-2.1,9.663-.6,9.777-.313.071.182.176.727.278,1.21.062.292.122.562.174.715a23.388,23.388,0,0,1,.083,2.964l.887-1.159s.113-.553.259-1.385h0c.048-.271.1-.57.15-.891C699.615,1097.97,699.653,1097.608,699.66,1097.025Z" transform="translate(-667.922 -1089.249)"/><g transform="translate(118.776)"><path class="w" d="M1340.676,1766.854a21.837,21.837,0,0,0,1.864,2.938c.737.835,3.557,2.327,3.572,4.805.017,2.689-4.754,1.943-6.62,1.844s-2.007-1.534-2.793-3.057-1.578-1.264-1.724-2.492a14.516,14.516,0,0,1,.761-4.039Z" transform="translate(-1297.382 -1625.417)"/><g transform="translate(9.756 26.953)"><path class="aw" d="M1207.379,1262.928s5.255-12.246,5.888-15.261c.287-1.365,1.075-4.761,1.574-7.55.165-.918.3-1.865.421-2.791a0,0,0,0,0,0,0c.469-3.7.588-7.073.588-7.073s2.791-9.565-3.189-10.149a14.8,14.8,0,0,0-2.2.906c-1.007,2.352-1.4,8.349-1.439,9.646-.028,1.054-1.575,11.687-1.6,12.063-.044.731-1.633,4.563-2.487,7.406-1.86,6.192-2.84,11.077-2.84,11.077Z" transform="translate(-1202.096 -1220.102)"/></g><rect class="ba" width="26.951" height="23.576" transform="translate(26.951 72.105) rotate(180)"/><g transform="translate(7.96 60.677)"><g transform="translate(0 0)"><rect class="bb" width="1.5" height="7.25" transform="translate(1.5 7.25) rotate(180)"/></g></g><g transform="translate(5.876 62.583)"><g transform="translate(0 0)"><rect class="bb" width="1.5" height="5.344" transform="translate(1.5 5.344) rotate(180)"/></g></g><g transform="translate(3.803 59.772)"><g transform="translate(0 0)"><rect class="bb" width="1.5" height="8.156" transform="translate(1.5 8.156) rotate(180)"/></g></g><path class="o" d="M1185.081,1425.5s.155,3.177,1.863,3.727a5.814,5.814,0,0,0,4.353-.423c.786-.482,2.766-1.88,2.027-2.76C1190.953,1423.22,1185.081,1425.5,1185.081,1425.5Z" transform="translate(-1178.888 -1354.851)"/><path class="o" d="M1181.6,1437.647s-2.133.156-2.018-.748,1.65-.554,1.65-.554Z" transform="translate(-1174.539 -1364.061)"/><g transform="translate(14.479 62.409)"><g transform="translate(0 0)"><rect class="bb" width="1.5" height="5.519" transform="translate(1.5 5.519) rotate(180)"/></g></g><g transform="translate(12.344 61.852)"><g transform="translate(0 0)"><rect class="bb" width="1.5" height="6.075" transform="translate(1.5 6.075) rotate(180)"/></g></g><g transform="translate(10.18 63.008)"><g transform="translate(0 0)"><rect class="bb" width="1.5" height="4.919" transform="translate(1.5 4.919) rotate(180)"/></g></g><g transform="translate(16.687 63.008)"><g transform="translate(0 0)"><rect class="bb" width="1.5" height="4.919" transform="translate(1.5 4.919) rotate(180)"/></g></g><g transform="translate(3.595 52.114)"><g transform="translate(19.838 7.259)"><path class="bb" d="M1267.456,1374.933a.527.527,0,0,1-.041.06l.06.041,1.608,1.084.04-.06-1.607-1.084Z" transform="translate(-1267.415 -1374.933)"/></g><g transform="translate(14.081 7.005)"><path class="bb" d="M1239.92,1374.281a.53.53,0,0,1,.009.072l.072-.009,4.6-.547.073-.009a.516.516,0,0,1-.009-.072l-.072.009-4.6.547Z" transform="translate(-1239.92 -1373.717)"/></g><g transform="translate(9.561 4.073)"><path class="bb" d="M1218.335,1359.769l.054.049,3.415,3.1.054.049a.509.509,0,0,1,.049-.054l-.054-.049-3.415-3.1-.054-.049A.5.5,0,0,1,1218.335,1359.769Z" transform="translate(-1218.335 -1359.715)"/></g><g transform="translate(3.981 3.685)"><path class="bb" d="M1191.686,1357.9a.354.354,0,0,1,0,.036h4.624c0-.012,0-.024,0-.036s0-.024,0-.037h-4.624A.366.366,0,0,1,1191.686,1357.9Z" transform="translate(-1191.685 -1357.863)"/></g><path class="bb" d="M1172.674,1340.314l2.961,3.228.049.054a.58.58,0,0,1,.053-.049l-.049-.053-2.961-3.228Z" transform="translate(-1172.674 -1340.265)"/><g transform="translate(18.754 6.337)"><path class="bb" d="M1262.239,1371.166q0,.019,0,.039a.615.615,0,0,0,.009.072.638.638,0,1,0-.01-.111Zm.073.03c0-.01,0-.02,0-.03a.565.565,0,1,1,1.052.285.58.58,0,0,1-.041.06.564.564,0,0,1-1-.242A.537.537,0,0,1,1262.313,1371.2Z" transform="translate(-1262.239 -1370.528)"/></g><g transform="translate(12.889 7.034)"><path class="bb" d="M1234.227,1374.5a.637.637,0,1,0,1.274,0c0-.013,0-.026,0-.039a.63.63,0,0,0-.008-.072.637.637,0,0,0-1.074-.343.662.662,0,0,0-.049.054A.636.636,0,0,0,1234.227,1374.5Zm.072,0a.562.562,0,0,1,.123-.351.465.465,0,0,1,.049-.054.564.564,0,0,1,.948.3.582.582,0,0,1,.009.072c0,.01,0,.02,0,.031a.565.565,0,0,1-1.129,0Z" transform="translate(-1234.227 -1373.859)"/></g><g transform="translate(8.531 3.084)"><path class="bb" d="M1213.415,1355.631c0,.012,0,.025,0,.037a.637.637,0,0,0,1.083.418c.017-.017.033-.035.049-.054a.637.637,0,1,0-1.132-.437C1213.415,1355.607,1213.415,1355.619,1213.415,1355.631Zm.074.037c0-.012,0-.024,0-.037s0-.024,0-.036a.565.565,0,1,1,1.005.388.538.538,0,0,1-.049.054.564.564,0,0,1-.956-.369Z" transform="translate(-1213.415 -1354.994)"/></g><g transform="translate(2.78 3.084)"><path class="bb" d="M1185.952,1355.631a.637.637,0,0,0,1.273.037c0-.012,0-.024,0-.037s0-.024,0-.036a.637.637,0,0,0-1.039-.457.655.655,0,0,0-.053.049A.635.635,0,0,0,1185.952,1355.631Zm.073,0a.562.562,0,0,1,.157-.39.517.517,0,0,1,.053-.049.564.564,0,0,1,.917.4c0,.012,0,.024,0,.036s0,.024,0,.037a.564.564,0,0,1-1.128-.037Z" transform="translate(-1185.952 -1354.994)"/></g></g><g transform="translate(54.962 70.23)"><path class="o" d="M1420.629,1426.783s.927,1.615,2.025,1.583a6.623,6.623,0,0,1,2.568.756c.515.246,2.377.456,2.073,1.06s-3.082-.209-3.7-.27.986,2.094.956,2.7-3.9,2.782-4.823,1.188-.8-3.837-1.023-4.088a11.287,11.287,0,0,1-.718-1.137Z" transform="translate(-1417.989 -1426.783)"/></g><g transform="translate(56.749 75.637)"><path class="o" d="M1431.178,1452.609s2.479,5.047,2.349,5.5-.426.559-.678.1-2.543-4.815-2.543-4.815,1.881,6.406,1.862,6.806c-.011.234-.569.463-.728.226s-2.407-6.5-2.407-6.5,1.745,5.984,1.623,6.311a.463.463,0,0,1-.84-.062c-.162-.436-2.112-5.914-2.112-5.914s.98,4.422.7,4.636c-.17.131-.642.35-.857-.8s-1.024-3.813-1.024-3.813Z" transform="translate(-1426.524 -1452.609)"/></g><g transform="translate(6.274 140.738)"><path class="w" d="M1194.085,1763.971s-2.3,2.567-4.633,3.1-3.967,1.224-3.984,2.7,6.717,2.443,9.388.958c3.986-2.216,4.392-1.548,4.834-2.656s-.531-4.07-.5-4.422C1199.223,1763.217,1194.085,1763.971,1194.085,1763.971Z" transform="translate(-1185.468 -1763.517)"/></g><g transform="translate(14.887 139.241)"><path class="bc" d="M1226.865,1757.088a10.66,10.66,0,0,0-.259,1.228c.045.026,5.26.647,5.1-.318-.128-.782-.31-1.634-.31-1.634Z" transform="translate(-1226.601 -1756.364)"/></g><g transform="translate(38.236 140.174)"><path class="bc" d="M1338.292,1761.272a10.272,10.272,0,0,0-.176,1.175c.042.028,5.288.964,5.258.012a4.585,4.585,0,0,0-.484-1.638Z" transform="translate(-1338.11 -1760.82)"/></g><g transform="translate(14.369 62.444)"><path class="aw" d="M1229.647,1395.134s-1.9,18.417-2.883,24.722c-1.153,7.372-1.544,13.462-1.866,17.278-.4,4.8-.482,28.406-.766,29.809s6.282.388,6.282.388,3.229-30.845,4.434-35.956c1.122-4.759,5.285-25.247,6.309-23.948s2.293,23.91,3.051,27.663,3.064,33.137,3.064,33.137,5.224,1.04,6.615-.136c0,0,.632-25.323.149-32.36-.184-2.682,3.142-32.154-1.123-44.019C1250.659,1385.442,1229.647,1395.134,1229.647,1395.134Z" transform="translate(-1224.124 -1389.6)"/></g><g transform="translate(18.298 21.928)"><path class="bd" d="M1281.5,1244.748s-1.426,1.647-2.765,1.4-6.943-17.331-7-20.75a87.2,87.2,0,0,0-1.558-10.095.056.056,0,0,1,0,.013s0,.006,0,.008,0,.008,0,.012c-.15.549-2.2,8.147-2.269,11.8-.075,3.789.226,16.823.226,16.823l-5.075,1.359-16.209.151-3.7-1.511s.4-4.19.555-7.134c.093-1.871.457-5.221.364-8.484a30.074,30.074,0,0,0-.283-4.921c-.037-6.538-.433-13.012-.433-13.012q-.329-4.446-.459-8.321c.715-.378,1.575-.821,2.264-1.148,2.129-1.014,5.095-2.379,7-3.252,1.115-.512,2.206-.886,2.206-.886s7.608-.729,8.226-.69a19.338,19.338,0,0,1,2.393.819,87.362,87.362,0,0,1,8.727,3.7c1.215.869,3.783,21.535,3.9,22.981C1277.811,1226.219,1281.5,1244.748,1281.5,1244.748Z" transform="translate(-1242.888 -1196.107)"/></g><path class="am" d="M1244.6,1418.023a134.8,134.8,0,0,0,20.886,0v3.2s-14.522,1.387-21.374-.61Z" transform="translate(-1225.557 -1349.628)"/><g transform="translate(15.337 23.085)"><path class="aw" d="M1231.531,1206.407c.085,2.629.213,5.449.436,8.468,0,0,.211,7.373.635,14.366a13.908,13.908,0,0,1,.136,3.074c-.106,1.368-.254,2.86-.432,4.419l-.006.059c-.043.37-.087.742-.132,1.117,0,.006,0,.01,0,.016-.947,7.791-2.549,16.73-3.386,19.434-.177.565.433,1.087.867,1.489l3.046,1.92s1.255-11.558,1.672-15.481c.4-3.787,1.668-8.864,2.223-13.811v0c.7-6.276,1.671-12.424,2.193-16.077,1.359-9.51,3.17-13.765,3.17-13.765C1241.084,1201.892,1231.531,1206.407,1231.531,1206.407Z" transform="translate(-1228.748 -1201.633)"/></g><g transform="translate(33.617 22.344)"><path class="aw" d="M1329.345,1227.126c.236,3.173,6.041,21.7,6.812,21.617a57.212,57.212,0,0,0,5.908-1.576s-5.607-18.833-5.805-20.818c-.144-1.445-2.444-23.114-3.658-23.984-.7-.5-5.9-2.345-8.448-3.35-.466-.184-2-.763-2.421-.921-.541.6-4.324,4.7-5.64,20.242-.222,2.62.479,8.168.947,12.7.5,4.831,1.052,8.6,1.458,12.642.8,7.961,1.357,14.295,1.357,14.295l7.922-3.527c1.282-.641,3.057-3.273,2.575-4.623-1.832-5.13-4.138-13.894-4.141-18.4,0,0,.884-11.022,1.584-13.445A67.945,67.945,0,0,1,1329.345,1227.126Z" transform="translate(-1316.05 -1198.094)"/></g><path class="o" d="M1286.246,1102.343s-7.942-2.939-7.446,7.616,2.358,11.627,7.583,10.153,5.663-8.135,6.343-11.34S1288.843,1102.8,1286.246,1102.343Z" transform="translate(-1252.964 -1099.75)"/><path class="az" d="M1290.808,1105.639s.022-2.819-1.15-3.079-1.776,1.37-1.776,1.37l-.944-.051s.844-2.857-.274-3.512-7.8-.079-8.644-1.042.378-6.675,2.2-7.236,6.808-1.7,9.973,1.12c0,0,2.753.052,2.863,2.294S1291.762,1104.11,1290.808,1105.639Z" transform="translate(-1252.151 -1091.383)"/><path class="o" d="M1325.747,1136.8c.351-.93,2.332-.813,2.129.661s-1.84,3.746-2.5,3.32S1325.263,1138.082,1325.747,1136.8Z" transform="translate(-1289.567 -1126.819)"/><g transform="translate(29.829 16.507)"><path class="x" d="M1305.418,1176.45s-.7-.578.3-5.862c.269-1.415-7.456,1.687-7.456,1.687s.062,1.159.055,2.321c0,.521-.02,1.041-.063,1.459a4.864,4.864,0,0,1-.283,1.02C1297.626,1177.881,1302.562,1178.494,1305.418,1176.45Z" transform="translate(-1297.958 -1170.218)"/></g><path class="be" d="M1299.393,1184.141a6.6,6.6,0,0,0,6.173-3.7,8.616,8.616,0,0,1-6.11,2.237C1299.453,1183.2,1299.436,1183.722,1299.393,1184.141Z" transform="translate(-1269.264 -1161.796)"/><path class="aw" d="M1303,1213.048l-1.406,1.889a1.7,1.7,0,0,0,2.286.289Z" transform="translate(-1271.002 -1187.572)"/><path class="aw" d="M1287.329,1222.244s-5.214,20.076-4.14,35.7l1.754,3.092,1.642-3.239s.45-27.953,1.88-35.606Z" transform="translate(-1256.337 -1194.803)"/><path class="x" d="M1301.117,1202.607l1.505,1.761s2.416-.468,3.125-1.73S1301.117,1202.607,1301.117,1202.607Z" transform="translate(-1270.627 -1178.892)"/><path class="bf" d="M1295.812,1197.277a7.258,7.258,0,0,0,1.85,3.3l-1.829,2.457-.99-5.1Z" transform="translate(-1265.666 -1175.104)"/><path class="bf" d="M1313.375,1190.717s-2.626,3.71-5.069,4.676l1.136,2.81,5.191-6.274Z" transform="translate(-1276.311 -1169.917)"/></g></g><g transform="translate(1064.86 3950.581)"><ellipse class="bg" cx="81.5" cy="81" rx="81.5" ry="81" transform="translate(0.14 -0.02)"/><circle class="bh" cx="74.035" cy="74.035" r="74.035" transform="translate(7.267 7.429)"/><circle class="e" cx="66.483" cy="66.483" r="66.483" transform="translate(14.819 14.981)"/><g transform="translate(17.728 17.89)"><g transform="translate(61.667 0)"><rect class="bi" width="3.588" height="12.109" rx="1.794"/><rect class="bi" width="3.588" height="12.109" rx="1.794" transform="translate(0.224 115.038)"/></g><g transform="translate(0 61.667)"><rect class="bi" width="3.588" height="12.109" rx="1.794" transform="translate(127.147 0) rotate(90)"/><rect class="bi" width="3.588" height="12.109" rx="1.794" transform="translate(12.109 0.224) rotate(90)"/></g><g transform="translate(18.715 18.61)"><path class="bi" d="M1.793,0h0A1.794,1.794,0,0,1,3.588,1.794v4.34A1.793,1.793,0,0,1,1.794,7.928h0A1.794,1.794,0,0,1,0,6.134V1.793A1.793,1.793,0,0,1,1.793,0Z" transform="matrix(0.707, 0.707, -0.707, 0.707, 87.128, 0)"/><path class="bi" d="M1.793,0h0A1.794,1.794,0,0,1,3.588,1.794V7.161A1.794,1.794,0,0,1,1.794,8.955h0A1.794,1.794,0,0,1,0,7.161V1.793A1.793,1.793,0,0,1,1.793,0Z" transform="matrix(0.707, 0.707, -0.707, 0.707, 6.334, 81.111)"/></g><g transform="translate(18.557 18.768)"><path class="bi" d="M1.793,0h0A1.794,1.794,0,0,1,3.588,1.794v4.34A1.794,1.794,0,0,1,1.794,7.928h0A1.794,1.794,0,0,1,0,6.134V1.793A1.793,1.793,0,0,1,1.793,0Z" transform="matrix(-0.707, 0.707, -0.707, -0.707, 89.979, 87.128)"/><path class="bi" d="M1.793,0h0A1.794,1.794,0,0,1,3.588,1.794V7.161A1.794,1.794,0,0,1,1.794,8.955h0A1.794,1.794,0,0,1,0,7.161V1.793A1.793,1.793,0,0,1,1.793,0Z" transform="matrix(-0.707, 0.707, -0.707, -0.707, 8.868, 6.334)"/></g></g><g transform="translate(79.296 36.931)"><rect class="bg" width="3.962" height="45.56" rx="1.981" transform="translate(0 0)"/><rect class="bg" width="3.962" height="32.684" rx="1.981" transform="translate(32.684 45.065) rotate(90)"/></g><line class="bj" x1="29.713" y2="26.742" transform="translate(81.524 54.511)"/><circle class="ae" cx="7.181" cy="7.181" r="7.181" transform="translate(74.121 74.283)"/></g></g></svg>